<?xml version="1.0" encoding="UTF-8" standalone="no"?>
<!DOCTYPE svg PUBLIC "-//W3C//DTD SVG 1.1//EN"
 "http://www.w3.org/Graphics/SVG/1.1/DTD/svg11.dtd">
<!-- Generated by graphviz version 2.46.1 (20210213.1702)
 -->
<!-- Title: dependencies Pages: 1 -->
<svg width="504pt" height="211pt"
 viewBox="0.00 0.00 504.00 211.00" xmlns="http://www.w3.org/2000/svg" xmlns:xlink="http://www.w3.org/1999/xlink">
<g id="graph0" class="graph" transform="scale(1 1) rotate(0) translate(4 207)">
<title>dependencies</title>
<polygon fill="white" stroke="transparent" points="-4,4 -4,-207 500,-207 500,4 -4,4"/>
<text text-anchor="start" x="227.01" y="-42.4" font-family="sans-serif" font-weight="bold" font-size="14.00">Legend</text>
<polygon fill="#ffffb3" stroke="transparent" points="14,-10 14,-30 34,-30 34,-10 14,-10"/>
<text text-anchor="start" x="37.63" y="-15.4" font-family="sans-serif" font-size="14.00"> &#160;Declarations</text>
<polygon fill="#8dd3c7" stroke="transparent" points="127,-10 127,-30 147,-30 147,-10 127,-10"/>
<text text-anchor="start" x="150.73" y="-15.4" font-family="sans-serif" font-size="14.00"> &#160;Module</text>
<polygon fill="#80b1d3" stroke="transparent" points="213,-10 213,-30 233,-30 233,-10 213,-10"/>
<text text-anchor="start" x="236.78" y="-15.4" font-family="sans-serif" font-size="14.00"> &#160;Bootstrap</text>
<polygon fill="#fdb462" stroke="transparent" points="310,-10 310,-30 330,-30 330,-10 310,-10"/>
<text text-anchor="start" x="333.67" y="-15.4" font-family="sans-serif" font-size="14.00"> &#160;Providers</text>
<polygon fill="#fb8072" stroke="transparent" points="406,-10 406,-30 426,-30 426,-10 406,-10"/>
<text text-anchor="start" x="429.73" y="-15.4" font-family="sans-serif" font-size="14.00"> &#160;Exports</text>
<g id="clust1" class="cluster">
<title>cluster_TestCapacidadInfoPageModule</title>
<polygon fill="none" stroke="black" stroke-dasharray="1,5" points="26,-70 26,-195 470,-195 470,-70 26,-70"/>
</g>
<g id="clust4" class="cluster">
<title>cluster_TestCapacidadInfoPageModule_imports</title>
<polygon fill="none" stroke="black" points="208,-78 208,-130 462,-130 462,-78 208,-78"/>
</g>
<g id="clust2" class="cluster">
<title>cluster_TestCapacidadInfoPageModule_declarations</title>
<polygon fill="none" stroke="black" points="34,-78 34,-130 200,-130 200,-78 34,-78"/>
</g>
<!-- TestCapacidadInfoPage -->
<g id="node1" class="node">
<title>TestCapacidadInfoPage</title>
<polygon fill="#ffffb3" stroke="black" points="191.72,-122 42.28,-122 42.28,-86 191.72,-86 191.72,-122"/>
<text text-anchor="middle" x="117" y="-99.8" font-family="Times,serif" font-size="14.00">TestCapacidadInfoPage</text>
</g>
<!-- TestCapacidadInfoPageModule -->
<g id="node2" class="node">
<title>TestCapacidadInfoPageModule</title>
<polygon fill="#8dd3c7" stroke="black" points="329.77,-187 326.77,-191 305.77,-191 302.77,-187 136.23,-187 136.23,-151 329.77,-151 329.77,-187"/>
<text text-anchor="middle" x="233" y="-164.8" font-family="Times,serif" font-size="14.00">TestCapacidadInfoPageModule</text>
</g>
<!-- TestCapacidadInfoPage&#45;&gt;TestCapacidadInfoPageModule -->
<g id="edge1" class="edge">
<title>TestCapacidadInfoPage&#45;&gt;TestCapacidadInfoPageModule</title>
<path fill="none" stroke="black" d="M164.11,-122.11C164.11,-122.11 164.11,-140.99 164.11,-140.99"/>
<polygon fill="black" stroke="black" points="160.61,-140.99 164.11,-150.99 167.61,-140.99 160.61,-140.99"/>
</g>
<!-- TestCapacidadInfoPageRoutingModule -->
<g id="node3" class="node">
<title>TestCapacidadInfoPageRoutingModule</title>
<polygon fill="#8dd3c7" stroke="black" points="454.39,-122 451.39,-126 430.39,-126 427.39,-122 215.61,-122 215.61,-86 454.39,-86 454.39,-122"/>
<text text-anchor="middle" x="335" y="-99.8" font-family="Times,serif" font-size="14.00">TestCapacidadInfoPageRoutingModule</text>
</g>
<!-- TestCapacidadInfoPageRoutingModule&#45;&gt;TestCapacidadInfoPageModule -->
<g id="edge2" class="edge">
<title>TestCapacidadInfoPageRoutingModule&#45;&gt;TestCapacidadInfoPageModule</title>
<path fill="none" stroke="black" d="M272.72,-122.11C272.72,-122.11 272.72,-140.99 272.72,-140.99"/>
<polygon fill="black" stroke="black" points="269.22,-140.99 272.72,-150.99 276.22,-140.99 269.22,-140.99"/>
</g>
</g>
</svg>
