<?xml version="1.0" encoding="UTF-8" standalone="no"?>
<!DOCTYPE svg PUBLIC "-//W3C//DTD SVG 1.1//EN"
 "http://www.w3.org/Graphics/SVG/1.1/DTD/svg11.dtd">
<!-- Generated by graphviz version 2.46.1 (20210213.1702)
 -->
<!-- Title: dependencies Pages: 1 -->
<svg width="520pt" height="211pt"
 viewBox="0.00 0.00 520.00 211.00" xmlns="http://www.w3.org/2000/svg" xmlns:xlink="http://www.w3.org/1999/xlink">
<g id="graph0" class="graph" transform="scale(1 1) rotate(0) translate(4 207)">
<title>dependencies</title>
<polygon fill="white" stroke="transparent" points="-4,4 -4,-207 516,-207 516,4 -4,4"/>
<text text-anchor="start" x="235.01" y="-42.4" font-family="sans-serif" font-weight="bold" font-size="14.00">Legend</text>
<polygon fill="#ffffb3" stroke="transparent" points="22,-10 22,-30 42,-30 42,-10 22,-10"/>
<text text-anchor="start" x="45.63" y="-15.4" font-family="sans-serif" font-size="14.00"> &#160;Declarations</text>
<polygon fill="#8dd3c7" stroke="transparent" points="135,-10 135,-30 155,-30 155,-10 135,-10"/>
<text text-anchor="start" x="158.73" y="-15.4" font-family="sans-serif" font-size="14.00"> &#160;Module</text>
<polygon fill="#80b1d3" stroke="transparent" points="221,-10 221,-30 241,-30 241,-10 221,-10"/>
<text text-anchor="start" x="244.78" y="-15.4" font-family="sans-serif" font-size="14.00"> &#160;Bootstrap</text>
<polygon fill="#fdb462" stroke="transparent" points="318,-10 318,-30 338,-30 338,-10 318,-10"/>
<text text-anchor="start" x="341.67" y="-15.4" font-family="sans-serif" font-size="14.00"> &#160;Providers</text>
<polygon fill="#fb8072" stroke="transparent" points="414,-10 414,-30 434,-30 434,-10 414,-10"/>
<text text-anchor="start" x="437.73" y="-15.4" font-family="sans-serif" font-size="14.00"> &#160;Exports</text>
<g id="clust1" class="cluster">
<title>cluster_ListaejercicioremplazarPageModule</title>
<polygon fill="none" stroke="black" stroke-dasharray="1,5" points="8,-70 8,-195 504,-195 504,-70 8,-70"/>
</g>
<g id="clust4" class="cluster">
<title>cluster_ListaejercicioremplazarPageModule_imports</title>
<polygon fill="none" stroke="black" points="216,-78 216,-130 496,-130 496,-78 216,-78"/>
</g>
<g id="clust2" class="cluster">
<title>cluster_ListaejercicioremplazarPageModule_declarations</title>
<polygon fill="none" stroke="black" points="16,-78 16,-130 208,-130 208,-78 16,-78"/>
</g>
<!-- ListaejercicioremplazarPage -->
<g id="node1" class="node">
<title>ListaejercicioremplazarPage</title>
<polygon fill="#ffffb3" stroke="black" points="199.86,-122 24.14,-122 24.14,-86 199.86,-86 199.86,-122"/>
<text text-anchor="middle" x="112" y="-99.8" font-family="Times,serif" font-size="14.00">ListaejercicioremplazarPage</text>
</g>
<!-- ListaejercicioremplazarPageModule -->
<g id="node2" class="node">
<title>ListaejercicioremplazarPageModule</title>
<polygon fill="#8dd3c7" stroke="black" points="349.41,-187 346.41,-191 325.41,-191 322.41,-187 130.59,-187 130.59,-151 349.41,-151 349.41,-187"/>
<text text-anchor="middle" x="240" y="-164.8" font-family="Times,serif" font-size="14.00">ListaejercicioremplazarPageModule</text>
</g>
<!-- ListaejercicioremplazarPage&#45;&gt;ListaejercicioremplazarPageModule -->
<g id="edge1" class="edge">
<title>ListaejercicioremplazarPage&#45;&gt;ListaejercicioremplazarPageModule</title>
<path fill="none" stroke="black" d="M165.11,-122.11C165.11,-122.11 165.11,-140.99 165.11,-140.99"/>
<polygon fill="black" stroke="black" points="161.61,-140.99 165.11,-150.99 168.61,-140.99 161.61,-140.99"/>
</g>
<!-- ListaejercicioremplazarPageRoutingModule -->
<g id="node3" class="node">
<title>ListaejercicioremplazarPageRoutingModule</title>
<polygon fill="#8dd3c7" stroke="black" points="488.02,-122 485.02,-126 464.02,-126 461.02,-122 223.98,-122 223.98,-86 488.02,-86 488.02,-122"/>
<text text-anchor="middle" x="356" y="-99.8" font-family="Times,serif" font-size="14.00">ListaejercicioremplazarPageRoutingModule</text>
</g>
<!-- ListaejercicioremplazarPageRoutingModule&#45;&gt;ListaejercicioremplazarPageModule -->
<g id="edge2" class="edge">
<title>ListaejercicioremplazarPageRoutingModule&#45;&gt;ListaejercicioremplazarPageModule</title>
<path fill="none" stroke="black" d="M286.72,-122.11C286.72,-122.11 286.72,-140.99 286.72,-140.99"/>
<polygon fill="black" stroke="black" points="283.22,-140.99 286.72,-150.99 290.22,-140.99 283.22,-140.99"/>
</g>
</g>
</svg>
