<?xml version="1.0" encoding="UTF-8" standalone="no"?>
<!DOCTYPE svg PUBLIC "-//W3C//DTD SVG 1.1//EN"
 "http://www.w3.org/Graphics/SVG/1.1/DTD/svg11.dtd">
<!-- Generated by graphviz version 2.46.1 (20210213.1702)
 -->
<!-- Title: dependencies Pages: 1 -->
<svg width="628pt" height="211pt"
 viewBox="0.00 0.00 628.00 211.00" xmlns="http://www.w3.org/2000/svg" xmlns:xlink="http://www.w3.org/1999/xlink">
<g id="graph0" class="graph" transform="scale(1 1) rotate(0) translate(4 207)">
<title>dependencies</title>
<polygon fill="white" stroke="transparent" points="-4,4 -4,-207 624,-207 624,4 -4,4"/>
<text text-anchor="start" x="289.01" y="-42.4" font-family="sans-serif" font-weight="bold" font-size="14.00">Legend</text>
<polygon fill="#ffffb3" stroke="transparent" points="76,-10 76,-30 96,-30 96,-10 76,-10"/>
<text text-anchor="start" x="99.63" y="-15.4" font-family="sans-serif" font-size="14.00"> &#160;Declarations</text>
<polygon fill="#8dd3c7" stroke="transparent" points="189,-10 189,-30 209,-30 209,-10 189,-10"/>
<text text-anchor="start" x="212.73" y="-15.4" font-family="sans-serif" font-size="14.00"> &#160;Module</text>
<polygon fill="#80b1d3" stroke="transparent" points="275,-10 275,-30 295,-30 295,-10 275,-10"/>
<text text-anchor="start" x="298.78" y="-15.4" font-family="sans-serif" font-size="14.00"> &#160;Bootstrap</text>
<polygon fill="#fdb462" stroke="transparent" points="372,-10 372,-30 392,-30 392,-10 372,-10"/>
<text text-anchor="start" x="395.67" y="-15.4" font-family="sans-serif" font-size="14.00"> &#160;Providers</text>
<polygon fill="#fb8072" stroke="transparent" points="468,-10 468,-30 488,-30 488,-10 468,-10"/>
<text text-anchor="start" x="491.73" y="-15.4" font-family="sans-serif" font-size="14.00"> &#160;Exports</text>
<g id="clust1" class="cluster">
<title>cluster_BateriacalentamientoesperahomePageModule</title>
<polygon fill="none" stroke="black" stroke-dasharray="1,5" points="8,-70 8,-195 612,-195 612,-70 8,-70"/>
</g>
<g id="clust2" class="cluster">
<title>cluster_BateriacalentamientoesperahomePageModule_declarations</title>
<polygon fill="none" stroke="black" points="358,-78 358,-130 604,-130 604,-78 358,-78"/>
</g>
<g id="clust4" class="cluster">
<title>cluster_BateriacalentamientoesperahomePageModule_imports</title>
<polygon fill="none" stroke="black" points="16,-78 16,-130 350,-130 350,-78 16,-78"/>
</g>
<!-- BateriacalentamientoesperahomePage -->
<g id="node1" class="node">
<title>BateriacalentamientoesperahomePage</title>
<polygon fill="#ffffb3" stroke="black" points="595.51,-122 366.49,-122 366.49,-86 595.51,-86 595.51,-122"/>
<text text-anchor="middle" x="481" y="-99.8" font-family="Times,serif" font-size="14.00">BateriacalentamientoesperahomePage</text>
</g>
<!-- BateriacalentamientoesperahomePageModule -->
<g id="node2" class="node">
<title>BateriacalentamientoesperahomePageModule</title>
<polygon fill="#8dd3c7" stroke="black" points="461.06,-187 458.06,-191 437.06,-191 434.06,-187 188.94,-187 188.94,-151 461.06,-151 461.06,-187"/>
<text text-anchor="middle" x="325" y="-164.8" font-family="Times,serif" font-size="14.00">BateriacalentamientoesperahomePageModule</text>
</g>
<!-- BateriacalentamientoesperahomePage&#45;&gt;BateriacalentamientoesperahomePageModule -->
<g id="edge1" class="edge">
<title>BateriacalentamientoesperahomePage&#45;&gt;BateriacalentamientoesperahomePageModule</title>
<path fill="none" stroke="black" d="M413.89,-122.11C413.89,-122.11 413.89,-140.99 413.89,-140.99"/>
<polygon fill="black" stroke="black" points="410.39,-140.99 413.89,-150.99 417.39,-140.99 410.39,-140.99"/>
</g>
<!-- BateriacalentamientoesperahomePageRoutingModule -->
<g id="node3" class="node">
<title>BateriacalentamientoesperahomePageRoutingModule</title>
<polygon fill="#8dd3c7" stroke="black" points="341.68,-122 338.68,-126 317.68,-126 314.68,-122 24.32,-122 24.32,-86 341.68,-86 341.68,-122"/>
<text text-anchor="middle" x="183" y="-99.8" font-family="Times,serif" font-size="14.00">BateriacalentamientoesperahomePageRoutingModule</text>
</g>
<!-- BateriacalentamientoesperahomePageRoutingModule&#45;&gt;BateriacalentamientoesperahomePageModule -->
<g id="edge2" class="edge">
<title>BateriacalentamientoesperahomePageRoutingModule&#45;&gt;BateriacalentamientoesperahomePageModule</title>
<path fill="none" stroke="black" d="M265.28,-122.11C265.28,-122.11 265.28,-140.99 265.28,-140.99"/>
<polygon fill="black" stroke="black" points="261.78,-140.99 265.28,-150.99 268.78,-140.99 261.78,-140.99"/>
</g>
</g>
</svg>
