<?xml version="1.0" encoding="UTF-8" standalone="no"?>
<!DOCTYPE svg PUBLIC "-//W3C//DTD SVG 1.1//EN"
 "http://www.w3.org/Graphics/SVG/1.1/DTD/svg11.dtd">
<!-- Generated by graphviz version 2.46.1 (20210213.1702)
 -->
<!-- Title: dependencies Pages: 1 -->
<svg width="504pt" height="211pt"
 viewBox="0.00 0.00 504.00 211.00" xmlns="http://www.w3.org/2000/svg" xmlns:xlink="http://www.w3.org/1999/xlink">
<g id="graph0" class="graph" transform="scale(1 1) rotate(0) translate(4 207)">
<title>dependencies</title>
<polygon fill="white" stroke="transparent" points="-4,4 -4,-207 500,-207 500,4 -4,4"/>
<text text-anchor="start" x="227.01" y="-42.4" font-family="sans-serif" font-weight="bold" font-size="14.00">Legend</text>
<polygon fill="#ffffb3" stroke="transparent" points="14,-10 14,-30 34,-30 34,-10 14,-10"/>
<text text-anchor="start" x="37.63" y="-15.4" font-family="sans-serif" font-size="14.00"> &#160;Declarations</text>
<polygon fill="#8dd3c7" stroke="transparent" points="127,-10 127,-30 147,-30 147,-10 127,-10"/>
<text text-anchor="start" x="150.73" y="-15.4" font-family="sans-serif" font-size="14.00"> &#160;Module</text>
<polygon fill="#80b1d3" stroke="transparent" points="213,-10 213,-30 233,-30 233,-10 213,-10"/>
<text text-anchor="start" x="236.78" y="-15.4" font-family="sans-serif" font-size="14.00"> &#160;Bootstrap</text>
<polygon fill="#fdb462" stroke="transparent" points="310,-10 310,-30 330,-30 330,-10 310,-10"/>
<text text-anchor="start" x="333.67" y="-15.4" font-family="sans-serif" font-size="14.00"> &#160;Providers</text>
<polygon fill="#fb8072" stroke="transparent" points="406,-10 406,-30 426,-30 426,-10 406,-10"/>
<text text-anchor="start" x="429.73" y="-15.4" font-family="sans-serif" font-size="14.00"> &#160;Exports</text>
<g id="clust1" class="cluster">
<title>cluster_CalendarioPageModule</title>
<polygon fill="none" stroke="black" stroke-dasharray="1,5" points="71,-70 71,-195 425,-195 425,-70 71,-70"/>
</g>
<g id="clust2" class="cluster">
<title>cluster_CalendarioPageModule_declarations</title>
<polygon fill="none" stroke="black" points="297,-78 297,-130 417,-130 417,-78 297,-78"/>
</g>
<g id="clust4" class="cluster">
<title>cluster_CalendarioPageModule_imports</title>
<polygon fill="none" stroke="black" points="79,-78 79,-130 289,-130 289,-78 79,-78"/>
</g>
<!-- CalendarioPage -->
<g id="node1" class="node">
<title>CalendarioPage</title>
<polygon fill="#ffffb3" stroke="black" points="409.13,-122 304.87,-122 304.87,-86 409.13,-86 409.13,-122"/>
<text text-anchor="middle" x="357" y="-99.8" font-family="Times,serif" font-size="14.00">CalendarioPage</text>
</g>
<!-- CalendarioPageModule -->
<g id="node2" class="node">
<title>CalendarioPageModule</title>
<polygon fill="#8dd3c7" stroke="black" points="337.18,-187 334.18,-191 313.18,-191 310.18,-187 188.82,-187 188.82,-151 337.18,-151 337.18,-187"/>
<text text-anchor="middle" x="263" y="-164.8" font-family="Times,serif" font-size="14.00">CalendarioPageModule</text>
</g>
<!-- CalendarioPage&#45;&gt;CalendarioPageModule -->
<g id="edge1" class="edge">
<title>CalendarioPage&#45;&gt;CalendarioPageModule</title>
<path fill="none" stroke="black" d="M320.89,-122.11C320.89,-122.11 320.89,-140.99 320.89,-140.99"/>
<polygon fill="black" stroke="black" points="317.39,-140.99 320.89,-150.99 324.39,-140.99 317.39,-140.99"/>
</g>
<!-- CalendarioPageRoutingModule -->
<g id="node3" class="node">
<title>CalendarioPageRoutingModule</title>
<polygon fill="#8dd3c7" stroke="black" points="280.8,-122 277.8,-126 256.8,-126 253.8,-122 87.2,-122 87.2,-86 280.8,-86 280.8,-122"/>
<text text-anchor="middle" x="184" y="-99.8" font-family="Times,serif" font-size="14.00">CalendarioPageRoutingModule</text>
</g>
<!-- CalendarioPageRoutingModule&#45;&gt;CalendarioPageModule -->
<g id="edge2" class="edge">
<title>CalendarioPageRoutingModule&#45;&gt;CalendarioPageModule</title>
<path fill="none" stroke="black" d="M234.78,-122.11C234.78,-122.11 234.78,-140.99 234.78,-140.99"/>
<polygon fill="black" stroke="black" points="231.28,-140.99 234.78,-150.99 238.28,-140.99 231.28,-140.99"/>
</g>
</g>
</svg>
