<?xml version="1.0" encoding="UTF-8" standalone="no"?>
<!DOCTYPE svg PUBLIC "-//W3C//DTD SVG 1.1//EN"
 "http://www.w3.org/Graphics/SVG/1.1/DTD/svg11.dtd">
<!-- Generated by graphviz version 2.46.1 (20210213.1702)
 -->
<!-- Title: dependencies Pages: 1 -->
<svg width="504pt" height="211pt"
 viewBox="0.00 0.00 504.00 211.00" xmlns="http://www.w3.org/2000/svg" xmlns:xlink="http://www.w3.org/1999/xlink">
<g id="graph0" class="graph" transform="scale(1 1) rotate(0) translate(4 207)">
<title>dependencies</title>
<polygon fill="white" stroke="transparent" points="-4,4 -4,-207 500,-207 500,4 -4,4"/>
<text text-anchor="start" x="227.01" y="-42.4" font-family="sans-serif" font-weight="bold" font-size="14.00">Legend</text>
<polygon fill="#ffffb3" stroke="transparent" points="14,-10 14,-30 34,-30 34,-10 14,-10"/>
<text text-anchor="start" x="37.63" y="-15.4" font-family="sans-serif" font-size="14.00"> &#160;Declarations</text>
<polygon fill="#8dd3c7" stroke="transparent" points="127,-10 127,-30 147,-30 147,-10 127,-10"/>
<text text-anchor="start" x="150.73" y="-15.4" font-family="sans-serif" font-size="14.00"> &#160;Module</text>
<polygon fill="#80b1d3" stroke="transparent" points="213,-10 213,-30 233,-30 233,-10 213,-10"/>
<text text-anchor="start" x="236.78" y="-15.4" font-family="sans-serif" font-size="14.00"> &#160;Bootstrap</text>
<polygon fill="#fdb462" stroke="transparent" points="310,-10 310,-30 330,-30 330,-10 310,-10"/>
<text text-anchor="start" x="333.67" y="-15.4" font-family="sans-serif" font-size="14.00"> &#160;Providers</text>
<polygon fill="#fb8072" stroke="transparent" points="406,-10 406,-30 426,-30 426,-10 406,-10"/>
<text text-anchor="start" x="429.73" y="-15.4" font-family="sans-serif" font-size="14.00"> &#160;Exports</text>
<g id="clust1" class="cluster">
<title>cluster_RelacioncaderaPageModule</title>
<polygon fill="none" stroke="black" stroke-dasharray="1,5" points="46,-70 46,-195 450,-195 450,-70 46,-70"/>
</g>
<g id="clust4" class="cluster">
<title>cluster_RelacioncaderaPageModule_imports</title>
<polygon fill="none" stroke="black" points="208,-78 208,-130 442,-130 442,-78 208,-78"/>
</g>
<g id="clust2" class="cluster">
<title>cluster_RelacioncaderaPageModule_declarations</title>
<polygon fill="none" stroke="black" points="54,-78 54,-130 200,-130 200,-78 54,-78"/>
</g>
<!-- RelacioncaderaPage -->
<g id="node1" class="node">
<title>RelacioncaderaPage</title>
<polygon fill="#ffffb3" stroke="black" points="191.99,-122 62.01,-122 62.01,-86 191.99,-86 191.99,-122"/>
<text text-anchor="middle" x="127" y="-99.8" font-family="Times,serif" font-size="14.00">RelacioncaderaPage</text>
</g>
<!-- RelacioncaderaPageModule -->
<g id="node2" class="node">
<title>RelacioncaderaPageModule</title>
<polygon fill="#8dd3c7" stroke="black" points="319.54,-187 316.54,-191 295.54,-191 292.54,-187 146.46,-187 146.46,-151 319.54,-151 319.54,-187"/>
<text text-anchor="middle" x="233" y="-164.8" font-family="Times,serif" font-size="14.00">RelacioncaderaPageModule</text>
</g>
<!-- RelacioncaderaPage&#45;&gt;RelacioncaderaPageModule -->
<g id="edge1" class="edge">
<title>RelacioncaderaPage&#45;&gt;RelacioncaderaPageModule</title>
<path fill="none" stroke="black" d="M169.11,-122.11C169.11,-122.11 169.11,-140.99 169.11,-140.99"/>
<polygon fill="black" stroke="black" points="165.61,-140.99 169.11,-150.99 172.61,-140.99 165.61,-140.99"/>
</g>
<!-- RelacioncaderaPageRoutingModule -->
<g id="node3" class="node">
<title>RelacioncaderaPageRoutingModule</title>
<polygon fill="#8dd3c7" stroke="black" points="434.16,-122 431.16,-126 410.16,-126 407.16,-122 215.84,-122 215.84,-86 434.16,-86 434.16,-122"/>
<text text-anchor="middle" x="325" y="-99.8" font-family="Times,serif" font-size="14.00">RelacioncaderaPageRoutingModule</text>
</g>
<!-- RelacioncaderaPageRoutingModule&#45;&gt;RelacioncaderaPageModule -->
<g id="edge2" class="edge">
<title>RelacioncaderaPageRoutingModule&#45;&gt;RelacioncaderaPageModule</title>
<path fill="none" stroke="black" d="M267.72,-122.11C267.72,-122.11 267.72,-140.99 267.72,-140.99"/>
<polygon fill="black" stroke="black" points="264.22,-140.99 267.72,-150.99 271.22,-140.99 264.22,-140.99"/>
</g>
</g>
</svg>
