<?xml version="1.0" encoding="UTF-8" standalone="no"?>
<!DOCTYPE svg PUBLIC "-//W3C//DTD SVG 1.1//EN"
 "http://www.w3.org/Graphics/SVG/1.1/DTD/svg11.dtd">
<!-- Generated by graphviz version 2.46.1 (20210213.1702)
 -->
<!-- Title: dependencies Pages: 1 -->
<svg width="504pt" height="211pt"
 viewBox="0.00 0.00 504.00 211.00" xmlns="http://www.w3.org/2000/svg" xmlns:xlink="http://www.w3.org/1999/xlink">
<g id="graph0" class="graph" transform="scale(1 1) rotate(0) translate(4 207)">
<title>dependencies</title>
<polygon fill="white" stroke="transparent" points="-4,4 -4,-207 500,-207 500,4 -4,4"/>
<text text-anchor="start" x="227.01" y="-42.4" font-family="sans-serif" font-weight="bold" font-size="14.00">Legend</text>
<polygon fill="#ffffb3" stroke="transparent" points="14,-10 14,-30 34,-30 34,-10 14,-10"/>
<text text-anchor="start" x="37.63" y="-15.4" font-family="sans-serif" font-size="14.00"> &#160;Declarations</text>
<polygon fill="#8dd3c7" stroke="transparent" points="127,-10 127,-30 147,-30 147,-10 127,-10"/>
<text text-anchor="start" x="150.73" y="-15.4" font-family="sans-serif" font-size="14.00"> &#160;Module</text>
<polygon fill="#80b1d3" stroke="transparent" points="213,-10 213,-30 233,-30 233,-10 213,-10"/>
<text text-anchor="start" x="236.78" y="-15.4" font-family="sans-serif" font-size="14.00"> &#160;Bootstrap</text>
<polygon fill="#fdb462" stroke="transparent" points="310,-10 310,-30 330,-30 330,-10 310,-10"/>
<text text-anchor="start" x="333.67" y="-15.4" font-family="sans-serif" font-size="14.00"> &#160;Providers</text>
<polygon fill="#fb8072" stroke="transparent" points="406,-10 406,-30 426,-30 426,-10 406,-10"/>
<text text-anchor="start" x="429.73" y="-15.4" font-family="sans-serif" font-size="14.00"> &#160;Exports</text>
<g id="clust1" class="cluster">
<title>cluster_PlanesPagosPageModule</title>
<polygon fill="none" stroke="black" stroke-dasharray="1,5" points="62,-70 62,-195 434,-195 434,-70 62,-70"/>
</g>
<g id="clust2" class="cluster">
<title>cluster_PlanesPagosPageModule_declarations</title>
<polygon fill="none" stroke="black" points="296,-78 296,-130 426,-130 426,-78 296,-78"/>
</g>
<g id="clust4" class="cluster">
<title>cluster_PlanesPagosPageModule_imports</title>
<polygon fill="none" stroke="black" points="70,-78 70,-130 288,-130 288,-78 70,-78"/>
</g>
<!-- PlanesPagosPage -->
<g id="node1" class="node">
<title>PlanesPagosPage</title>
<polygon fill="#ffffb3" stroke="black" points="417.7,-122 304.3,-122 304.3,-86 417.7,-86 417.7,-122"/>
<text text-anchor="middle" x="361" y="-99.8" font-family="Times,serif" font-size="14.00">PlanesPagosPage</text>
</g>
<!-- PlanesPagosPageModule -->
<g id="node2" class="node">
<title>PlanesPagosPageModule</title>
<polygon fill="#8dd3c7" stroke="black" points="341.25,-187 338.25,-191 317.25,-191 314.25,-187 184.75,-187 184.75,-151 341.25,-151 341.25,-187"/>
<text text-anchor="middle" x="263" y="-164.8" font-family="Times,serif" font-size="14.00">PlanesPagosPageModule</text>
</g>
<!-- PlanesPagosPage&#45;&gt;PlanesPagosPageModule -->
<g id="edge1" class="edge">
<title>PlanesPagosPage&#45;&gt;PlanesPagosPageModule</title>
<path fill="none" stroke="black" d="M322.89,-122.11C322.89,-122.11 322.89,-140.99 322.89,-140.99"/>
<polygon fill="black" stroke="black" points="319.39,-140.99 322.89,-150.99 326.39,-140.99 319.39,-140.99"/>
</g>
<!-- PlanesPagosPageRoutingModule -->
<g id="node3" class="node">
<title>PlanesPagosPageRoutingModule</title>
<polygon fill="#8dd3c7" stroke="black" points="279.87,-122 276.87,-126 255.87,-126 252.87,-122 78.13,-122 78.13,-86 279.87,-86 279.87,-122"/>
<text text-anchor="middle" x="179" y="-99.8" font-family="Times,serif" font-size="14.00">PlanesPagosPageRoutingModule</text>
</g>
<!-- PlanesPagosPageRoutingModule&#45;&gt;PlanesPagosPageModule -->
<g id="edge2" class="edge">
<title>PlanesPagosPageRoutingModule&#45;&gt;PlanesPagosPageModule</title>
<path fill="none" stroke="black" d="M232.28,-122.11C232.28,-122.11 232.28,-140.99 232.28,-140.99"/>
<polygon fill="black" stroke="black" points="228.78,-140.99 232.28,-150.99 235.78,-140.99 228.78,-140.99"/>
</g>
</g>
</svg>
