<?xml version="1.0" encoding="UTF-8" standalone="no"?>
<!DOCTYPE svg PUBLIC "-//W3C//DTD SVG 1.1//EN"
 "http://www.w3.org/Graphics/SVG/1.1/DTD/svg11.dtd">
<!-- Generated by graphviz version 2.46.1 (20210213.1702)
 -->
<!-- Title: dependencies Pages: 1 -->
<svg width="504pt" height="211pt"
 viewBox="0.00 0.00 504.00 211.00" xmlns="http://www.w3.org/2000/svg" xmlns:xlink="http://www.w3.org/1999/xlink">
<g id="graph0" class="graph" transform="scale(1 1) rotate(0) translate(4 207)">
<title>dependencies</title>
<polygon fill="white" stroke="transparent" points="-4,4 -4,-207 500,-207 500,4 -4,4"/>
<text text-anchor="start" x="227.01" y="-42.4" font-family="sans-serif" font-weight="bold" font-size="14.00">Legend</text>
<polygon fill="#ffffb3" stroke="transparent" points="14,-10 14,-30 34,-30 34,-10 14,-10"/>
<text text-anchor="start" x="37.63" y="-15.4" font-family="sans-serif" font-size="14.00"> &#160;Declarations</text>
<polygon fill="#8dd3c7" stroke="transparent" points="127,-10 127,-30 147,-30 147,-10 127,-10"/>
<text text-anchor="start" x="150.73" y="-15.4" font-family="sans-serif" font-size="14.00"> &#160;Module</text>
<polygon fill="#80b1d3" stroke="transparent" points="213,-10 213,-30 233,-30 233,-10 213,-10"/>
<text text-anchor="start" x="236.78" y="-15.4" font-family="sans-serif" font-size="14.00"> &#160;Bootstrap</text>
<polygon fill="#fdb462" stroke="transparent" points="310,-10 310,-30 330,-30 330,-10 310,-10"/>
<text text-anchor="start" x="333.67" y="-15.4" font-family="sans-serif" font-size="14.00"> &#160;Providers</text>
<polygon fill="#fb8072" stroke="transparent" points="406,-10 406,-30 426,-30 426,-10 406,-10"/>
<text text-anchor="start" x="429.73" y="-15.4" font-family="sans-serif" font-size="14.00"> &#160;Exports</text>
<g id="clust1" class="cluster">
<title>cluster_RangodeedadPageModule</title>
<polygon fill="none" stroke="black" stroke-dasharray="1,5" points="56,-70 56,-195 440,-195 440,-70 56,-70"/>
</g>
<g id="clust2" class="cluster">
<title>cluster_RangodeedadPageModule_declarations</title>
<polygon fill="none" stroke="black" points="296,-78 296,-130 432,-130 432,-78 296,-78"/>
</g>
<g id="clust4" class="cluster">
<title>cluster_RangodeedadPageModule_imports</title>
<polygon fill="none" stroke="black" points="64,-78 64,-130 288,-130 288,-78 64,-78"/>
</g>
<!-- RangodeedadPage -->
<g id="node1" class="node">
<title>RangodeedadPage</title>
<polygon fill="#ffffb3" stroke="black" points="423.91,-122 304.09,-122 304.09,-86 423.91,-86 423.91,-122"/>
<text text-anchor="middle" x="364" y="-99.8" font-family="Times,serif" font-size="14.00">RangodeedadPage</text>
</g>
<!-- RangodeedadPageModule -->
<g id="node2" class="node">
<title>RangodeedadPageModule</title>
<polygon fill="#8dd3c7" stroke="black" points="344.46,-187 341.46,-191 320.46,-191 317.46,-187 181.54,-187 181.54,-151 344.46,-151 344.46,-187"/>
<text text-anchor="middle" x="263" y="-164.8" font-family="Times,serif" font-size="14.00">RangodeedadPageModule</text>
</g>
<!-- RangodeedadPage&#45;&gt;RangodeedadPageModule -->
<g id="edge1" class="edge">
<title>RangodeedadPage&#45;&gt;RangodeedadPageModule</title>
<path fill="none" stroke="black" d="M324.39,-122.11C324.39,-122.11 324.39,-140.99 324.39,-140.99"/>
<polygon fill="black" stroke="black" points="320.89,-140.99 324.39,-150.99 327.89,-140.99 320.89,-140.99"/>
</g>
<!-- RangodeedadPageRoutingModule -->
<g id="node3" class="node">
<title>RangodeedadPageRoutingModule</title>
<polygon fill="#8dd3c7" stroke="black" points="280.07,-122 277.07,-126 256.07,-126 253.07,-122 71.93,-122 71.93,-86 280.07,-86 280.07,-122"/>
<text text-anchor="middle" x="176" y="-99.8" font-family="Times,serif" font-size="14.00">RangodeedadPageRoutingModule</text>
</g>
<!-- RangodeedadPageRoutingModule&#45;&gt;RangodeedadPageModule -->
<g id="edge2" class="edge">
<title>RangodeedadPageRoutingModule&#45;&gt;RangodeedadPageModule</title>
<path fill="none" stroke="black" d="M230.78,-122.11C230.78,-122.11 230.78,-140.99 230.78,-140.99"/>
<polygon fill="black" stroke="black" points="227.28,-140.99 230.78,-150.99 234.28,-140.99 227.28,-140.99"/>
</g>
</g>
</svg>
