<?xml version="1.0" encoding="UTF-8" standalone="no"?>
<!DOCTYPE svg PUBLIC "-//W3C//DTD SVG 1.1//EN"
 "http://www.w3.org/Graphics/SVG/1.1/DTD/svg11.dtd">
<!-- Generated by graphviz version 2.46.1 (20210213.1702)
 -->
<!-- Title: dependencies Pages: 1 -->
<svg width="504pt" height="211pt"
 viewBox="0.00 0.00 504.00 211.00" xmlns="http://www.w3.org/2000/svg" xmlns:xlink="http://www.w3.org/1999/xlink">
<g id="graph0" class="graph" transform="scale(1 1) rotate(0) translate(4 207)">
<title>dependencies</title>
<polygon fill="white" stroke="transparent" points="-4,4 -4,-207 500,-207 500,4 -4,4"/>
<text text-anchor="start" x="227.01" y="-42.4" font-family="sans-serif" font-weight="bold" font-size="14.00">Legend</text>
<polygon fill="#ffffb3" stroke="transparent" points="14,-10 14,-30 34,-30 34,-10 14,-10"/>
<text text-anchor="start" x="37.63" y="-15.4" font-family="sans-serif" font-size="14.00"> &#160;Declarations</text>
<polygon fill="#8dd3c7" stroke="transparent" points="127,-10 127,-30 147,-30 147,-10 127,-10"/>
<text text-anchor="start" x="150.73" y="-15.4" font-family="sans-serif" font-size="14.00"> &#160;Module</text>
<polygon fill="#80b1d3" stroke="transparent" points="213,-10 213,-30 233,-30 233,-10 213,-10"/>
<text text-anchor="start" x="236.78" y="-15.4" font-family="sans-serif" font-size="14.00"> &#160;Bootstrap</text>
<polygon fill="#fdb462" stroke="transparent" points="310,-10 310,-30 330,-30 330,-10 310,-10"/>
<text text-anchor="start" x="333.67" y="-15.4" font-family="sans-serif" font-size="14.00"> &#160;Providers</text>
<polygon fill="#fb8072" stroke="transparent" points="406,-10 406,-30 426,-30 426,-10 406,-10"/>
<text text-anchor="start" x="429.73" y="-15.4" font-family="sans-serif" font-size="14.00"> &#160;Exports</text>
<g id="clust1" class="cluster">
<title>cluster_EntrenamientosPageModule</title>
<polygon fill="none" stroke="black" stroke-dasharray="1,5" points="44,-70 44,-195 452,-195 452,-70 44,-70"/>
</g>
<g id="clust2" class="cluster">
<title>cluster_EntrenamientosPageModule_declarations</title>
<polygon fill="none" stroke="black" points="296,-78 296,-130 444,-130 444,-78 296,-78"/>
</g>
<g id="clust4" class="cluster">
<title>cluster_EntrenamientosPageModule_imports</title>
<polygon fill="none" stroke="black" points="52,-78 52,-130 288,-130 288,-78 52,-78"/>
</g>
<!-- EntrenamientosPage -->
<g id="node1" class="node">
<title>EntrenamientosPage</title>
<polygon fill="#ffffb3" stroke="black" points="435.58,-122 304.42,-122 304.42,-86 435.58,-86 435.58,-122"/>
<text text-anchor="middle" x="370" y="-99.8" font-family="Times,serif" font-size="14.00">EntrenamientosPage</text>
</g>
<!-- EntrenamientosPageModule -->
<g id="node2" class="node">
<title>EntrenamientosPageModule</title>
<polygon fill="#8dd3c7" stroke="black" points="350.13,-187 347.13,-191 326.13,-191 323.13,-187 175.87,-187 175.87,-151 350.13,-151 350.13,-187"/>
<text text-anchor="middle" x="263" y="-164.8" font-family="Times,serif" font-size="14.00">EntrenamientosPageModule</text>
</g>
<!-- EntrenamientosPage&#45;&gt;EntrenamientosPageModule -->
<g id="edge1" class="edge">
<title>EntrenamientosPage&#45;&gt;EntrenamientosPageModule</title>
<path fill="none" stroke="black" d="M327.39,-122.11C327.39,-122.11 327.39,-140.99 327.39,-140.99"/>
<polygon fill="black" stroke="black" points="323.89,-140.99 327.39,-150.99 330.89,-140.99 323.89,-140.99"/>
</g>
<!-- EntrenamientosPageRoutingModule -->
<g id="node3" class="node">
<title>EntrenamientosPageRoutingModule</title>
<polygon fill="#8dd3c7" stroke="black" points="279.74,-122 276.74,-126 255.74,-126 252.74,-122 60.26,-122 60.26,-86 279.74,-86 279.74,-122"/>
<text text-anchor="middle" x="170" y="-99.8" font-family="Times,serif" font-size="14.00">EntrenamientosPageRoutingModule</text>
</g>
<!-- EntrenamientosPageRoutingModule&#45;&gt;EntrenamientosPageModule -->
<g id="edge2" class="edge">
<title>EntrenamientosPageRoutingModule&#45;&gt;EntrenamientosPageModule</title>
<path fill="none" stroke="black" d="M227.78,-122.11C227.78,-122.11 227.78,-140.99 227.78,-140.99"/>
<polygon fill="black" stroke="black" points="224.28,-140.99 227.78,-150.99 231.28,-140.99 224.28,-140.99"/>
</g>
</g>
</svg>
