<?xml version="1.0" encoding="UTF-8" standalone="no"?>
<!DOCTYPE svg PUBLIC "-//W3C//DTD SVG 1.1//EN"
 "http://www.w3.org/Graphics/SVG/1.1/DTD/svg11.dtd">
<!-- Generated by graphviz version 2.46.1 (20210213.1702)
 -->
<!-- Title: dependencies Pages: 1 -->
<svg width="504pt" height="211pt"
 viewBox="0.00 0.00 504.00 211.00" xmlns="http://www.w3.org/2000/svg" xmlns:xlink="http://www.w3.org/1999/xlink">
<g id="graph0" class="graph" transform="scale(1 1) rotate(0) translate(4 207)">
<title>dependencies</title>
<polygon fill="white" stroke="transparent" points="-4,4 -4,-207 500,-207 500,4 -4,4"/>
<text text-anchor="start" x="227.01" y="-42.4" font-family="sans-serif" font-weight="bold" font-size="14.00">Legend</text>
<polygon fill="#ffffb3" stroke="transparent" points="14,-10 14,-30 34,-30 34,-10 14,-10"/>
<text text-anchor="start" x="37.63" y="-15.4" font-family="sans-serif" font-size="14.00"> &#160;Declarations</text>
<polygon fill="#8dd3c7" stroke="transparent" points="127,-10 127,-30 147,-30 147,-10 127,-10"/>
<text text-anchor="start" x="150.73" y="-15.4" font-family="sans-serif" font-size="14.00"> &#160;Module</text>
<polygon fill="#80b1d3" stroke="transparent" points="213,-10 213,-30 233,-30 233,-10 213,-10"/>
<text text-anchor="start" x="236.78" y="-15.4" font-family="sans-serif" font-size="14.00"> &#160;Bootstrap</text>
<polygon fill="#fdb462" stroke="transparent" points="310,-10 310,-30 330,-30 330,-10 310,-10"/>
<text text-anchor="start" x="333.67" y="-15.4" font-family="sans-serif" font-size="14.00"> &#160;Providers</text>
<polygon fill="#fb8072" stroke="transparent" points="406,-10 406,-30 426,-30 426,-10 406,-10"/>
<text text-anchor="start" x="429.73" y="-15.4" font-family="sans-serif" font-size="14.00"> &#160;Exports</text>
<g id="clust1" class="cluster">
<title>cluster_TestFuerzaPasos4PageModule</title>
<polygon fill="none" stroke="black" stroke-dasharray="1,5" points="32,-70 32,-195 464,-195 464,-70 32,-70"/>
</g>
<g id="clust4" class="cluster">
<title>cluster_TestFuerzaPasos4PageModule_imports</title>
<polygon fill="none" stroke="black" points="208,-78 208,-130 456,-130 456,-78 208,-78"/>
</g>
<g id="clust2" class="cluster">
<title>cluster_TestFuerzaPasos4PageModule_declarations</title>
<polygon fill="none" stroke="black" points="40,-78 40,-130 200,-130 200,-78 40,-78"/>
</g>
<!-- TestFuerzaPasos4Page -->
<g id="node1" class="node">
<title>TestFuerzaPasos4Page</title>
<polygon fill="#ffffb3" stroke="black" points="192.29,-122 47.71,-122 47.71,-86 192.29,-86 192.29,-122"/>
<text text-anchor="middle" x="120" y="-99.8" font-family="Times,serif" font-size="14.00">TestFuerzaPasos4Page</text>
</g>
<!-- TestFuerzaPasos4PageModule -->
<g id="node2" class="node">
<title>TestFuerzaPasos4PageModule</title>
<polygon fill="#8dd3c7" stroke="black" points="326.84,-187 323.84,-191 302.84,-191 299.84,-187 139.16,-187 139.16,-151 326.84,-151 326.84,-187"/>
<text text-anchor="middle" x="233" y="-164.8" font-family="Times,serif" font-size="14.00">TestFuerzaPasos4PageModule</text>
</g>
<!-- TestFuerzaPasos4Page&#45;&gt;TestFuerzaPasos4PageModule -->
<g id="edge1" class="edge">
<title>TestFuerzaPasos4Page&#45;&gt;TestFuerzaPasos4PageModule</title>
<path fill="none" stroke="black" d="M165.61,-122.11C165.61,-122.11 165.61,-140.99 165.61,-140.99"/>
<polygon fill="black" stroke="black" points="162.11,-140.99 165.61,-150.99 169.11,-140.99 162.11,-140.99"/>
</g>
<!-- TestFuerzaPasos4PageRoutingModule -->
<g id="node3" class="node">
<title>TestFuerzaPasos4PageRoutingModule</title>
<polygon fill="#8dd3c7" stroke="black" points="448.46,-122 445.46,-126 424.46,-126 421.46,-122 215.54,-122 215.54,-86 448.46,-86 448.46,-122"/>
<text text-anchor="middle" x="332" y="-99.8" font-family="Times,serif" font-size="14.00">TestFuerzaPasos4PageRoutingModule</text>
</g>
<!-- TestFuerzaPasos4PageRoutingModule&#45;&gt;TestFuerzaPasos4PageModule -->
<g id="edge2" class="edge">
<title>TestFuerzaPasos4PageRoutingModule&#45;&gt;TestFuerzaPasos4PageModule</title>
<path fill="none" stroke="black" d="M271.22,-122.11C271.22,-122.11 271.22,-140.99 271.22,-140.99"/>
<polygon fill="black" stroke="black" points="267.72,-140.99 271.22,-150.99 274.72,-140.99 267.72,-140.99"/>
</g>
</g>
</svg>
