<?xml version="1.0" encoding="UTF-8" standalone="no"?>
<!DOCTYPE svg PUBLIC "-//W3C//DTD SVG 1.1//EN"
 "http://www.w3.org/Graphics/SVG/1.1/DTD/svg11.dtd">
<!-- Generated by graphviz version 2.46.1 (20210213.1702)
 -->
<!-- Title: dependencies Pages: 1 -->
<svg width="540pt" height="211pt"
 viewBox="0.00 0.00 540.00 211.00" xmlns="http://www.w3.org/2000/svg" xmlns:xlink="http://www.w3.org/1999/xlink">
<g id="graph0" class="graph" transform="scale(1 1) rotate(0) translate(4 207)">
<title>dependencies</title>
<polygon fill="white" stroke="transparent" points="-4,4 -4,-207 536,-207 536,4 -4,4"/>
<text text-anchor="start" x="245.01" y="-42.4" font-family="sans-serif" font-weight="bold" font-size="14.00">Legend</text>
<polygon fill="#ffffb3" stroke="transparent" points="32,-10 32,-30 52,-30 52,-10 32,-10"/>
<text text-anchor="start" x="55.63" y="-15.4" font-family="sans-serif" font-size="14.00"> &#160;Declarations</text>
<polygon fill="#8dd3c7" stroke="transparent" points="145,-10 145,-30 165,-30 165,-10 145,-10"/>
<text text-anchor="start" x="168.73" y="-15.4" font-family="sans-serif" font-size="14.00"> &#160;Module</text>
<polygon fill="#80b1d3" stroke="transparent" points="231,-10 231,-30 251,-30 251,-10 231,-10"/>
<text text-anchor="start" x="254.78" y="-15.4" font-family="sans-serif" font-size="14.00"> &#160;Bootstrap</text>
<polygon fill="#fdb462" stroke="transparent" points="328,-10 328,-30 348,-30 348,-10 328,-10"/>
<text text-anchor="start" x="351.67" y="-15.4" font-family="sans-serif" font-size="14.00"> &#160;Providers</text>
<polygon fill="#fb8072" stroke="transparent" points="424,-10 424,-30 444,-30 444,-10 424,-10"/>
<text text-anchor="start" x="447.73" y="-15.4" font-family="sans-serif" font-size="14.00"> &#160;Exports</text>
<g id="clust1" class="cluster">
<title>cluster_PercepcionentrenamientoPageModule</title>
<polygon fill="none" stroke="black" stroke-dasharray="1,5" points="8,-70 8,-195 524,-195 524,-70 8,-70"/>
</g>
<g id="clust2" class="cluster">
<title>cluster_PercepcionentrenamientoPageModule_declarations</title>
<polygon fill="none" stroke="black" points="314,-78 314,-130 516,-130 516,-78 314,-78"/>
</g>
<g id="clust4" class="cluster">
<title>cluster_PercepcionentrenamientoPageModule_imports</title>
<polygon fill="none" stroke="black" points="16,-78 16,-130 306,-130 306,-78 16,-78"/>
</g>
<!-- PercepcionentrenamientoPage -->
<g id="node1" class="node">
<title>PercepcionentrenamientoPage</title>
<polygon fill="#ffffb3" stroke="black" points="507.99,-122 322.01,-122 322.01,-86 507.99,-86 507.99,-122"/>
<text text-anchor="middle" x="415" y="-99.8" font-family="Times,serif" font-size="14.00">PercepcionentrenamientoPage</text>
</g>
<!-- PercepcionentrenamientoPageModule -->
<g id="node2" class="node">
<title>PercepcionentrenamientoPageModule</title>
<polygon fill="#8dd3c7" stroke="black" points="395.54,-187 392.54,-191 371.54,-191 368.54,-187 166.46,-187 166.46,-151 395.54,-151 395.54,-187"/>
<text text-anchor="middle" x="281" y="-164.8" font-family="Times,serif" font-size="14.00">PercepcionentrenamientoPageModule</text>
</g>
<!-- PercepcionentrenamientoPage&#45;&gt;PercepcionentrenamientoPageModule -->
<g id="edge1" class="edge">
<title>PercepcionentrenamientoPage&#45;&gt;PercepcionentrenamientoPageModule</title>
<path fill="none" stroke="black" d="M358.89,-122.11C358.89,-122.11 358.89,-140.99 358.89,-140.99"/>
<polygon fill="black" stroke="black" points="355.39,-140.99 358.89,-150.99 362.39,-140.99 355.39,-140.99"/>
</g>
<!-- PercepcionentrenamientoPageRoutingModule -->
<g id="node3" class="node">
<title>PercepcionentrenamientoPageRoutingModule</title>
<polygon fill="#8dd3c7" stroke="black" points="298.15,-122 295.15,-126 274.15,-126 271.15,-122 23.85,-122 23.85,-86 298.15,-86 298.15,-122"/>
<text text-anchor="middle" x="161" y="-99.8" font-family="Times,serif" font-size="14.00">PercepcionentrenamientoPageRoutingModule</text>
</g>
<!-- PercepcionentrenamientoPageRoutingModule&#45;&gt;PercepcionentrenamientoPageModule -->
<g id="edge2" class="edge">
<title>PercepcionentrenamientoPageRoutingModule&#45;&gt;PercepcionentrenamientoPageModule</title>
<path fill="none" stroke="black" d="M232.28,-122.11C232.28,-122.11 232.28,-140.99 232.28,-140.99"/>
<polygon fill="black" stroke="black" points="228.78,-140.99 232.28,-150.99 235.78,-140.99 228.78,-140.99"/>
</g>
</g>
</svg>
