<?xml version="1.0" encoding="UTF-8" standalone="no"?>
<!DOCTYPE svg PUBLIC "-//W3C//DTD SVG 1.1//EN"
 "http://www.w3.org/Graphics/SVG/1.1/DTD/svg11.dtd">
<!-- Generated by graphviz version 2.46.1 (20210213.1702)
 -->
<!-- Title: dependencies Pages: 1 -->
<svg width="504pt" height="211pt"
 viewBox="0.00 0.00 504.00 211.00" xmlns="http://www.w3.org/2000/svg" xmlns:xlink="http://www.w3.org/1999/xlink">
<g id="graph0" class="graph" transform="scale(1 1) rotate(0) translate(4 207)">
<title>dependencies</title>
<polygon fill="white" stroke="transparent" points="-4,4 -4,-207 500,-207 500,4 -4,4"/>
<text text-anchor="start" x="227.01" y="-42.4" font-family="sans-serif" font-weight="bold" font-size="14.00">Legend</text>
<polygon fill="#ffffb3" stroke="transparent" points="14,-10 14,-30 34,-30 34,-10 14,-10"/>
<text text-anchor="start" x="37.63" y="-15.4" font-family="sans-serif" font-size="14.00"> &#160;Declarations</text>
<polygon fill="#8dd3c7" stroke="transparent" points="127,-10 127,-30 147,-30 147,-10 127,-10"/>
<text text-anchor="start" x="150.73" y="-15.4" font-family="sans-serif" font-size="14.00"> &#160;Module</text>
<polygon fill="#80b1d3" stroke="transparent" points="213,-10 213,-30 233,-30 233,-10 213,-10"/>
<text text-anchor="start" x="236.78" y="-15.4" font-family="sans-serif" font-size="14.00"> &#160;Bootstrap</text>
<polygon fill="#fdb462" stroke="transparent" points="310,-10 310,-30 330,-30 330,-10 310,-10"/>
<text text-anchor="start" x="333.67" y="-15.4" font-family="sans-serif" font-size="14.00"> &#160;Providers</text>
<polygon fill="#fb8072" stroke="transparent" points="406,-10 406,-30 426,-30 426,-10 406,-10"/>
<text text-anchor="start" x="429.73" y="-15.4" font-family="sans-serif" font-size="14.00"> &#160;Exports</text>
<g id="clust1" class="cluster">
<title>cluster_ActividadPageModule</title>
<polygon fill="none" stroke="black" stroke-dasharray="1,5" points="77,-70 77,-195 419,-195 419,-70 77,-70"/>
</g>
<g id="clust2" class="cluster">
<title>cluster_ActividadPageModule_declarations</title>
<polygon fill="none" stroke="black" points="297,-78 297,-130 411,-130 411,-78 297,-78"/>
</g>
<g id="clust4" class="cluster">
<title>cluster_ActividadPageModule_imports</title>
<polygon fill="none" stroke="black" points="85,-78 85,-130 289,-130 289,-78 85,-78"/>
</g>
<!-- ActividadPage -->
<g id="node1" class="node">
<title>ActividadPage</title>
<polygon fill="#ffffb3" stroke="black" points="403.42,-122 304.58,-122 304.58,-86 403.42,-86 403.42,-122"/>
<text text-anchor="middle" x="354" y="-99.8" font-family="Times,serif" font-size="14.00">ActividadPage</text>
</g>
<!-- ActividadPageModule -->
<g id="node2" class="node">
<title>ActividadPageModule</title>
<polygon fill="#8dd3c7" stroke="black" points="333.97,-187 330.97,-191 309.97,-191 306.97,-187 192.03,-187 192.03,-151 333.97,-151 333.97,-187"/>
<text text-anchor="middle" x="263" y="-164.8" font-family="Times,serif" font-size="14.00">ActividadPageModule</text>
</g>
<!-- ActividadPage&#45;&gt;ActividadPageModule -->
<g id="edge1" class="edge">
<title>ActividadPage&#45;&gt;ActividadPageModule</title>
<path fill="none" stroke="black" d="M319.39,-122.11C319.39,-122.11 319.39,-140.99 319.39,-140.99"/>
<polygon fill="black" stroke="black" points="315.89,-140.99 319.39,-150.99 322.89,-140.99 315.89,-140.99"/>
</g>
<!-- ActividadPageRoutingModule -->
<g id="node3" class="node">
<title>ActividadPageRoutingModule</title>
<polygon fill="#8dd3c7" stroke="black" points="280.59,-122 277.59,-126 256.59,-126 253.59,-122 93.41,-122 93.41,-86 280.59,-86 280.59,-122"/>
<text text-anchor="middle" x="187" y="-99.8" font-family="Times,serif" font-size="14.00">ActividadPageRoutingModule</text>
</g>
<!-- ActividadPageRoutingModule&#45;&gt;ActividadPageModule -->
<g id="edge2" class="edge">
<title>ActividadPageRoutingModule&#45;&gt;ActividadPageModule</title>
<path fill="none" stroke="black" d="M236.28,-122.11C236.28,-122.11 236.28,-140.99 236.28,-140.99"/>
<polygon fill="black" stroke="black" points="232.78,-140.99 236.28,-150.99 239.78,-140.99 232.78,-140.99"/>
</g>
</g>
</svg>
