<?xml version="1.0" encoding="UTF-8" standalone="no"?>
<!DOCTYPE svg PUBLIC "-//W3C//DTD SVG 1.1//EN"
 "http://www.w3.org/Graphics/SVG/1.1/DTD/svg11.dtd">
<!-- Generated by graphviz version 2.46.1 (20210213.1702)
 -->
<!-- Title: dependencies Pages: 1 -->
<svg width="586pt" height="211pt"
 viewBox="0.00 0.00 586.00 211.00" xmlns="http://www.w3.org/2000/svg" xmlns:xlink="http://www.w3.org/1999/xlink">
<g id="graph0" class="graph" transform="scale(1 1) rotate(0) translate(4 207)">
<title>dependencies</title>
<polygon fill="white" stroke="transparent" points="-4,4 -4,-207 582,-207 582,4 -4,4"/>
<text text-anchor="start" x="268.01" y="-42.4" font-family="sans-serif" font-weight="bold" font-size="14.00">Legend</text>
<polygon fill="#ffffb3" stroke="transparent" points="55,-10 55,-30 75,-30 75,-10 55,-10"/>
<text text-anchor="start" x="78.63" y="-15.4" font-family="sans-serif" font-size="14.00"> &#160;Declarations</text>
<polygon fill="#8dd3c7" stroke="transparent" points="168,-10 168,-30 188,-30 188,-10 168,-10"/>
<text text-anchor="start" x="191.73" y="-15.4" font-family="sans-serif" font-size="14.00"> &#160;Module</text>
<polygon fill="#80b1d3" stroke="transparent" points="254,-10 254,-30 274,-30 274,-10 254,-10"/>
<text text-anchor="start" x="277.78" y="-15.4" font-family="sans-serif" font-size="14.00"> &#160;Bootstrap</text>
<polygon fill="#fdb462" stroke="transparent" points="351,-10 351,-30 371,-30 371,-10 351,-10"/>
<text text-anchor="start" x="374.67" y="-15.4" font-family="sans-serif" font-size="14.00"> &#160;Providers</text>
<polygon fill="#fb8072" stroke="transparent" points="447,-10 447,-30 467,-30 467,-10 447,-10"/>
<text text-anchor="start" x="470.73" y="-15.4" font-family="sans-serif" font-size="14.00"> &#160;Exports</text>
<g id="clust1" class="cluster">
<title>cluster_BateriacalentamientofinalizarPageModule</title>
<polygon fill="none" stroke="black" stroke-dasharray="1,5" points="8,-70 8,-195 570,-195 570,-70 8,-70"/>
</g>
<g id="clust4" class="cluster">
<title>cluster_BateriacalentamientofinalizarPageModule_imports</title>
<polygon fill="none" stroke="black" points="248,-78 248,-130 562,-130 562,-78 248,-78"/>
</g>
<g id="clust2" class="cluster">
<title>cluster_BateriacalentamientofinalizarPageModule_declarations</title>
<polygon fill="none" stroke="black" points="16,-78 16,-130 240,-130 240,-78 16,-78"/>
</g>
<!-- BateriacalentamientofinalizarPage -->
<g id="node1" class="node">
<title>BateriacalentamientofinalizarPage</title>
<polygon fill="#ffffb3" stroke="black" points="232.3,-122 23.7,-122 23.7,-86 232.3,-86 232.3,-122"/>
<text text-anchor="middle" x="128" y="-99.8" font-family="Times,serif" font-size="14.00">BateriacalentamientofinalizarPage</text>
</g>
<!-- BateriacalentamientofinalizarPageModule -->
<g id="node2" class="node">
<title>BateriacalentamientofinalizarPageModule</title>
<polygon fill="#8dd3c7" stroke="black" points="399.35,-187 396.35,-191 375.35,-191 372.35,-187 146.65,-187 146.65,-151 399.35,-151 399.35,-187"/>
<text text-anchor="middle" x="273" y="-164.8" font-family="Times,serif" font-size="14.00">BateriacalentamientofinalizarPageModule</text>
</g>
<!-- BateriacalentamientofinalizarPage&#45;&gt;BateriacalentamientofinalizarPageModule -->
<g id="edge1" class="edge">
<title>BateriacalentamientofinalizarPage&#45;&gt;BateriacalentamientofinalizarPageModule</title>
<path fill="none" stroke="black" d="M189.61,-122.11C189.61,-122.11 189.61,-140.99 189.61,-140.99"/>
<polygon fill="black" stroke="black" points="186.11,-140.99 189.61,-150.99 193.11,-140.99 186.11,-140.99"/>
</g>
<!-- BateriacalentamientofinalizarPageRoutingModule -->
<g id="node3" class="node">
<title>BateriacalentamientofinalizarPageRoutingModule</title>
<polygon fill="#8dd3c7" stroke="black" points="553.96,-122 550.96,-126 529.96,-126 526.96,-122 256.04,-122 256.04,-86 553.96,-86 553.96,-122"/>
<text text-anchor="middle" x="405" y="-99.8" font-family="Times,serif" font-size="14.00">BateriacalentamientofinalizarPageRoutingModule</text>
</g>
<!-- BateriacalentamientofinalizarPageRoutingModule&#45;&gt;BateriacalentamientofinalizarPageModule -->
<g id="edge2" class="edge">
<title>BateriacalentamientofinalizarPageRoutingModule&#45;&gt;BateriacalentamientofinalizarPageModule</title>
<path fill="none" stroke="black" d="M327.72,-122.11C327.72,-122.11 327.72,-140.99 327.72,-140.99"/>
<polygon fill="black" stroke="black" points="324.22,-140.99 327.72,-150.99 331.22,-140.99 324.22,-140.99"/>
</g>
</g>
</svg>
