<?xml version="1.0" encoding="UTF-8" standalone="no"?>
<!DOCTYPE svg PUBLIC "-//W3C//DTD SVG 1.1//EN"
 "http://www.w3.org/Graphics/SVG/1.1/DTD/svg11.dtd">
<!-- Generated by graphviz version 2.46.1 (20210213.1702)
 -->
<!-- Title: dependencies Pages: 1 -->
<svg width="504pt" height="284pt"
 viewBox="0.00 0.00 504.00 284.00" xmlns="http://www.w3.org/2000/svg" xmlns:xlink="http://www.w3.org/1999/xlink">
<g id="graph0" class="graph" transform="scale(1 1) rotate(0) translate(4 280)">
<title>dependencies</title>
<polygon fill="white" stroke="transparent" points="-4,4 -4,-280 500,-280 500,4 -4,4"/>
<text text-anchor="start" x="227.01" y="-42.4" font-family="sans-serif" font-weight="bold" font-size="14.00">Legend</text>
<polygon fill="#ffffb3" stroke="transparent" points="14,-10 14,-30 34,-30 34,-10 14,-10"/>
<text text-anchor="start" x="37.63" y="-15.4" font-family="sans-serif" font-size="14.00"> &#160;Declarations</text>
<polygon fill="#8dd3c7" stroke="transparent" points="127,-10 127,-30 147,-30 147,-10 127,-10"/>
<text text-anchor="start" x="150.73" y="-15.4" font-family="sans-serif" font-size="14.00"> &#160;Module</text>
<polygon fill="#80b1d3" stroke="transparent" points="213,-10 213,-30 233,-30 233,-10 213,-10"/>
<text text-anchor="start" x="236.78" y="-15.4" font-family="sans-serif" font-size="14.00"> &#160;Bootstrap</text>
<polygon fill="#fdb462" stroke="transparent" points="310,-10 310,-30 330,-30 330,-10 310,-10"/>
<text text-anchor="start" x="333.67" y="-15.4" font-family="sans-serif" font-size="14.00"> &#160;Providers</text>
<polygon fill="#fb8072" stroke="transparent" points="406,-10 406,-30 426,-30 426,-10 406,-10"/>
<text text-anchor="start" x="429.73" y="-15.4" font-family="sans-serif" font-size="14.00"> &#160;Exports</text>
<g id="clust1" class="cluster">
<title>cluster_PipesModule</title>
<polygon fill="none" stroke="black" stroke-dasharray="1,5" points="128,-70 128,-268 368,-268 368,-70 128,-70"/>
</g>
<g id="clust6" class="cluster">
<title>cluster_PipesModule_exports</title>
<polygon fill="none" stroke="black" points="136,-208 136,-260 360,-260 360,-208 136,-208"/>
</g>
<g id="clust2" class="cluster">
<title>cluster_PipesModule_declarations</title>
<polygon fill="none" stroke="black" points="136,-78 136,-130 353,-130 353,-78 136,-78"/>
</g>
<!-- CapitalizadoPipe -->
<g id="node1" class="node">
<title>CapitalizadoPipe</title>
<polygon fill="#ffffb3" stroke="black" points="344.65,-122 233.35,-122 233.35,-86 344.65,-86 344.65,-122"/>
<text text-anchor="middle" x="289" y="-99.8" font-family="Times,serif" font-size="14.00">CapitalizadoPipe</text>
</g>
<!-- PipesModule -->
<g id="node3" class="node">
<title>PipesModule</title>
<polygon fill="#8dd3c7" stroke="black" points="279.88,-187 276.88,-191 255.88,-191 252.88,-187 190.12,-187 190.12,-151 279.88,-151 279.88,-187"/>
<text text-anchor="middle" x="235" y="-164.8" font-family="Times,serif" font-size="14.00">PipesModule</text>
</g>
<!-- CapitalizadoPipe&#45;&gt;PipesModule -->
<g id="edge1" class="edge">
<title>CapitalizadoPipe&#45;&gt;PipesModule</title>
<path fill="none" stroke="black" d="M256.56,-122.11C256.56,-122.11 256.56,-140.99 256.56,-140.99"/>
<polygon fill="black" stroke="black" points="253.06,-140.99 256.56,-150.99 260.06,-140.99 253.06,-140.99"/>
</g>
<!-- FilterPipe -->
<g id="node2" class="node">
<title>FilterPipe</title>
<polygon fill="#ffffb3" stroke="black" points="215.72,-122 144.28,-122 144.28,-86 215.72,-86 215.72,-122"/>
<text text-anchor="middle" x="180" y="-99.8" font-family="Times,serif" font-size="14.00">FilterPipe</text>
</g>
<!-- FilterPipe&#45;&gt;PipesModule -->
<g id="edge2" class="edge">
<title>FilterPipe&#45;&gt;PipesModule</title>
<path fill="none" stroke="black" d="M202.83,-122.11C202.83,-122.11 202.83,-140.99 202.83,-140.99"/>
<polygon fill="black" stroke="black" points="199.33,-140.99 202.83,-150.99 206.33,-140.99 199.33,-140.99"/>
</g>
<!-- CapitalizadoPipe  -->
<g id="node4" class="node">
<title>CapitalizadoPipe </title>
<polygon fill="#fb8072" stroke="black" points="351.65,-252 236.35,-252 236.35,-216 351.65,-216 351.65,-252"/>
<text text-anchor="middle" x="294" y="-229.8" font-family="Times,serif" font-size="14.00">CapitalizadoPipe </text>
</g>
<!-- PipesModule&#45;&gt;CapitalizadoPipe  -->
<g id="edge3" class="edge">
<title>PipesModule&#45;&gt;CapitalizadoPipe </title>
<path fill="none" stroke="black" stroke-dasharray="5,2" d="M258.18,-187.11C258.18,-187.11 258.18,-205.99 258.18,-205.99"/>
<polygon fill="black" stroke="black" points="254.68,-205.99 258.18,-215.99 261.68,-205.99 254.68,-205.99"/>
</g>
<!-- FilterPipe  -->
<g id="node5" class="node">
<title>FilterPipe </title>
<polygon fill="#fb8072" stroke="black" points="218.22,-252 143.78,-252 143.78,-216 218.22,-216 218.22,-252"/>
<text text-anchor="middle" x="181" y="-229.8" font-family="Times,serif" font-size="14.00">FilterPipe </text>
</g>
<!-- PipesModule&#45;&gt;FilterPipe  -->
<g id="edge4" class="edge">
<title>PipesModule&#45;&gt;FilterPipe </title>
<path fill="none" stroke="black" stroke-dasharray="5,2" d="M204.21,-187.11C204.21,-187.11 204.21,-205.99 204.21,-205.99"/>
<polygon fill="black" stroke="black" points="200.71,-205.99 204.21,-215.99 207.71,-205.99 200.71,-205.99"/>
</g>
</g>
</svg>
