<?xml version="1.0" encoding="UTF-8" standalone="no"?>
<!DOCTYPE svg PUBLIC "-//W3C//DTD SVG 1.1//EN"
 "http://www.w3.org/Graphics/SVG/1.1/DTD/svg11.dtd">
<!-- Generated by graphviz version 2.46.1 (20210213.1702)
 -->
<!-- Title: dependencies Pages: 1 -->
<svg width="504pt" height="211pt"
 viewBox="0.00 0.00 504.00 211.00" xmlns="http://www.w3.org/2000/svg" xmlns:xlink="http://www.w3.org/1999/xlink">
<g id="graph0" class="graph" transform="scale(1 1) rotate(0) translate(4 207)">
<title>dependencies</title>
<polygon fill="white" stroke="transparent" points="-4,4 -4,-207 500,-207 500,4 -4,4"/>
<text text-anchor="start" x="227.01" y="-42.4" font-family="sans-serif" font-weight="bold" font-size="14.00">Legend</text>
<polygon fill="#ffffb3" stroke="transparent" points="14,-10 14,-30 34,-30 34,-10 14,-10"/>
<text text-anchor="start" x="37.63" y="-15.4" font-family="sans-serif" font-size="14.00"> &#160;Declarations</text>
<polygon fill="#8dd3c7" stroke="transparent" points="127,-10 127,-30 147,-30 147,-10 127,-10"/>
<text text-anchor="start" x="150.73" y="-15.4" font-family="sans-serif" font-size="14.00"> &#160;Module</text>
<polygon fill="#80b1d3" stroke="transparent" points="213,-10 213,-30 233,-30 233,-10 213,-10"/>
<text text-anchor="start" x="236.78" y="-15.4" font-family="sans-serif" font-size="14.00"> &#160;Bootstrap</text>
<polygon fill="#fdb462" stroke="transparent" points="310,-10 310,-30 330,-30 330,-10 310,-10"/>
<text text-anchor="start" x="333.67" y="-15.4" font-family="sans-serif" font-size="14.00"> &#160;Providers</text>
<polygon fill="#fb8072" stroke="transparent" points="406,-10 406,-30 426,-30 426,-10 406,-10"/>
<text text-anchor="start" x="429.73" y="-15.4" font-family="sans-serif" font-size="14.00"> &#160;Exports</text>
<g id="clust1" class="cluster">
<title>cluster_ModalFotosPageModule</title>
<polygon fill="none" stroke="black" stroke-dasharray="1,5" points="65,-70 65,-195 431,-195 431,-70 65,-70"/>
</g>
<g id="clust2" class="cluster">
<title>cluster_ModalFotosPageModule_declarations</title>
<polygon fill="none" stroke="black" points="297,-78 297,-130 423,-130 423,-78 297,-78"/>
</g>
<g id="clust4" class="cluster">
<title>cluster_ModalFotosPageModule_imports</title>
<polygon fill="none" stroke="black" points="73,-78 73,-130 289,-130 289,-78 73,-78"/>
</g>
<!-- ModalFotosPage -->
<g id="node1" class="node">
<title>ModalFotosPage</title>
<polygon fill="#ffffb3" stroke="black" points="415.38,-122 304.62,-122 304.62,-86 415.38,-86 415.38,-122"/>
<text text-anchor="middle" x="360" y="-99.8" font-family="Times,serif" font-size="14.00">ModalFotosPage</text>
</g>
<!-- ModalFotosPageModule -->
<g id="node2" class="node">
<title>ModalFotosPageModule</title>
<polygon fill="#8dd3c7" stroke="black" points="340.43,-187 337.43,-191 316.43,-191 313.43,-187 185.57,-187 185.57,-151 340.43,-151 340.43,-187"/>
<text text-anchor="middle" x="263" y="-164.8" font-family="Times,serif" font-size="14.00">ModalFotosPageModule</text>
</g>
<!-- ModalFotosPage&#45;&gt;ModalFotosPageModule -->
<g id="edge1" class="edge">
<title>ModalFotosPage&#45;&gt;ModalFotosPageModule</title>
<path fill="none" stroke="black" d="M322.39,-122.11C322.39,-122.11 322.39,-140.99 322.39,-140.99"/>
<polygon fill="black" stroke="black" points="318.89,-140.99 322.39,-150.99 325.89,-140.99 318.89,-140.99"/>
</g>
<!-- ModalFotosPageRoutingModule -->
<g id="node3" class="node">
<title>ModalFotosPageRoutingModule</title>
<polygon fill="#8dd3c7" stroke="black" points="280.55,-122 277.55,-126 256.55,-126 253.55,-122 81.45,-122 81.45,-86 280.55,-86 280.55,-122"/>
<text text-anchor="middle" x="181" y="-99.8" font-family="Times,serif" font-size="14.00">ModalFotosPageRoutingModule</text>
</g>
<!-- ModalFotosPageRoutingModule&#45;&gt;ModalFotosPageModule -->
<g id="edge2" class="edge">
<title>ModalFotosPageRoutingModule&#45;&gt;ModalFotosPageModule</title>
<path fill="none" stroke="black" d="M233.28,-122.11C233.28,-122.11 233.28,-140.99 233.28,-140.99"/>
<polygon fill="black" stroke="black" points="229.78,-140.99 233.28,-150.99 236.78,-140.99 229.78,-140.99"/>
</g>
</g>
</svg>
