<?xml version="1.0" encoding="UTF-8" standalone="no"?>
<!DOCTYPE svg PUBLIC "-//W3C//DTD SVG 1.1//EN"
 "http://www.w3.org/Graphics/SVG/1.1/DTD/svg11.dtd">
<!-- Generated by graphviz version 2.46.1 (20210213.1702)
 -->
<!-- Title: dependencies Pages: 1 -->
<svg width="579pt" height="211pt"
 viewBox="0.00 0.00 579.00 211.00" xmlns="http://www.w3.org/2000/svg" xmlns:xlink="http://www.w3.org/1999/xlink">
<g id="graph0" class="graph" transform="scale(1 1) rotate(0) translate(4 207)">
<title>dependencies</title>
<polygon fill="white" stroke="transparent" points="-4,4 -4,-207 575,-207 575,4 -4,4"/>
<text text-anchor="start" x="264.51" y="-42.4" font-family="sans-serif" font-weight="bold" font-size="14.00">Legend</text>
<polygon fill="#ffffb3" stroke="transparent" points="51.5,-10 51.5,-30 71.5,-30 71.5,-10 51.5,-10"/>
<text text-anchor="start" x="75.13" y="-15.4" font-family="sans-serif" font-size="14.00"> &#160;Declarations</text>
<polygon fill="#8dd3c7" stroke="transparent" points="164.5,-10 164.5,-30 184.5,-30 184.5,-10 164.5,-10"/>
<text text-anchor="start" x="188.23" y="-15.4" font-family="sans-serif" font-size="14.00"> &#160;Module</text>
<polygon fill="#80b1d3" stroke="transparent" points="250.5,-10 250.5,-30 270.5,-30 270.5,-10 250.5,-10"/>
<text text-anchor="start" x="274.28" y="-15.4" font-family="sans-serif" font-size="14.00"> &#160;Bootstrap</text>
<polygon fill="#fdb462" stroke="transparent" points="347.5,-10 347.5,-30 367.5,-30 367.5,-10 347.5,-10"/>
<text text-anchor="start" x="371.17" y="-15.4" font-family="sans-serif" font-size="14.00"> &#160;Providers</text>
<polygon fill="#fb8072" stroke="transparent" points="443.5,-10 443.5,-30 463.5,-30 463.5,-10 443.5,-10"/>
<text text-anchor="start" x="467.23" y="-15.4" font-family="sans-serif" font-size="14.00"> &#160;Exports</text>
<g id="clust1" class="cluster">
<title>cluster_RegistrarInfoPageModule</title>
<polygon fill="none" stroke="black" stroke-dasharray="1,5" points="8,-70 8,-195 563,-195 563,-70 8,-70"/>
</g>
<g id="clust2" class="cluster">
<title>cluster_RegistrarInfoPageModule_declarations</title>
<polygon fill="none" stroke="black" points="421,-78 421,-130 555,-130 555,-78 421,-78"/>
</g>
<g id="clust4" class="cluster">
<title>cluster_RegistrarInfoPageModule_imports</title>
<polygon fill="none" stroke="black" points="16,-78 16,-130 413,-130 413,-78 16,-78"/>
</g>
<!-- RegistrarInfoPage -->
<g id="node1" class="node">
<title>RegistrarInfoPage</title>
<polygon fill="#ffffb3" stroke="black" points="546.85,-122 429.15,-122 429.15,-86 546.85,-86 546.85,-122"/>
<text text-anchor="middle" x="488" y="-99.8" font-family="Times,serif" font-size="14.00">RegistrarInfoPage</text>
</g>
<!-- RegistrarInfoPageModule -->
<g id="node2" class="node">
<title>RegistrarInfoPageModule</title>
<polygon fill="#8dd3c7" stroke="black" points="407.9,-187 404.9,-191 383.9,-191 380.9,-187 246.1,-187 246.1,-151 407.9,-151 407.9,-187"/>
<text text-anchor="middle" x="327" y="-164.8" font-family="Times,serif" font-size="14.00">RegistrarInfoPageModule</text>
</g>
<!-- RegistrarInfoPage&#45;&gt;RegistrarInfoPageModule -->
<g id="edge1" class="edge">
<title>RegistrarInfoPage&#45;&gt;RegistrarInfoPageModule</title>
<path fill="none" stroke="black" d="M488,-122.11C488,-141.34 488,-169 488,-169 488,-169 417.97,-169 417.97,-169"/>
<polygon fill="black" stroke="black" points="417.97,-165.5 407.97,-169 417.97,-172.5 417.97,-165.5"/>
</g>
<!-- ModalEmailPageModule -->
<g id="node3" class="node">
<title>ModalEmailPageModule</title>
<polygon fill="#8dd3c7" stroke="black" points="405.25,-122 402.25,-126 381.25,-126 378.25,-122 248.75,-122 248.75,-86 405.25,-86 405.25,-122"/>
<text text-anchor="middle" x="327" y="-99.8" font-family="Times,serif" font-size="14.00">ModalEmailPageModule</text>
</g>
<!-- ModalEmailPageModule&#45;&gt;RegistrarInfoPageModule -->
<g id="edge2" class="edge">
<title>ModalEmailPageModule&#45;&gt;RegistrarInfoPageModule</title>
<path fill="none" stroke="black" d="M327,-122.11C327,-122.11 327,-140.99 327,-140.99"/>
<polygon fill="black" stroke="black" points="323.5,-140.99 327,-150.99 330.5,-140.99 323.5,-140.99"/>
</g>
<!-- RegistrarInfoPageRoutingModule -->
<g id="node4" class="node">
<title>RegistrarInfoPageRoutingModule</title>
<polygon fill="#8dd3c7" stroke="black" points="230.01,-122 227.01,-126 206.01,-126 203.01,-122 23.99,-122 23.99,-86 230.01,-86 230.01,-122"/>
<text text-anchor="middle" x="127" y="-99.8" font-family="Times,serif" font-size="14.00">RegistrarInfoPageRoutingModule</text>
</g>
<!-- RegistrarInfoPageRoutingModule&#45;&gt;RegistrarInfoPageModule -->
<g id="edge3" class="edge">
<title>RegistrarInfoPageRoutingModule&#45;&gt;RegistrarInfoPageModule</title>
<path fill="none" stroke="black" d="M127,-122.11C127,-141.34 127,-169 127,-169 127,-169 236.23,-169 236.23,-169"/>
<polygon fill="black" stroke="black" points="236.23,-172.5 246.23,-169 236.23,-165.5 236.23,-172.5"/>
</g>
</g>
</svg>
