<?xml version="1.0" encoding="UTF-8" standalone="no"?>
<!DOCTYPE svg PUBLIC "-//W3C//DTD SVG 1.1//EN"
 "http://www.w3.org/Graphics/SVG/1.1/DTD/svg11.dtd">
<!-- Generated by graphviz version 2.46.1 (20210213.1702)
 -->
<!-- Title: dependencies Pages: 1 -->
<svg width="504pt" height="211pt"
 viewBox="0.00 0.00 504.00 211.00" xmlns="http://www.w3.org/2000/svg" xmlns:xlink="http://www.w3.org/1999/xlink">
<g id="graph0" class="graph" transform="scale(1 1) rotate(0) translate(4 207)">
<title>dependencies</title>
<polygon fill="white" stroke="transparent" points="-4,4 -4,-207 500,-207 500,4 -4,4"/>
<text text-anchor="start" x="227.01" y="-42.4" font-family="sans-serif" font-weight="bold" font-size="14.00">Legend</text>
<polygon fill="#ffffb3" stroke="transparent" points="14,-10 14,-30 34,-30 34,-10 14,-10"/>
<text text-anchor="start" x="37.63" y="-15.4" font-family="sans-serif" font-size="14.00"> &#160;Declarations</text>
<polygon fill="#8dd3c7" stroke="transparent" points="127,-10 127,-30 147,-30 147,-10 127,-10"/>
<text text-anchor="start" x="150.73" y="-15.4" font-family="sans-serif" font-size="14.00"> &#160;Module</text>
<polygon fill="#80b1d3" stroke="transparent" points="213,-10 213,-30 233,-30 233,-10 213,-10"/>
<text text-anchor="start" x="236.78" y="-15.4" font-family="sans-serif" font-size="14.00"> &#160;Bootstrap</text>
<polygon fill="#fdb462" stroke="transparent" points="310,-10 310,-30 330,-30 330,-10 310,-10"/>
<text text-anchor="start" x="333.67" y="-15.4" font-family="sans-serif" font-size="14.00"> &#160;Providers</text>
<polygon fill="#fb8072" stroke="transparent" points="406,-10 406,-30 426,-30 426,-10 406,-10"/>
<text text-anchor="start" x="429.73" y="-15.4" font-family="sans-serif" font-size="14.00"> &#160;Exports</text>
<g id="clust1" class="cluster">
<title>cluster_MensajecapacidadPageModule</title>
<polygon fill="none" stroke="black" stroke-dasharray="1,5" points="29,-70 29,-195 467,-195 467,-70 29,-70"/>
</g>
<g id="clust2" class="cluster">
<title>cluster_MensajecapacidadPageModule_declarations</title>
<polygon fill="none" stroke="black" points="297,-78 297,-130 459,-130 459,-78 297,-78"/>
</g>
<g id="clust4" class="cluster">
<title>cluster_MensajecapacidadPageModule_imports</title>
<polygon fill="none" stroke="black" points="37,-78 37,-130 289,-130 289,-78 37,-78"/>
</g>
<!-- MensajecapacidadPage -->
<g id="node1" class="node">
<title>MensajecapacidadPage</title>
<polygon fill="#ffffb3" stroke="black" points="451.1,-122 304.9,-122 304.9,-86 451.1,-86 451.1,-122"/>
<text text-anchor="middle" x="378" y="-99.8" font-family="Times,serif" font-size="14.00">MensajecapacidadPage</text>
</g>
<!-- MensajecapacidadPageModule -->
<g id="node2" class="node">
<title>MensajecapacidadPageModule</title>
<polygon fill="#8dd3c7" stroke="black" points="358.15,-187 355.15,-191 334.15,-191 331.15,-187 167.85,-187 167.85,-151 358.15,-151 358.15,-187"/>
<text text-anchor="middle" x="263" y="-164.8" font-family="Times,serif" font-size="14.00">MensajecapacidadPageModule</text>
</g>
<!-- MensajecapacidadPage&#45;&gt;MensajecapacidadPageModule -->
<g id="edge1" class="edge">
<title>MensajecapacidadPage&#45;&gt;MensajecapacidadPageModule</title>
<path fill="none" stroke="black" d="M331.39,-122.11C331.39,-122.11 331.39,-140.99 331.39,-140.99"/>
<polygon fill="black" stroke="black" points="327.89,-140.99 331.39,-150.99 334.89,-140.99 327.89,-140.99"/>
</g>
<!-- MensajecapacidadPageRoutingModule -->
<g id="node3" class="node">
<title>MensajecapacidadPageRoutingModule</title>
<polygon fill="#8dd3c7" stroke="black" points="280.77,-122 277.77,-126 256.77,-126 253.77,-122 45.23,-122 45.23,-86 280.77,-86 280.77,-122"/>
<text text-anchor="middle" x="163" y="-99.8" font-family="Times,serif" font-size="14.00">MensajecapacidadPageRoutingModule</text>
</g>
<!-- MensajecapacidadPageRoutingModule&#45;&gt;MensajecapacidadPageModule -->
<g id="edge2" class="edge">
<title>MensajecapacidadPageRoutingModule&#45;&gt;MensajecapacidadPageModule</title>
<path fill="none" stroke="black" d="M224.28,-122.11C224.28,-122.11 224.28,-140.99 224.28,-140.99"/>
<polygon fill="black" stroke="black" points="220.78,-140.99 224.28,-150.99 227.78,-140.99 220.78,-140.99"/>
</g>
</g>
</svg>
