<?xml version="1.0" encoding="UTF-8" standalone="no"?>
<!DOCTYPE svg PUBLIC "-//W3C//DTD SVG 1.1//EN"
 "http://www.w3.org/Graphics/SVG/1.1/DTD/svg11.dtd">
<!-- Generated by graphviz version 2.46.1 (20210213.1702)
 -->
<!-- Title: dependencies Pages: 1 -->
<svg width="504pt" height="211pt"
 viewBox="0.00 0.00 504.00 211.00" xmlns="http://www.w3.org/2000/svg" xmlns:xlink="http://www.w3.org/1999/xlink">
<g id="graph0" class="graph" transform="scale(1 1) rotate(0) translate(4 207)">
<title>dependencies</title>
<polygon fill="white" stroke="transparent" points="-4,4 -4,-207 500,-207 500,4 -4,4"/>
<text text-anchor="start" x="227.01" y="-42.4" font-family="sans-serif" font-weight="bold" font-size="14.00">Legend</text>
<polygon fill="#ffffb3" stroke="transparent" points="14,-10 14,-30 34,-30 34,-10 14,-10"/>
<text text-anchor="start" x="37.63" y="-15.4" font-family="sans-serif" font-size="14.00"> &#160;Declarations</text>
<polygon fill="#8dd3c7" stroke="transparent" points="127,-10 127,-30 147,-30 147,-10 127,-10"/>
<text text-anchor="start" x="150.73" y="-15.4" font-family="sans-serif" font-size="14.00"> &#160;Module</text>
<polygon fill="#80b1d3" stroke="transparent" points="213,-10 213,-30 233,-30 233,-10 213,-10"/>
<text text-anchor="start" x="236.78" y="-15.4" font-family="sans-serif" font-size="14.00"> &#160;Bootstrap</text>
<polygon fill="#fdb462" stroke="transparent" points="310,-10 310,-30 330,-30 330,-10 310,-10"/>
<text text-anchor="start" x="333.67" y="-15.4" font-family="sans-serif" font-size="14.00"> &#160;Providers</text>
<polygon fill="#fb8072" stroke="transparent" points="406,-10 406,-30 426,-30 426,-10 406,-10"/>
<text text-anchor="start" x="429.73" y="-15.4" font-family="sans-serif" font-size="14.00"> &#160;Exports</text>
<g id="clust1" class="cluster">
<title>cluster_AlimentosSeleccionPageModule</title>
<polygon fill="none" stroke="black" stroke-dasharray="1,5" points="20,-70 20,-195 476,-195 476,-70 20,-70"/>
</g>
<g id="clust2" class="cluster">
<title>cluster_AlimentosSeleccionPageModule_declarations</title>
<polygon fill="none" stroke="black" points="296,-78 296,-130 468,-130 468,-78 296,-78"/>
</g>
<g id="clust4" class="cluster">
<title>cluster_AlimentosSeleccionPageModule_imports</title>
<polygon fill="none" stroke="black" points="28,-78 28,-130 288,-130 288,-78 28,-78"/>
</g>
<!-- AlimentosSeleccionPage -->
<g id="node1" class="node">
<title>AlimentosSeleccionPage</title>
<polygon fill="#ffffb3" stroke="black" points="459.96,-122 304.04,-122 304.04,-86 459.96,-86 459.96,-122"/>
<text text-anchor="middle" x="382" y="-99.8" font-family="Times,serif" font-size="14.00">AlimentosSeleccionPage</text>
</g>
<!-- AlimentosSeleccionPageModule -->
<g id="node2" class="node">
<title>AlimentosSeleccionPageModule</title>
<polygon fill="#8dd3c7" stroke="black" points="362.51,-187 359.51,-191 338.51,-191 335.51,-187 163.49,-187 163.49,-151 362.51,-151 362.51,-187"/>
<text text-anchor="middle" x="263" y="-164.8" font-family="Times,serif" font-size="14.00">AlimentosSeleccionPageModule</text>
</g>
<!-- AlimentosSeleccionPage&#45;&gt;AlimentosSeleccionPageModule -->
<g id="edge1" class="edge">
<title>AlimentosSeleccionPage&#45;&gt;AlimentosSeleccionPageModule</title>
<path fill="none" stroke="black" d="M333.39,-122.11C333.39,-122.11 333.39,-140.99 333.39,-140.99"/>
<polygon fill="black" stroke="black" points="329.89,-140.99 333.39,-150.99 336.89,-140.99 329.89,-140.99"/>
</g>
<!-- AlimentosSeleccionPageRoutingModule -->
<g id="node3" class="node">
<title>AlimentosSeleccionPageRoutingModule</title>
<polygon fill="#8dd3c7" stroke="black" points="280.13,-122 277.13,-126 256.13,-126 253.13,-122 35.87,-122 35.87,-86 280.13,-86 280.13,-122"/>
<text text-anchor="middle" x="158" y="-99.8" font-family="Times,serif" font-size="14.00">AlimentosSeleccionPageRoutingModule</text>
</g>
<!-- AlimentosSeleccionPageRoutingModule&#45;&gt;AlimentosSeleccionPageModule -->
<g id="edge2" class="edge">
<title>AlimentosSeleccionPageRoutingModule&#45;&gt;AlimentosSeleccionPageModule</title>
<path fill="none" stroke="black" d="M221.78,-122.11C221.78,-122.11 221.78,-140.99 221.78,-140.99"/>
<polygon fill="black" stroke="black" points="218.28,-140.99 221.78,-150.99 225.28,-140.99 218.28,-140.99"/>
</g>
</g>
</svg>
