<?xml version="1.0" encoding="UTF-8" standalone="no"?>
<!DOCTYPE svg PUBLIC "-//W3C//DTD SVG 1.1//EN"
 "http://www.w3.org/Graphics/SVG/1.1/DTD/svg11.dtd">
<!-- Generated by graphviz version 2.46.1 (20210213.1702)
 -->
<!-- Title: dependencies Pages: 1 -->
<svg width="504pt" height="211pt"
 viewBox="0.00 0.00 504.00 211.00" xmlns="http://www.w3.org/2000/svg" xmlns:xlink="http://www.w3.org/1999/xlink">
<g id="graph0" class="graph" transform="scale(1 1) rotate(0) translate(4 207)">
<title>dependencies</title>
<polygon fill="white" stroke="transparent" points="-4,4 -4,-207 500,-207 500,4 -4,4"/>
<text text-anchor="start" x="227.01" y="-42.4" font-family="sans-serif" font-weight="bold" font-size="14.00">Legend</text>
<polygon fill="#ffffb3" stroke="transparent" points="14,-10 14,-30 34,-30 34,-10 14,-10"/>
<text text-anchor="start" x="37.63" y="-15.4" font-family="sans-serif" font-size="14.00"> &#160;Declarations</text>
<polygon fill="#8dd3c7" stroke="transparent" points="127,-10 127,-30 147,-30 147,-10 127,-10"/>
<text text-anchor="start" x="150.73" y="-15.4" font-family="sans-serif" font-size="14.00"> &#160;Module</text>
<polygon fill="#80b1d3" stroke="transparent" points="213,-10 213,-30 233,-30 233,-10 213,-10"/>
<text text-anchor="start" x="236.78" y="-15.4" font-family="sans-serif" font-size="14.00"> &#160;Bootstrap</text>
<polygon fill="#fdb462" stroke="transparent" points="310,-10 310,-30 330,-30 330,-10 310,-10"/>
<text text-anchor="start" x="333.67" y="-15.4" font-family="sans-serif" font-size="14.00"> &#160;Providers</text>
<polygon fill="#fb8072" stroke="transparent" points="406,-10 406,-30 426,-30 426,-10 406,-10"/>
<text text-anchor="start" x="429.73" y="-15.4" font-family="sans-serif" font-size="14.00"> &#160;Exports</text>
<g id="clust1" class="cluster">
<title>cluster_BateriaAlimentoPageModule</title>
<polygon fill="none" stroke="black" stroke-dasharray="1,5" points="39,-70 39,-195 457,-195 457,-70 39,-70"/>
</g>
<g id="clust2" class="cluster">
<title>cluster_BateriaAlimentoPageModule_declarations</title>
<polygon fill="none" stroke="black" points="297,-78 297,-130 449,-130 449,-78 297,-78"/>
</g>
<g id="clust4" class="cluster">
<title>cluster_BateriaAlimentoPageModule_imports</title>
<polygon fill="none" stroke="black" points="47,-78 47,-130 289,-130 289,-78 47,-78"/>
</g>
<!-- BateriaAlimentoPage -->
<g id="node1" class="node">
<title>BateriaAlimentoPage</title>
<polygon fill="#ffffb3" stroke="black" points="441.02,-122 304.98,-122 304.98,-86 441.02,-86 441.02,-122"/>
<text text-anchor="middle" x="373" y="-99.8" font-family="Times,serif" font-size="14.00">BateriaAlimentoPage</text>
</g>
<!-- BateriaAlimentoPageModule -->
<g id="node2" class="node">
<title>BateriaAlimentoPageModule</title>
<polygon fill="#8dd3c7" stroke="black" points="353.07,-187 350.07,-191 329.07,-191 326.07,-187 172.93,-187 172.93,-151 353.07,-151 353.07,-187"/>
<text text-anchor="middle" x="263" y="-164.8" font-family="Times,serif" font-size="14.00">BateriaAlimentoPageModule</text>
</g>
<!-- BateriaAlimentoPage&#45;&gt;BateriaAlimentoPageModule -->
<g id="edge1" class="edge">
<title>BateriaAlimentoPage&#45;&gt;BateriaAlimentoPageModule</title>
<path fill="none" stroke="black" d="M328.89,-122.11C328.89,-122.11 328.89,-140.99 328.89,-140.99"/>
<polygon fill="black" stroke="black" points="325.39,-140.99 328.89,-150.99 332.39,-140.99 325.39,-140.99"/>
</g>
<!-- BateriaAlimentoPageRoutingModule -->
<g id="node3" class="node">
<title>BateriaAlimentoPageRoutingModule</title>
<polygon fill="#8dd3c7" stroke="black" points="280.69,-122 277.69,-126 256.69,-126 253.69,-122 55.31,-122 55.31,-86 280.69,-86 280.69,-122"/>
<text text-anchor="middle" x="168" y="-99.8" font-family="Times,serif" font-size="14.00">BateriaAlimentoPageRoutingModule</text>
</g>
<!-- BateriaAlimentoPageRoutingModule&#45;&gt;BateriaAlimentoPageModule -->
<g id="edge2" class="edge">
<title>BateriaAlimentoPageRoutingModule&#45;&gt;BateriaAlimentoPageModule</title>
<path fill="none" stroke="black" d="M226.78,-122.11C226.78,-122.11 226.78,-140.99 226.78,-140.99"/>
<polygon fill="black" stroke="black" points="223.28,-140.99 226.78,-150.99 230.28,-140.99 223.28,-140.99"/>
</g>
</g>
</svg>
