<?xml version="1.0" encoding="UTF-8" standalone="no"?>
<!DOCTYPE svg PUBLIC "-//W3C//DTD SVG 1.1//EN"
 "http://www.w3.org/Graphics/SVG/1.1/DTD/svg11.dtd">
<!-- Generated by graphviz version 2.46.1 (20210213.1702)
 -->
<!-- Title: dependencies Pages: 1 -->
<svg width="504pt" height="211pt"
 viewBox="0.00 0.00 504.00 211.00" xmlns="http://www.w3.org/2000/svg" xmlns:xlink="http://www.w3.org/1999/xlink">
<g id="graph0" class="graph" transform="scale(1 1) rotate(0) translate(4 207)">
<title>dependencies</title>
<polygon fill="white" stroke="transparent" points="-4,4 -4,-207 500,-207 500,4 -4,4"/>
<text text-anchor="start" x="227.01" y="-42.4" font-family="sans-serif" font-weight="bold" font-size="14.00">Legend</text>
<polygon fill="#ffffb3" stroke="transparent" points="14,-10 14,-30 34,-30 34,-10 14,-10"/>
<text text-anchor="start" x="37.63" y="-15.4" font-family="sans-serif" font-size="14.00"> &#160;Declarations</text>
<polygon fill="#8dd3c7" stroke="transparent" points="127,-10 127,-30 147,-30 147,-10 127,-10"/>
<text text-anchor="start" x="150.73" y="-15.4" font-family="sans-serif" font-size="14.00"> &#160;Module</text>
<polygon fill="#80b1d3" stroke="transparent" points="213,-10 213,-30 233,-30 233,-10 213,-10"/>
<text text-anchor="start" x="236.78" y="-15.4" font-family="sans-serif" font-size="14.00"> &#160;Bootstrap</text>
<polygon fill="#fdb462" stroke="transparent" points="310,-10 310,-30 330,-30 330,-10 310,-10"/>
<text text-anchor="start" x="333.67" y="-15.4" font-family="sans-serif" font-size="14.00"> &#160;Providers</text>
<polygon fill="#fb8072" stroke="transparent" points="406,-10 406,-30 426,-30 426,-10 406,-10"/>
<text text-anchor="start" x="429.73" y="-15.4" font-family="sans-serif" font-size="14.00"> &#160;Exports</text>
<g id="clust1" class="cluster">
<title>cluster_TestFuerzaMenu2PageModule</title>
<polygon fill="none" stroke="black" stroke-dasharray="1,5" points="30,-70 30,-195 466,-195 466,-70 30,-70"/>
</g>
<g id="clust4" class="cluster">
<title>cluster_TestFuerzaMenu2PageModule_imports</title>
<polygon fill="none" stroke="black" points="208,-78 208,-130 458,-130 458,-78 208,-78"/>
</g>
<g id="clust2" class="cluster">
<title>cluster_TestFuerzaMenu2PageModule_declarations</title>
<polygon fill="none" stroke="black" points="38,-78 38,-130 200,-130 200,-78 38,-78"/>
</g>
<!-- TestFuerzaMenu2Page -->
<g id="node1" class="node">
<title>TestFuerzaMenu2Page</title>
<polygon fill="#ffffb3" stroke="black" points="191.56,-122 46.44,-122 46.44,-86 191.56,-86 191.56,-122"/>
<text text-anchor="middle" x="119" y="-99.8" font-family="Times,serif" font-size="14.00">TestFuerzaMenu2Page</text>
</g>
<!-- TestFuerzaMenu2PageModule -->
<g id="node2" class="node">
<title>TestFuerzaMenu2PageModule</title>
<polygon fill="#8dd3c7" stroke="black" points="326.11,-187 323.11,-191 302.11,-191 299.11,-187 137.89,-187 137.89,-151 326.11,-151 326.11,-187"/>
<text text-anchor="middle" x="232" y="-164.8" font-family="Times,serif" font-size="14.00">TestFuerzaMenu2PageModule</text>
</g>
<!-- TestFuerzaMenu2Page&#45;&gt;TestFuerzaMenu2PageModule -->
<g id="edge1" class="edge">
<title>TestFuerzaMenu2Page&#45;&gt;TestFuerzaMenu2PageModule</title>
<path fill="none" stroke="black" d="M164.61,-122.11C164.61,-122.11 164.61,-140.99 164.61,-140.99"/>
<polygon fill="black" stroke="black" points="161.11,-140.99 164.61,-150.99 168.11,-140.99 161.11,-140.99"/>
</g>
<!-- TestFuerzaMenu2PageRoutingModule -->
<g id="node3" class="node">
<title>TestFuerzaMenu2PageRoutingModule</title>
<polygon fill="#8dd3c7" stroke="black" points="449.73,-122 446.73,-126 425.73,-126 422.73,-122 216.27,-122 216.27,-86 449.73,-86 449.73,-122"/>
<text text-anchor="middle" x="333" y="-99.8" font-family="Times,serif" font-size="14.00">TestFuerzaMenu2PageRoutingModule</text>
</g>
<!-- TestFuerzaMenu2PageRoutingModule&#45;&gt;TestFuerzaMenu2PageModule -->
<g id="edge2" class="edge">
<title>TestFuerzaMenu2PageRoutingModule&#45;&gt;TestFuerzaMenu2PageModule</title>
<path fill="none" stroke="black" d="M271.22,-122.11C271.22,-122.11 271.22,-140.99 271.22,-140.99"/>
<polygon fill="black" stroke="black" points="267.72,-140.99 271.22,-150.99 274.72,-140.99 267.72,-140.99"/>
</g>
</g>
</svg>
