<?xml version="1.0" encoding="UTF-8" standalone="no"?>
<!DOCTYPE svg PUBLIC "-//W3C//DTD SVG 1.1//EN"
 "http://www.w3.org/Graphics/SVG/1.1/DTD/svg11.dtd">
<!-- Generated by graphviz version 2.46.1 (20210213.1702)
 -->
<!-- Title: dependencies Pages: 1 -->
<svg width="542pt" height="211pt"
 viewBox="0.00 0.00 542.00 211.00" xmlns="http://www.w3.org/2000/svg" xmlns:xlink="http://www.w3.org/1999/xlink">
<g id="graph0" class="graph" transform="scale(1 1) rotate(0) translate(4 207)">
<title>dependencies</title>
<polygon fill="white" stroke="transparent" points="-4,4 -4,-207 538,-207 538,4 -4,4"/>
<text text-anchor="start" x="246.01" y="-42.4" font-family="sans-serif" font-weight="bold" font-size="14.00">Legend</text>
<polygon fill="#ffffb3" stroke="transparent" points="33,-10 33,-30 53,-30 53,-10 33,-10"/>
<text text-anchor="start" x="56.63" y="-15.4" font-family="sans-serif" font-size="14.00"> &#160;Declarations</text>
<polygon fill="#8dd3c7" stroke="transparent" points="146,-10 146,-30 166,-30 166,-10 146,-10"/>
<text text-anchor="start" x="169.73" y="-15.4" font-family="sans-serif" font-size="14.00"> &#160;Module</text>
<polygon fill="#80b1d3" stroke="transparent" points="232,-10 232,-30 252,-30 252,-10 232,-10"/>
<text text-anchor="start" x="255.78" y="-15.4" font-family="sans-serif" font-size="14.00"> &#160;Bootstrap</text>
<polygon fill="#fdb462" stroke="transparent" points="329,-10 329,-30 349,-30 349,-10 329,-10"/>
<text text-anchor="start" x="352.67" y="-15.4" font-family="sans-serif" font-size="14.00"> &#160;Providers</text>
<polygon fill="#fb8072" stroke="transparent" points="425,-10 425,-30 445,-30 445,-10 425,-10"/>
<text text-anchor="start" x="448.73" y="-15.4" font-family="sans-serif" font-size="14.00"> &#160;Exports</text>
<g id="clust1" class="cluster">
<title>cluster_MedidasPageModule</title>
<polygon fill="none" stroke="black" stroke-dasharray="1,5" points="8,-70 8,-195 526,-195 526,-70 8,-70"/>
</g>
<g id="clust2" class="cluster">
<title>cluster_MedidasPageModule_declarations</title>
<polygon fill="none" stroke="black" points="410,-78 410,-130 518,-130 518,-78 410,-78"/>
</g>
<g id="clust4" class="cluster">
<title>cluster_MedidasPageModule_imports</title>
<polygon fill="none" stroke="black" points="16,-78 16,-130 402,-130 402,-78 16,-78"/>
</g>
<!-- MedidasPage -->
<g id="node1" class="node">
<title>MedidasPage</title>
<polygon fill="#ffffb3" stroke="black" points="509.92,-122 418.08,-122 418.08,-86 509.92,-86 509.92,-122"/>
<text text-anchor="middle" x="464" y="-99.8" font-family="Times,serif" font-size="14.00">MedidasPage</text>
</g>
<!-- MedidasPageModule -->
<g id="node2" class="node">
<title>MedidasPageModule</title>
<polygon fill="#8dd3c7" stroke="black" points="371.47,-187 368.47,-191 347.47,-191 344.47,-187 236.53,-187 236.53,-151 371.47,-151 371.47,-187"/>
<text text-anchor="middle" x="304" y="-164.8" font-family="Times,serif" font-size="14.00">MedidasPageModule</text>
</g>
<!-- MedidasPage&#45;&gt;MedidasPageModule -->
<g id="edge1" class="edge">
<title>MedidasPage&#45;&gt;MedidasPageModule</title>
<path fill="none" stroke="black" d="M464,-122.11C464,-141.34 464,-169 464,-169 464,-169 381.85,-169 381.85,-169"/>
<polygon fill="black" stroke="black" points="381.85,-165.5 371.85,-169 381.85,-172.5 381.85,-165.5"/>
</g>
<!-- MedidasPageRoutingModule -->
<g id="node3" class="node">
<title>MedidasPageRoutingModule</title>
<polygon fill="#8dd3c7" stroke="black" points="394.09,-122 391.09,-126 370.09,-126 367.09,-122 213.91,-122 213.91,-86 394.09,-86 394.09,-122"/>
<text text-anchor="middle" x="304" y="-99.8" font-family="Times,serif" font-size="14.00">MedidasPageRoutingModule</text>
</g>
<!-- MedidasPageRoutingModule&#45;&gt;MedidasPageModule -->
<g id="edge2" class="edge">
<title>MedidasPageRoutingModule&#45;&gt;MedidasPageModule</title>
<path fill="none" stroke="black" d="M304,-122.11C304,-122.11 304,-140.99 304,-140.99"/>
<polygon fill="black" stroke="black" points="300.5,-140.99 304,-150.99 307.5,-140.99 300.5,-140.99"/>
</g>
<!-- ModalMedidasPageModule -->
<g id="node4" class="node">
<title>ModalMedidasPageModule</title>
<polygon fill="#8dd3c7" stroke="black" points="195.52,-122 192.52,-126 171.52,-126 168.52,-122 24.48,-122 24.48,-86 195.52,-86 195.52,-122"/>
<text text-anchor="middle" x="110" y="-99.8" font-family="Times,serif" font-size="14.00">ModalMedidasPageModule</text>
</g>
<!-- ModalMedidasPageModule&#45;&gt;MedidasPageModule -->
<g id="edge3" class="edge">
<title>ModalMedidasPageModule&#45;&gt;MedidasPageModule</title>
<path fill="none" stroke="black" d="M110,-122.11C110,-141.34 110,-169 110,-169 110,-169 226.42,-169 226.42,-169"/>
<polygon fill="black" stroke="black" points="226.42,-172.5 236.42,-169 226.42,-165.5 226.42,-172.5"/>
</g>
</g>
</svg>
