<?xml version="1.0" encoding="UTF-8" standalone="no"?>
<!DOCTYPE svg PUBLIC "-//W3C//DTD SVG 1.1//EN"
 "http://www.w3.org/Graphics/SVG/1.1/DTD/svg11.dtd">
<!-- Generated by graphviz version 2.46.1 (20210213.1702)
 -->
<!-- Title: dependencies Pages: 1 -->
<svg width="536pt" height="211pt"
 viewBox="0.00 0.00 536.00 211.00" xmlns="http://www.w3.org/2000/svg" xmlns:xlink="http://www.w3.org/1999/xlink">
<g id="graph0" class="graph" transform="scale(1 1) rotate(0) translate(4 207)">
<title>dependencies</title>
<polygon fill="white" stroke="transparent" points="-4,4 -4,-207 532,-207 532,4 -4,4"/>
<text text-anchor="start" x="243.01" y="-42.4" font-family="sans-serif" font-weight="bold" font-size="14.00">Legend</text>
<polygon fill="#ffffb3" stroke="transparent" points="30,-10 30,-30 50,-30 50,-10 30,-10"/>
<text text-anchor="start" x="53.63" y="-15.4" font-family="sans-serif" font-size="14.00"> &#160;Declarations</text>
<polygon fill="#8dd3c7" stroke="transparent" points="143,-10 143,-30 163,-30 163,-10 143,-10"/>
<text text-anchor="start" x="166.73" y="-15.4" font-family="sans-serif" font-size="14.00"> &#160;Module</text>
<polygon fill="#80b1d3" stroke="transparent" points="229,-10 229,-30 249,-30 249,-10 229,-10"/>
<text text-anchor="start" x="252.78" y="-15.4" font-family="sans-serif" font-size="14.00"> &#160;Bootstrap</text>
<polygon fill="#fdb462" stroke="transparent" points="326,-10 326,-30 346,-30 346,-10 326,-10"/>
<text text-anchor="start" x="349.67" y="-15.4" font-family="sans-serif" font-size="14.00"> &#160;Providers</text>
<polygon fill="#fb8072" stroke="transparent" points="422,-10 422,-30 442,-30 442,-10 422,-10"/>
<text text-anchor="start" x="445.73" y="-15.4" font-family="sans-serif" font-size="14.00"> &#160;Exports</text>
<g id="clust1" class="cluster">
<title>cluster_BateriarutinaesperahomePageModule</title>
<polygon fill="none" stroke="black" stroke-dasharray="1,5" points="8,-70 8,-195 520,-195 520,-70 8,-70"/>
</g>
<g id="clust2" class="cluster">
<title>cluster_BateriarutinaesperahomePageModule_declarations</title>
<polygon fill="none" stroke="black" points="312,-78 312,-130 512,-130 512,-78 312,-78"/>
</g>
<g id="clust4" class="cluster">
<title>cluster_BateriarutinaesperahomePageModule_imports</title>
<polygon fill="none" stroke="black" points="16,-78 16,-130 304,-130 304,-78 16,-78"/>
</g>
<!-- BateriarutinaesperahomePage -->
<g id="node1" class="node">
<title>BateriarutinaesperahomePage</title>
<polygon fill="#ffffb3" stroke="black" points="503.64,-122 320.36,-122 320.36,-86 503.64,-86 503.64,-122"/>
<text text-anchor="middle" x="412" y="-99.8" font-family="Times,serif" font-size="14.00">BateriarutinaesperahomePage</text>
</g>
<!-- BateriarutinaesperahomePageModule -->
<g id="node2" class="node">
<title>BateriarutinaesperahomePageModule</title>
<polygon fill="#8dd3c7" stroke="black" points="392.19,-187 389.19,-191 368.19,-191 365.19,-187 165.81,-187 165.81,-151 392.19,-151 392.19,-187"/>
<text text-anchor="middle" x="279" y="-164.8" font-family="Times,serif" font-size="14.00">BateriarutinaesperahomePageModule</text>
</g>
<!-- BateriarutinaesperahomePage&#45;&gt;BateriarutinaesperahomePageModule -->
<g id="edge1" class="edge">
<title>BateriarutinaesperahomePage&#45;&gt;BateriarutinaesperahomePageModule</title>
<path fill="none" stroke="black" d="M356.39,-122.11C356.39,-122.11 356.39,-140.99 356.39,-140.99"/>
<polygon fill="black" stroke="black" points="352.89,-140.99 356.39,-150.99 359.89,-140.99 352.89,-140.99"/>
</g>
<!-- BateriarutinaesperahomePageRoutingModule -->
<g id="node3" class="node">
<title>BateriarutinaesperahomePageRoutingModule</title>
<polygon fill="#8dd3c7" stroke="black" points="295.81,-122 292.81,-126 271.81,-126 268.81,-122 24.19,-122 24.19,-86 295.81,-86 295.81,-122"/>
<text text-anchor="middle" x="160" y="-99.8" font-family="Times,serif" font-size="14.00">BateriarutinaesperahomePageRoutingModule</text>
</g>
<!-- BateriarutinaesperahomePageRoutingModule&#45;&gt;BateriarutinaesperahomePageModule -->
<g id="edge2" class="edge">
<title>BateriarutinaesperahomePageRoutingModule&#45;&gt;BateriarutinaesperahomePageModule</title>
<path fill="none" stroke="black" d="M230.78,-122.11C230.78,-122.11 230.78,-140.99 230.78,-140.99"/>
<polygon fill="black" stroke="black" points="227.28,-140.99 230.78,-150.99 234.28,-140.99 227.28,-140.99"/>
</g>
</g>
</svg>
