<?xml version="1.0" encoding="UTF-8" standalone="no"?>
<!DOCTYPE svg PUBLIC "-//W3C//DTD SVG 1.1//EN"
 "http://www.w3.org/Graphics/SVG/1.1/DTD/svg11.dtd">
<!-- Generated by graphviz version 2.46.1 (20210213.1702)
 -->
<!-- Title: dependencies Pages: 1 -->
<svg width="504pt" height="211pt"
 viewBox="0.00 0.00 504.00 211.00" xmlns="http://www.w3.org/2000/svg" xmlns:xlink="http://www.w3.org/1999/xlink">
<g id="graph0" class="graph" transform="scale(1 1) rotate(0) translate(4 207)">
<title>dependencies</title>
<polygon fill="white" stroke="transparent" points="-4,4 -4,-207 500,-207 500,4 -4,4"/>
<text text-anchor="start" x="227.01" y="-42.4" font-family="sans-serif" font-weight="bold" font-size="14.00">Legend</text>
<polygon fill="#ffffb3" stroke="transparent" points="14,-10 14,-30 34,-30 34,-10 14,-10"/>
<text text-anchor="start" x="37.63" y="-15.4" font-family="sans-serif" font-size="14.00"> &#160;Declarations</text>
<polygon fill="#8dd3c7" stroke="transparent" points="127,-10 127,-30 147,-30 147,-10 127,-10"/>
<text text-anchor="start" x="150.73" y="-15.4" font-family="sans-serif" font-size="14.00"> &#160;Module</text>
<polygon fill="#80b1d3" stroke="transparent" points="213,-10 213,-30 233,-30 233,-10 213,-10"/>
<text text-anchor="start" x="236.78" y="-15.4" font-family="sans-serif" font-size="14.00"> &#160;Bootstrap</text>
<polygon fill="#fdb462" stroke="transparent" points="310,-10 310,-30 330,-30 330,-10 310,-10"/>
<text text-anchor="start" x="333.67" y="-15.4" font-family="sans-serif" font-size="14.00"> &#160;Providers</text>
<polygon fill="#fb8072" stroke="transparent" points="406,-10 406,-30 426,-30 426,-10 406,-10"/>
<text text-anchor="start" x="429.73" y="-15.4" font-family="sans-serif" font-size="14.00"> &#160;Exports</text>
<g id="clust1" class="cluster">
<title>cluster_BateriaEstiramientosPageModule</title>
<polygon fill="none" stroke="black" stroke-dasharray="1,5" points="15,-70 15,-195 481,-195 481,-70 15,-70"/>
</g>
<g id="clust2" class="cluster">
<title>cluster_BateriaEstiramientosPageModule_declarations</title>
<polygon fill="none" stroke="black" points="297,-78 297,-130 473,-130 473,-78 297,-78"/>
</g>
<g id="clust4" class="cluster">
<title>cluster_BateriaEstiramientosPageModule_imports</title>
<polygon fill="none" stroke="black" points="23,-78 23,-130 289,-130 289,-78 23,-78"/>
</g>
<!-- BateriaEstiramientosPage -->
<g id="node1" class="node">
<title>BateriaEstiramientosPage</title>
<polygon fill="#ffffb3" stroke="black" points="465.12,-122 304.88,-122 304.88,-86 465.12,-86 465.12,-122"/>
<text text-anchor="middle" x="385" y="-99.8" font-family="Times,serif" font-size="14.00">BateriaEstiramientosPage</text>
</g>
<!-- BateriaEstiramientosPageModule -->
<g id="node2" class="node">
<title>BateriaEstiramientosPageModule</title>
<polygon fill="#8dd3c7" stroke="black" points="365.17,-187 362.17,-191 341.17,-191 338.17,-187 160.83,-187 160.83,-151 365.17,-151 365.17,-187"/>
<text text-anchor="middle" x="263" y="-164.8" font-family="Times,serif" font-size="14.00">BateriaEstiramientosPageModule</text>
</g>
<!-- BateriaEstiramientosPage&#45;&gt;BateriaEstiramientosPageModule -->
<g id="edge1" class="edge">
<title>BateriaEstiramientosPage&#45;&gt;BateriaEstiramientosPageModule</title>
<path fill="none" stroke="black" d="M334.89,-122.11C334.89,-122.11 334.89,-140.99 334.89,-140.99"/>
<polygon fill="black" stroke="black" points="331.39,-140.99 334.89,-150.99 338.39,-140.99 331.39,-140.99"/>
</g>
<!-- BateriaEstiramientosPageRoutingModule -->
<g id="node3" class="node">
<title>BateriaEstiramientosPageRoutingModule</title>
<polygon fill="#8dd3c7" stroke="black" points="280.79,-122 277.79,-126 256.79,-126 253.79,-122 31.21,-122 31.21,-86 280.79,-86 280.79,-122"/>
<text text-anchor="middle" x="156" y="-99.8" font-family="Times,serif" font-size="14.00">BateriaEstiramientosPageRoutingModule</text>
</g>
<!-- BateriaEstiramientosPageRoutingModule&#45;&gt;BateriaEstiramientosPageModule -->
<g id="edge2" class="edge">
<title>BateriaEstiramientosPageRoutingModule&#45;&gt;BateriaEstiramientosPageModule</title>
<path fill="none" stroke="black" d="M220.78,-122.11C220.78,-122.11 220.78,-140.99 220.78,-140.99"/>
<polygon fill="black" stroke="black" points="217.28,-140.99 220.78,-150.99 224.28,-140.99 217.28,-140.99"/>
</g>
</g>
</svg>
