<?xml version="1.0" encoding="UTF-8" standalone="no"?>
<!DOCTYPE svg PUBLIC "-//W3C//DTD SVG 1.1//EN"
 "http://www.w3.org/Graphics/SVG/1.1/DTD/svg11.dtd">
<!-- Generated by graphviz version 2.46.1 (20210213.1702)
 -->
<!-- Title: dependencies Pages: 1 -->
<svg width="504pt" height="211pt"
 viewBox="0.00 0.00 504.00 211.00" xmlns="http://www.w3.org/2000/svg" xmlns:xlink="http://www.w3.org/1999/xlink">
<g id="graph0" class="graph" transform="scale(1 1) rotate(0) translate(4 207)">
<title>dependencies</title>
<polygon fill="white" stroke="transparent" points="-4,4 -4,-207 500,-207 500,4 -4,4"/>
<text text-anchor="start" x="227.01" y="-42.4" font-family="sans-serif" font-weight="bold" font-size="14.00">Legend</text>
<polygon fill="#ffffb3" stroke="transparent" points="14,-10 14,-30 34,-30 34,-10 14,-10"/>
<text text-anchor="start" x="37.63" y="-15.4" font-family="sans-serif" font-size="14.00"> &#160;Declarations</text>
<polygon fill="#8dd3c7" stroke="transparent" points="127,-10 127,-30 147,-30 147,-10 127,-10"/>
<text text-anchor="start" x="150.73" y="-15.4" font-family="sans-serif" font-size="14.00"> &#160;Module</text>
<polygon fill="#80b1d3" stroke="transparent" points="213,-10 213,-30 233,-30 233,-10 213,-10"/>
<text text-anchor="start" x="236.78" y="-15.4" font-family="sans-serif" font-size="14.00"> &#160;Bootstrap</text>
<polygon fill="#fdb462" stroke="transparent" points="310,-10 310,-30 330,-30 330,-10 310,-10"/>
<text text-anchor="start" x="333.67" y="-15.4" font-family="sans-serif" font-size="14.00"> &#160;Providers</text>
<polygon fill="#fb8072" stroke="transparent" points="406,-10 406,-30 426,-30 426,-10 406,-10"/>
<text text-anchor="start" x="429.73" y="-15.4" font-family="sans-serif" font-size="14.00"> &#160;Exports</text>
<g id="clust1" class="cluster">
<title>cluster_BateriahomePageModule</title>
<polygon fill="none" stroke="black" stroke-dasharray="1,5" points="61,-70 61,-195 435,-195 435,-70 61,-70"/>
</g>
<g id="clust2" class="cluster">
<title>cluster_BateriahomePageModule_declarations</title>
<polygon fill="none" stroke="black" points="297,-78 297,-130 427,-130 427,-78 297,-78"/>
</g>
<g id="clust4" class="cluster">
<title>cluster_BateriahomePageModule_imports</title>
<polygon fill="none" stroke="black" points="69,-78 69,-130 289,-130 289,-78 69,-78"/>
</g>
<!-- BateriahomePage -->
<g id="node1" class="node">
<title>BateriahomePage</title>
<polygon fill="#ffffb3" stroke="black" points="419.24,-122 304.76,-122 304.76,-86 419.24,-86 419.24,-122"/>
<text text-anchor="middle" x="362" y="-99.8" font-family="Times,serif" font-size="14.00">BateriahomePage</text>
</g>
<!-- BateriahomePageModule -->
<g id="node2" class="node">
<title>BateriahomePageModule</title>
<polygon fill="#8dd3c7" stroke="black" points="342.29,-187 339.29,-191 318.29,-191 315.29,-187 183.71,-187 183.71,-151 342.29,-151 342.29,-187"/>
<text text-anchor="middle" x="263" y="-164.8" font-family="Times,serif" font-size="14.00">BateriahomePageModule</text>
</g>
<!-- BateriahomePage&#45;&gt;BateriahomePageModule -->
<g id="edge1" class="edge">
<title>BateriahomePage&#45;&gt;BateriahomePageModule</title>
<path fill="none" stroke="black" d="M323.39,-122.11C323.39,-122.11 323.39,-140.99 323.39,-140.99"/>
<polygon fill="black" stroke="black" points="319.89,-140.99 323.39,-150.99 326.89,-140.99 319.89,-140.99"/>
</g>
<!-- BateriahomePageRoutingModule -->
<g id="node3" class="node">
<title>BateriahomePageRoutingModule</title>
<polygon fill="#8dd3c7" stroke="black" points="280.91,-122 277.91,-126 256.91,-126 253.91,-122 77.09,-122 77.09,-86 280.91,-86 280.91,-122"/>
<text text-anchor="middle" x="179" y="-99.8" font-family="Times,serif" font-size="14.00">BateriahomePageRoutingModule</text>
</g>
<!-- BateriahomePageRoutingModule&#45;&gt;BateriahomePageModule -->
<g id="edge2" class="edge">
<title>BateriahomePageRoutingModule&#45;&gt;BateriahomePageModule</title>
<path fill="none" stroke="black" d="M232.28,-122.11C232.28,-122.11 232.28,-140.99 232.28,-140.99"/>
<polygon fill="black" stroke="black" points="228.78,-140.99 232.28,-150.99 235.78,-140.99 228.78,-140.99"/>
</g>
</g>
</svg>
