<?xml version="1.0" encoding="UTF-8" standalone="no"?>
<!DOCTYPE svg PUBLIC "-//W3C//DTD SVG 1.1//EN"
 "http://www.w3.org/Graphics/SVG/1.1/DTD/svg11.dtd">
<!-- Generated by graphviz version 2.46.1 (20210213.1702)
 -->
<!-- Title: dependencies Pages: 1 -->
<svg width="504pt" height="211pt"
 viewBox="0.00 0.00 504.00 211.00" xmlns="http://www.w3.org/2000/svg" xmlns:xlink="http://www.w3.org/1999/xlink">
<g id="graph0" class="graph" transform="scale(1 1) rotate(0) translate(4 207)">
<title>dependencies</title>
<polygon fill="white" stroke="transparent" points="-4,4 -4,-207 500,-207 500,4 -4,4"/>
<text text-anchor="start" x="227.01" y="-42.4" font-family="sans-serif" font-weight="bold" font-size="14.00">Legend</text>
<polygon fill="#ffffb3" stroke="transparent" points="14,-10 14,-30 34,-30 34,-10 14,-10"/>
<text text-anchor="start" x="37.63" y="-15.4" font-family="sans-serif" font-size="14.00"> &#160;Declarations</text>
<polygon fill="#8dd3c7" stroke="transparent" points="127,-10 127,-30 147,-30 147,-10 127,-10"/>
<text text-anchor="start" x="150.73" y="-15.4" font-family="sans-serif" font-size="14.00"> &#160;Module</text>
<polygon fill="#80b1d3" stroke="transparent" points="213,-10 213,-30 233,-30 233,-10 213,-10"/>
<text text-anchor="start" x="236.78" y="-15.4" font-family="sans-serif" font-size="14.00"> &#160;Bootstrap</text>
<polygon fill="#fdb462" stroke="transparent" points="310,-10 310,-30 330,-30 330,-10 310,-10"/>
<text text-anchor="start" x="333.67" y="-15.4" font-family="sans-serif" font-size="14.00"> &#160;Providers</text>
<polygon fill="#fb8072" stroke="transparent" points="406,-10 406,-30 426,-30 426,-10 406,-10"/>
<text text-anchor="start" x="429.73" y="-15.4" font-family="sans-serif" font-size="14.00"> &#160;Exports</text>
<g id="clust1" class="cluster">
<title>cluster_ModalCorazonInfoPageModule</title>
<polygon fill="none" stroke="black" stroke-dasharray="1,5" points="25,-70 25,-195 471,-195 471,-70 25,-70"/>
</g>
<g id="clust2" class="cluster">
<title>cluster_ModalCorazonInfoPageModule_declarations</title>
<polygon fill="none" stroke="black" points="297,-78 297,-130 463,-130 463,-78 297,-78"/>
</g>
<g id="clust4" class="cluster">
<title>cluster_ModalCorazonInfoPageModule_imports</title>
<polygon fill="none" stroke="black" points="33,-78 33,-130 289,-130 289,-78 33,-78"/>
</g>
<!-- ModalCorazonInfoPage -->
<g id="node1" class="node">
<title>ModalCorazonInfoPage</title>
<polygon fill="#ffffb3" stroke="black" points="455.01,-122 304.99,-122 304.99,-86 455.01,-86 455.01,-122"/>
<text text-anchor="middle" x="380" y="-99.8" font-family="Times,serif" font-size="14.00">ModalCorazonInfoPage</text>
</g>
<!-- ModalCorazonInfoPageModule -->
<g id="node2" class="node">
<title>ModalCorazonInfoPageModule</title>
<polygon fill="#8dd3c7" stroke="black" points="360.06,-187 357.06,-191 336.06,-191 333.06,-187 165.94,-187 165.94,-151 360.06,-151 360.06,-187"/>
<text text-anchor="middle" x="263" y="-164.8" font-family="Times,serif" font-size="14.00">ModalCorazonInfoPageModule</text>
</g>
<!-- ModalCorazonInfoPage&#45;&gt;ModalCorazonInfoPageModule -->
<g id="edge1" class="edge">
<title>ModalCorazonInfoPage&#45;&gt;ModalCorazonInfoPageModule</title>
<path fill="none" stroke="black" d="M332.39,-122.11C332.39,-122.11 332.39,-140.99 332.39,-140.99"/>
<polygon fill="black" stroke="black" points="328.89,-140.99 332.39,-150.99 335.89,-140.99 328.89,-140.99"/>
</g>
<!-- ModalCorazonInfoPageRoutingModule -->
<g id="node3" class="node">
<title>ModalCorazonInfoPageRoutingModule</title>
<polygon fill="#8dd3c7" stroke="black" points="280.68,-122 277.68,-126 256.68,-126 253.68,-122 41.32,-122 41.32,-86 280.68,-86 280.68,-122"/>
<text text-anchor="middle" x="161" y="-99.8" font-family="Times,serif" font-size="14.00">ModalCorazonInfoPageRoutingModule</text>
</g>
<!-- ModalCorazonInfoPageRoutingModule&#45;&gt;ModalCorazonInfoPageModule -->
<g id="edge2" class="edge">
<title>ModalCorazonInfoPageRoutingModule&#45;&gt;ModalCorazonInfoPageModule</title>
<path fill="none" stroke="black" d="M223.28,-122.11C223.28,-122.11 223.28,-140.99 223.28,-140.99"/>
<polygon fill="black" stroke="black" points="219.78,-140.99 223.28,-150.99 226.78,-140.99 219.78,-140.99"/>
</g>
</g>
</svg>
