<?xml version="1.0" encoding="UTF-8" standalone="no"?>
<!DOCTYPE svg PUBLIC "-//W3C//DTD SVG 1.1//EN"
 "http://www.w3.org/Graphics/SVG/1.1/DTD/svg11.dtd">
<!-- Generated by graphviz version 2.46.1 (20210213.1702)
 -->
<!-- Title: dependencies Pages: 1 -->
<svg width="504pt" height="211pt"
 viewBox="0.00 0.00 504.00 211.00" xmlns="http://www.w3.org/2000/svg" xmlns:xlink="http://www.w3.org/1999/xlink">
<g id="graph0" class="graph" transform="scale(1 1) rotate(0) translate(4 207)">
<title>dependencies</title>
<polygon fill="white" stroke="transparent" points="-4,4 -4,-207 500,-207 500,4 -4,4"/>
<text text-anchor="start" x="227.01" y="-42.4" font-family="sans-serif" font-weight="bold" font-size="14.00">Legend</text>
<polygon fill="#ffffb3" stroke="transparent" points="14,-10 14,-30 34,-30 34,-10 14,-10"/>
<text text-anchor="start" x="37.63" y="-15.4" font-family="sans-serif" font-size="14.00"> &#160;Declarations</text>
<polygon fill="#8dd3c7" stroke="transparent" points="127,-10 127,-30 147,-30 147,-10 127,-10"/>
<text text-anchor="start" x="150.73" y="-15.4" font-family="sans-serif" font-size="14.00"> &#160;Module</text>
<polygon fill="#80b1d3" stroke="transparent" points="213,-10 213,-30 233,-30 233,-10 213,-10"/>
<text text-anchor="start" x="236.78" y="-15.4" font-family="sans-serif" font-size="14.00"> &#160;Bootstrap</text>
<polygon fill="#fdb462" stroke="transparent" points="310,-10 310,-30 330,-30 330,-10 310,-10"/>
<text text-anchor="start" x="333.67" y="-15.4" font-family="sans-serif" font-size="14.00"> &#160;Providers</text>
<polygon fill="#fb8072" stroke="transparent" points="406,-10 406,-30 426,-30 426,-10 406,-10"/>
<text text-anchor="start" x="429.73" y="-15.4" font-family="sans-serif" font-size="14.00"> &#160;Exports</text>
<g id="clust1" class="cluster">
<title>cluster_AlimentosEditarPageModule</title>
<polygon fill="none" stroke="black" stroke-dasharray="1,5" points="40,-70 40,-195 456,-195 456,-70 40,-70"/>
</g>
<g id="clust2" class="cluster">
<title>cluster_AlimentosEditarPageModule_declarations</title>
<polygon fill="none" stroke="black" points="296,-78 296,-130 448,-130 448,-78 296,-78"/>
</g>
<g id="clust4" class="cluster">
<title>cluster_AlimentosEditarPageModule_imports</title>
<polygon fill="none" stroke="black" points="48,-78 48,-130 288,-130 288,-78 48,-78"/>
</g>
<!-- AlimentosEditarPage -->
<g id="node1" class="node">
<title>AlimentosEditarPage</title>
<polygon fill="#ffffb3" stroke="black" points="439.75,-122 304.25,-122 304.25,-86 439.75,-86 439.75,-122"/>
<text text-anchor="middle" x="372" y="-99.8" font-family="Times,serif" font-size="14.00">AlimentosEditarPage</text>
</g>
<!-- AlimentosEditarPageModule -->
<g id="node2" class="node">
<title>AlimentosEditarPageModule</title>
<polygon fill="#8dd3c7" stroke="black" points="352.8,-187 349.8,-191 328.8,-191 325.8,-187 173.2,-187 173.2,-151 352.8,-151 352.8,-187"/>
<text text-anchor="middle" x="263" y="-164.8" font-family="Times,serif" font-size="14.00">AlimentosEditarPageModule</text>
</g>
<!-- AlimentosEditarPage&#45;&gt;AlimentosEditarPageModule -->
<g id="edge1" class="edge">
<title>AlimentosEditarPage&#45;&gt;AlimentosEditarPageModule</title>
<path fill="none" stroke="black" d="M328.39,-122.11C328.39,-122.11 328.39,-140.99 328.39,-140.99"/>
<polygon fill="black" stroke="black" points="324.89,-140.99 328.39,-150.99 331.89,-140.99 324.89,-140.99"/>
</g>
<!-- AlimentosEditarPageRoutingModule -->
<g id="node3" class="node">
<title>AlimentosEditarPageRoutingModule</title>
<polygon fill="#8dd3c7" stroke="black" points="280.42,-122 277.42,-126 256.42,-126 253.42,-122 55.58,-122 55.58,-86 280.42,-86 280.42,-122"/>
<text text-anchor="middle" x="168" y="-99.8" font-family="Times,serif" font-size="14.00">AlimentosEditarPageRoutingModule</text>
</g>
<!-- AlimentosEditarPageRoutingModule&#45;&gt;AlimentosEditarPageModule -->
<g id="edge2" class="edge">
<title>AlimentosEditarPageRoutingModule&#45;&gt;AlimentosEditarPageModule</title>
<path fill="none" stroke="black" d="M226.78,-122.11C226.78,-122.11 226.78,-140.99 226.78,-140.99"/>
<polygon fill="black" stroke="black" points="223.28,-140.99 226.78,-150.99 230.28,-140.99 223.28,-140.99"/>
</g>
</g>
</svg>
