<?xml version="1.0" encoding="UTF-8" standalone="no"?>
<!DOCTYPE svg PUBLIC "-//W3C//DTD SVG 1.1//EN"
 "http://www.w3.org/Graphics/SVG/1.1/DTD/svg11.dtd">
<!-- Generated by graphviz version 2.46.1 (20210213.1702)
 -->
<!-- Title: dependencies Pages: 1 -->
<svg width="570pt" height="211pt"
 viewBox="0.00 0.00 570.00 211.00" xmlns="http://www.w3.org/2000/svg" xmlns:xlink="http://www.w3.org/1999/xlink">
<g id="graph0" class="graph" transform="scale(1 1) rotate(0) translate(4 207)">
<title>dependencies</title>
<polygon fill="white" stroke="transparent" points="-4,4 -4,-207 566,-207 566,4 -4,4"/>
<text text-anchor="start" x="260.01" y="-42.4" font-family="sans-serif" font-weight="bold" font-size="14.00">Legend</text>
<polygon fill="#ffffb3" stroke="transparent" points="47,-10 47,-30 67,-30 67,-10 47,-10"/>
<text text-anchor="start" x="70.63" y="-15.4" font-family="sans-serif" font-size="14.00"> &#160;Declarations</text>
<polygon fill="#8dd3c7" stroke="transparent" points="160,-10 160,-30 180,-30 180,-10 160,-10"/>
<text text-anchor="start" x="183.73" y="-15.4" font-family="sans-serif" font-size="14.00"> &#160;Module</text>
<polygon fill="#80b1d3" stroke="transparent" points="246,-10 246,-30 266,-30 266,-10 246,-10"/>
<text text-anchor="start" x="269.78" y="-15.4" font-family="sans-serif" font-size="14.00"> &#160;Bootstrap</text>
<polygon fill="#fdb462" stroke="transparent" points="343,-10 343,-30 363,-30 363,-10 343,-10"/>
<text text-anchor="start" x="366.67" y="-15.4" font-family="sans-serif" font-size="14.00"> &#160;Providers</text>
<polygon fill="#fb8072" stroke="transparent" points="439,-10 439,-30 459,-30 459,-10 439,-10"/>
<text text-anchor="start" x="462.73" y="-15.4" font-family="sans-serif" font-size="14.00"> &#160;Exports</text>
<g id="clust1" class="cluster">
<title>cluster_ProgresoPageModule</title>
<polygon fill="none" stroke="black" stroke-dasharray="1,5" points="8,-70 8,-195 554,-195 554,-70 8,-70"/>
</g>
<g id="clust4" class="cluster">
<title>cluster_ProgresoPageModule_imports</title>
<polygon fill="none" stroke="black" points="132,-78 132,-130 546,-130 546,-78 132,-78"/>
</g>
<g id="clust2" class="cluster">
<title>cluster_ProgresoPageModule_declarations</title>
<polygon fill="none" stroke="black" points="16,-78 16,-130 124,-130 124,-78 16,-78"/>
</g>
<!-- ProgresoPage -->
<g id="node1" class="node">
<title>ProgresoPage</title>
<polygon fill="#ffffb3" stroke="black" points="116.47,-122 23.53,-122 23.53,-86 116.47,-86 116.47,-122"/>
<text text-anchor="middle" x="70" y="-99.8" font-family="Times,serif" font-size="14.00">ProgresoPage</text>
</g>
<!-- ProgresoPageModule -->
<g id="node2" class="node">
<title>ProgresoPageModule</title>
<polygon fill="#8dd3c7" stroke="black" points="299.03,-187 296.03,-191 275.03,-191 272.03,-187 162.97,-187 162.97,-151 299.03,-151 299.03,-187"/>
<text text-anchor="middle" x="231" y="-164.8" font-family="Times,serif" font-size="14.00">ProgresoPageModule</text>
</g>
<!-- ProgresoPage&#45;&gt;ProgresoPageModule -->
<g id="edge1" class="edge">
<title>ProgresoPage&#45;&gt;ProgresoPageModule</title>
<path fill="none" stroke="black" d="M70,-122.11C70,-141.34 70,-169 70,-169 70,-169 152.72,-169 152.72,-169"/>
<polygon fill="black" stroke="black" points="152.72,-172.5 162.72,-169 152.72,-165.5 152.72,-172.5"/>
</g>
<!-- ModalComparacionPageModule -->
<g id="node3" class="node">
<title>ModalComparacionPageModule</title>
<polygon fill="#8dd3c7" stroke="black" points="538.23,-122 535.23,-126 514.23,-126 511.23,-122 339.77,-122 339.77,-86 538.23,-86 538.23,-122"/>
<text text-anchor="middle" x="439" y="-99.8" font-family="Times,serif" font-size="14.00">ModalComparacionPageModule</text>
</g>
<!-- ModalComparacionPageModule&#45;&gt;ProgresoPageModule -->
<g id="edge2" class="edge">
<title>ModalComparacionPageModule&#45;&gt;ProgresoPageModule</title>
<path fill="none" stroke="black" d="M439,-122.11C439,-141.34 439,-169 439,-169 439,-169 309.11,-169 309.11,-169"/>
<polygon fill="black" stroke="black" points="309.11,-165.5 299.11,-169 309.11,-172.5 309.11,-165.5"/>
</g>
<!-- ProgresoPageRoutingModule -->
<g id="node4" class="node">
<title>ProgresoPageRoutingModule</title>
<polygon fill="#8dd3c7" stroke="black" points="321.64,-122 318.64,-126 297.64,-126 294.64,-122 140.36,-122 140.36,-86 321.64,-86 321.64,-122"/>
<text text-anchor="middle" x="231" y="-99.8" font-family="Times,serif" font-size="14.00">ProgresoPageRoutingModule</text>
</g>
<!-- ProgresoPageRoutingModule&#45;&gt;ProgresoPageModule -->
<g id="edge3" class="edge">
<title>ProgresoPageRoutingModule&#45;&gt;ProgresoPageModule</title>
<path fill="none" stroke="black" d="M231,-122.11C231,-122.11 231,-140.99 231,-140.99"/>
<polygon fill="black" stroke="black" points="227.5,-140.99 231,-150.99 234.5,-140.99 227.5,-140.99"/>
</g>
</g>
</svg>
