<?xml version="1.0" encoding="UTF-8" standalone="no"?>
<!DOCTYPE svg PUBLIC "-//W3C//DTD SVG 1.1//EN"
 "http://www.w3.org/Graphics/SVG/1.1/DTD/svg11.dtd">
<!-- Generated by graphviz version 2.46.1 (20210213.1702)
 -->
<!-- Title: dependencies Pages: 1 -->
<svg width="528pt" height="211pt"
 viewBox="0.00 0.00 528.00 211.00" xmlns="http://www.w3.org/2000/svg" xmlns:xlink="http://www.w3.org/1999/xlink">
<g id="graph0" class="graph" transform="scale(1 1) rotate(0) translate(4 207)">
<title>dependencies</title>
<polygon fill="white" stroke="transparent" points="-4,4 -4,-207 524,-207 524,4 -4,4"/>
<text text-anchor="start" x="239.01" y="-42.4" font-family="sans-serif" font-weight="bold" font-size="14.00">Legend</text>
<polygon fill="#ffffb3" stroke="transparent" points="26,-10 26,-30 46,-30 46,-10 26,-10"/>
<text text-anchor="start" x="49.63" y="-15.4" font-family="sans-serif" font-size="14.00"> &#160;Declarations</text>
<polygon fill="#8dd3c7" stroke="transparent" points="139,-10 139,-30 159,-30 159,-10 139,-10"/>
<text text-anchor="start" x="162.73" y="-15.4" font-family="sans-serif" font-size="14.00"> &#160;Module</text>
<polygon fill="#80b1d3" stroke="transparent" points="225,-10 225,-30 245,-30 245,-10 225,-10"/>
<text text-anchor="start" x="248.78" y="-15.4" font-family="sans-serif" font-size="14.00"> &#160;Bootstrap</text>
<polygon fill="#fdb462" stroke="transparent" points="322,-10 322,-30 342,-30 342,-10 322,-10"/>
<text text-anchor="start" x="345.67" y="-15.4" font-family="sans-serif" font-size="14.00"> &#160;Providers</text>
<polygon fill="#fb8072" stroke="transparent" points="418,-10 418,-30 438,-30 438,-10 418,-10"/>
<text text-anchor="start" x="441.73" y="-15.4" font-family="sans-serif" font-size="14.00"> &#160;Exports</text>
<g id="clust1" class="cluster">
<title>cluster_TestFuerzaManualPasosPageModule</title>
<polygon fill="none" stroke="black" stroke-dasharray="1,5" points="8,-70 8,-195 512,-195 512,-70 8,-70"/>
</g>
<g id="clust2" class="cluster">
<title>cluster_TestFuerzaManualPasosPageModule_declarations</title>
<polygon fill="none" stroke="black" points="308,-78 308,-130 504,-130 504,-78 308,-78"/>
</g>
<g id="clust4" class="cluster">
<title>cluster_TestFuerzaManualPasosPageModule_imports</title>
<polygon fill="none" stroke="black" points="16,-78 16,-130 300,-130 300,-78 16,-78"/>
</g>
<!-- TestFuerzaManualPasosPage -->
<g id="node1" class="node">
<title>TestFuerzaManualPasosPage</title>
<polygon fill="#ffffb3" stroke="black" points="496.05,-122 315.95,-122 315.95,-86 496.05,-86 496.05,-122"/>
<text text-anchor="middle" x="406" y="-99.8" font-family="Times,serif" font-size="14.00">TestFuerzaManualPasosPage</text>
</g>
<!-- TestFuerzaManualPasosPageModule -->
<g id="node2" class="node">
<title>TestFuerzaManualPasosPageModule</title>
<polygon fill="#8dd3c7" stroke="black" points="386.6,-187 383.6,-191 362.6,-191 359.6,-187 163.4,-187 163.4,-151 386.6,-151 386.6,-187"/>
<text text-anchor="middle" x="275" y="-164.8" font-family="Times,serif" font-size="14.00">TestFuerzaManualPasosPageModule</text>
</g>
<!-- TestFuerzaManualPasosPage&#45;&gt;TestFuerzaManualPasosPageModule -->
<g id="edge1" class="edge">
<title>TestFuerzaManualPasosPage&#45;&gt;TestFuerzaManualPasosPageModule</title>
<path fill="none" stroke="black" d="M351.39,-122.11C351.39,-122.11 351.39,-140.99 351.39,-140.99"/>
<polygon fill="black" stroke="black" points="347.89,-140.99 351.39,-150.99 354.89,-140.99 347.89,-140.99"/>
</g>
<!-- TestFuerzaManualPasosPageRoutingModule -->
<g id="node3" class="node">
<title>TestFuerzaManualPasosPageRoutingModule</title>
<polygon fill="#8dd3c7" stroke="black" points="292.22,-122 289.22,-126 268.22,-126 265.22,-122 23.78,-122 23.78,-86 292.22,-86 292.22,-122"/>
<text text-anchor="middle" x="158" y="-99.8" font-family="Times,serif" font-size="14.00">TestFuerzaManualPasosPageRoutingModule</text>
</g>
<!-- TestFuerzaManualPasosPageRoutingModule&#45;&gt;TestFuerzaManualPasosPageModule -->
<g id="edge2" class="edge">
<title>TestFuerzaManualPasosPageRoutingModule&#45;&gt;TestFuerzaManualPasosPageModule</title>
<path fill="none" stroke="black" d="M227.78,-122.11C227.78,-122.11 227.78,-140.99 227.78,-140.99"/>
<polygon fill="black" stroke="black" points="224.28,-140.99 227.78,-150.99 231.28,-140.99 224.28,-140.99"/>
</g>
</g>
</svg>
