<svg id="Grupo_410" data-name="Grupo 410" xmlns="http://www.w3.org/2000/svg" width="1085.05" height="610.506" viewBox="0 0 1085.05 610.506">
  <path id="Trazado_1" data-name="Trazado 1" d="M815.422,408.307c-15.987,0-31.872.1-47.859-.1a91.18,91.18,0,0,1-16.7-1.435c-9.941-1.947-15.167-8.609-14.758-18.754a54.555,54.555,0,0,1,2.46-14.04c10.556-33.409,21.111-66.921,31.975-100.228,10.043-30.642,31.257-44.17,63.539-43.145,30.335,1.025,60.67.41,91,.1,22.239-.2,35.151,7.276,25.621,34.127-13.528,38.329-26.85,76.76-40.686,114.986-6.559,18.242-19.267,28.8-39.661,28.49-18.242,0-36.586.1-54.931,0Z" transform="translate(7.457 -8.506)" fill="#1b1b1b" fill-rule="evenodd"/>
  <path id="Trazado_2" data-name="Trazado 2" d="M911.419,192.63H844.191c-4,0-7.994.1-11.99-.2-21.111-1.332-29.105-11.376-22.546-31.667,11.068-34.229,23.161-68.049,35.869-101.765,10.351-27.568,32.59-40.378,60.772-43.863a150.72,150.72,0,0,1,21.521-1.23c38.431.2,76.862.615,115.191,1.025,4.817.1,9.633.1,14.348.615,14.655,1.742,20.7,10.146,17.73,25.006a131.894,131.894,0,0,1-4.919,16.09q-17.525,49.807-35.254,99.511c-2.46,6.764-5.227,13.528-9.224,19.369-8.2,12.2-20.5,17.217-35.049,17.115-26.441-.1-52.881,0-79.219,0Z" transform="translate(9.229 -13.885)" fill="#1b1b1b" fill-rule="evenodd"/>
  <path id="Trazado_3" data-name="Trazado 3" d="M521.424,623.438c-15.987,0-32.077,1.025-47.962-.2-26.133-1.947-32.077-7.994-23.981-33.2,7.379-22.854,15.167-45.5,23.059-68.151Q550.478,297.594,628.724,73.413c3.689-10.556,7.994-20.907,12.2-31.257,7.071-17.32,19.984-26.543,38.841-26.646q55.187-.307,110.374-.41a38,38,0,0,1,4.817.307c15.68,1.947,20.8,8.2,18.242,24.391-1.332,8.609-4.2,17.115-6.969,25.416-23.264,68.049-46.732,136.1-69.893,204.248Q688.062,411.35,640,553.34c-4.612,13.63-9.736,27.055-15.27,40.378-6.661,15.987-18.14,26.031-36.279,27.055" transform="translate(0.258 -13.855)" fill="#1b1b1b" fill-rule="evenodd"/>
  <path id="Trazado_4" data-name="Trazado 4" d="M298.921,622c-13.015-.717-33.819-1.332-54.418-3.484-14.553-1.537-18.139-6.969-16.09-20.906a124.377,124.377,0,0,1,6.046-23.161Q310.4,356.006,386.851,137.666a149.476,149.476,0,0,1,11.683-26.133c10.043-17.012,25.108-26.236,45.4-26.133,33.614.2,67.126.2,100.741.307a57.708,57.708,0,0,1,11.888,1.127c7.686,1.742,13.22,7.379,12.605,15.27a117.451,117.451,0,0,1-5.329,27.978c-17.217,51.549-35.049,102.893-52.574,154.237q-45.656,133.894-91.107,267.788c-4.1,12.093-8.916,23.981-13.938,35.664-8.3,19.472-22.956,30.027-44.478,30.847C343.4,619.336,325.054,620.565,298.921,622Z" transform="translate(-5.16 -12.109)" fill="#1b1b1b" fill-rule="evenodd"/>
  <path id="Trazado_5" data-name="Trazado 5" d="M93.2,620.864c-22.444-1.435-43.965-2.152-65.487-4.3-14.758-1.435-19.267-8.4-16.295-22.956a217.174,217.174,0,0,1,7.686-27.67Q82.749,384.846,146.7,203.963a149.58,149.58,0,0,1,7.276-17.73c10.453-20.292,26.85-31.257,50.217-30.232,14.348.615,28.8,1.332,43.145,1.537,13.63.2,27.26-.1,40.788-.1,5.637,0,11.273-.2,16.807.615,17.525,2.767,23.469,10.761,20.292,28.388-1.64,9.428-4.817,18.549-7.891,27.568Q264.3,370.806,210.955,527.4c-5.432,15.885-10.453,31.872-16.09,47.757a172.969,172.969,0,0,1-9.531,21.931c-5.944,11.273-15.27,18.549-28.388,19.472C135.528,618.2,114.006,619.429,93.2,620.864Z" transform="translate(-10.556 -10.358)" fill="#1b1b1b" fill-rule="evenodd"/>
</svg>
