<?xml version="1.0" encoding="UTF-8" standalone="no"?>
<!DOCTYPE svg PUBLIC "-//W3C//DTD SVG 1.1//EN"
 "http://www.w3.org/Graphics/SVG/1.1/DTD/svg11.dtd">
<!-- Generated by graphviz version 2.46.1 (20210213.1702)
 -->
<!-- Title: dependencies Pages: 1 -->
<svg width="504pt" height="211pt"
 viewBox="0.00 0.00 504.00 211.00" xmlns="http://www.w3.org/2000/svg" xmlns:xlink="http://www.w3.org/1999/xlink">
<g id="graph0" class="graph" transform="scale(1 1) rotate(0) translate(4 207)">
<title>dependencies</title>
<polygon fill="white" stroke="transparent" points="-4,4 -4,-207 500,-207 500,4 -4,4"/>
<text text-anchor="start" x="227.01" y="-42.4" font-family="sans-serif" font-weight="bold" font-size="14.00">Legend</text>
<polygon fill="#ffffb3" stroke="transparent" points="14,-10 14,-30 34,-30 34,-10 14,-10"/>
<text text-anchor="start" x="37.63" y="-15.4" font-family="sans-serif" font-size="14.00"> &#160;Declarations</text>
<polygon fill="#8dd3c7" stroke="transparent" points="127,-10 127,-30 147,-30 147,-10 127,-10"/>
<text text-anchor="start" x="150.73" y="-15.4" font-family="sans-serif" font-size="14.00"> &#160;Module</text>
<polygon fill="#80b1d3" stroke="transparent" points="213,-10 213,-30 233,-30 233,-10 213,-10"/>
<text text-anchor="start" x="236.78" y="-15.4" font-family="sans-serif" font-size="14.00"> &#160;Bootstrap</text>
<polygon fill="#fdb462" stroke="transparent" points="310,-10 310,-30 330,-30 330,-10 310,-10"/>
<text text-anchor="start" x="333.67" y="-15.4" font-family="sans-serif" font-size="14.00"> &#160;Providers</text>
<polygon fill="#fb8072" stroke="transparent" points="406,-10 406,-30 426,-30 426,-10 406,-10"/>
<text text-anchor="start" x="429.73" y="-15.4" font-family="sans-serif" font-size="14.00"> &#160;Exports</text>
<g id="clust1" class="cluster">
<title>cluster_TestFuerzaMenuPageModule</title>
<polygon fill="none" stroke="black" stroke-dasharray="1,5" points="38,-70 38,-195 458,-195 458,-70 38,-70"/>
</g>
<g id="clust4" class="cluster">
<title>cluster_TestFuerzaMenuPageModule_imports</title>
<polygon fill="none" stroke="black" points="208,-78 208,-130 450,-130 450,-78 208,-78"/>
</g>
<g id="clust2" class="cluster">
<title>cluster_TestFuerzaMenuPageModule_declarations</title>
<polygon fill="none" stroke="black" points="46,-78 46,-130 200,-130 200,-78 46,-78"/>
</g>
<!-- TestFuerzaMenuPage -->
<g id="node1" class="node">
<title>TestFuerzaMenuPage</title>
<polygon fill="#ffffb3" stroke="black" points="192.06,-122 53.94,-122 53.94,-86 192.06,-86 192.06,-122"/>
<text text-anchor="middle" x="123" y="-99.8" font-family="Times,serif" font-size="14.00">TestFuerzaMenuPage</text>
</g>
<!-- TestFuerzaMenuPageModule -->
<g id="node2" class="node">
<title>TestFuerzaMenuPageModule</title>
<polygon fill="#8dd3c7" stroke="black" points="323.61,-187 320.61,-191 299.61,-191 296.61,-187 142.39,-187 142.39,-151 323.61,-151 323.61,-187"/>
<text text-anchor="middle" x="233" y="-164.8" font-family="Times,serif" font-size="14.00">TestFuerzaMenuPageModule</text>
</g>
<!-- TestFuerzaMenuPage&#45;&gt;TestFuerzaMenuPageModule -->
<g id="edge1" class="edge">
<title>TestFuerzaMenuPage&#45;&gt;TestFuerzaMenuPageModule</title>
<path fill="none" stroke="black" d="M167.11,-122.11C167.11,-122.11 167.11,-140.99 167.11,-140.99"/>
<polygon fill="black" stroke="black" points="163.61,-140.99 167.11,-150.99 170.61,-140.99 163.61,-140.99"/>
</g>
<!-- TestFuerzaMenuPageRoutingModule -->
<g id="node3" class="node">
<title>TestFuerzaMenuPageRoutingModule</title>
<polygon fill="#8dd3c7" stroke="black" points="442.23,-122 439.23,-126 418.23,-126 415.23,-122 215.77,-122 215.77,-86 442.23,-86 442.23,-122"/>
<text text-anchor="middle" x="329" y="-99.8" font-family="Times,serif" font-size="14.00">TestFuerzaMenuPageRoutingModule</text>
</g>
<!-- TestFuerzaMenuPageRoutingModule&#45;&gt;TestFuerzaMenuPageModule -->
<g id="edge2" class="edge">
<title>TestFuerzaMenuPageRoutingModule&#45;&gt;TestFuerzaMenuPageModule</title>
<path fill="none" stroke="black" d="M269.72,-122.11C269.72,-122.11 269.72,-140.99 269.72,-140.99"/>
<polygon fill="black" stroke="black" points="266.22,-140.99 269.72,-150.99 273.22,-140.99 266.22,-140.99"/>
</g>
</g>
</svg>
