<?xml version="1.0" encoding="UTF-8" standalone="no"?>
<!DOCTYPE svg PUBLIC "-//W3C//DTD SVG 1.1//EN"
 "http://www.w3.org/Graphics/SVG/1.1/DTD/svg11.dtd">
<!-- Generated by graphviz version 2.46.1 (20210213.1702)
 -->
<!-- Title: dependencies Pages: 1 -->
<svg width="504pt" height="211pt"
 viewBox="0.00 0.00 504.00 211.00" xmlns="http://www.w3.org/2000/svg" xmlns:xlink="http://www.w3.org/1999/xlink">
<g id="graph0" class="graph" transform="scale(1 1) rotate(0) translate(4 207)">
<title>dependencies</title>
<polygon fill="white" stroke="transparent" points="-4,4 -4,-207 500,-207 500,4 -4,4"/>
<text text-anchor="start" x="227.01" y="-42.4" font-family="sans-serif" font-weight="bold" font-size="14.00">Legend</text>
<polygon fill="#ffffb3" stroke="transparent" points="14,-10 14,-30 34,-30 34,-10 14,-10"/>
<text text-anchor="start" x="37.63" y="-15.4" font-family="sans-serif" font-size="14.00"> &#160;Declarations</text>
<polygon fill="#8dd3c7" stroke="transparent" points="127,-10 127,-30 147,-30 147,-10 127,-10"/>
<text text-anchor="start" x="150.73" y="-15.4" font-family="sans-serif" font-size="14.00"> &#160;Module</text>
<polygon fill="#80b1d3" stroke="transparent" points="213,-10 213,-30 233,-30 233,-10 213,-10"/>
<text text-anchor="start" x="236.78" y="-15.4" font-family="sans-serif" font-size="14.00"> &#160;Bootstrap</text>
<polygon fill="#fdb462" stroke="transparent" points="310,-10 310,-30 330,-30 330,-10 310,-10"/>
<text text-anchor="start" x="333.67" y="-15.4" font-family="sans-serif" font-size="14.00"> &#160;Providers</text>
<polygon fill="#fb8072" stroke="transparent" points="406,-10 406,-30 426,-30 426,-10 406,-10"/>
<text text-anchor="start" x="429.73" y="-15.4" font-family="sans-serif" font-size="14.00"> &#160;Exports</text>
<g id="clust1" class="cluster">
<title>cluster_ObjetivoPageModule</title>
<polygon fill="none" stroke="black" stroke-dasharray="1,5" points="84,-70 84,-195 412,-195 412,-70 84,-70"/>
</g>
<g id="clust4" class="cluster">
<title>cluster_ObjetivoPageModule_imports</title>
<polygon fill="none" stroke="black" points="208,-78 208,-130 404,-130 404,-78 208,-78"/>
</g>
<g id="clust2" class="cluster">
<title>cluster_ObjetivoPageModule_declarations</title>
<polygon fill="none" stroke="black" points="92,-78 92,-130 200,-130 200,-78 92,-78"/>
</g>
<!-- ObjetivoPage -->
<g id="node1" class="node">
<title>ObjetivoPage</title>
<polygon fill="#ffffb3" stroke="black" points="192.21,-122 99.79,-122 99.79,-86 192.21,-86 192.21,-122"/>
<text text-anchor="middle" x="146" y="-99.8" font-family="Times,serif" font-size="14.00">ObjetivoPage</text>
</g>
<!-- ObjetivoPageModule -->
<g id="node2" class="node">
<title>ObjetivoPageModule</title>
<polygon fill="#8dd3c7" stroke="black" points="300.75,-187 297.75,-191 276.75,-191 273.75,-187 165.25,-187 165.25,-151 300.75,-151 300.75,-187"/>
<text text-anchor="middle" x="233" y="-164.8" font-family="Times,serif" font-size="14.00">ObjetivoPageModule</text>
</g>
<!-- ObjetivoPage&#45;&gt;ObjetivoPageModule -->
<g id="edge1" class="edge">
<title>ObjetivoPage&#45;&gt;ObjetivoPageModule</title>
<path fill="none" stroke="black" d="M178.61,-122.11C178.61,-122.11 178.61,-140.99 178.61,-140.99"/>
<polygon fill="black" stroke="black" points="175.11,-140.99 178.61,-150.99 182.11,-140.99 175.11,-140.99"/>
</g>
<!-- ObjetivoPageRoutingModule -->
<g id="node3" class="node">
<title>ObjetivoPageRoutingModule</title>
<polygon fill="#8dd3c7" stroke="black" points="396.37,-122 393.37,-126 372.37,-126 369.37,-122 215.63,-122 215.63,-86 396.37,-86 396.37,-122"/>
<text text-anchor="middle" x="306" y="-99.8" font-family="Times,serif" font-size="14.00">ObjetivoPageRoutingModule</text>
</g>
<!-- ObjetivoPageRoutingModule&#45;&gt;ObjetivoPageModule -->
<g id="edge2" class="edge">
<title>ObjetivoPageRoutingModule&#45;&gt;ObjetivoPageModule</title>
<path fill="none" stroke="black" d="M258.22,-122.11C258.22,-122.11 258.22,-140.99 258.22,-140.99"/>
<polygon fill="black" stroke="black" points="254.72,-140.99 258.22,-150.99 261.72,-140.99 254.72,-140.99"/>
</g>
</g>
</svg>
