<?xml version="1.0" encoding="UTF-8" standalone="no"?>
<!DOCTYPE svg PUBLIC "-//W3C//DTD SVG 1.1//EN"
 "http://www.w3.org/Graphics/SVG/1.1/DTD/svg11.dtd">
<!-- Generated by graphviz version 2.46.1 (20210213.1702)
 -->
<!-- Title: dependencies Pages: 1 -->
<svg width="504pt" height="211pt"
 viewBox="0.00 0.00 504.00 211.00" xmlns="http://www.w3.org/2000/svg" xmlns:xlink="http://www.w3.org/1999/xlink">
<g id="graph0" class="graph" transform="scale(1 1) rotate(0) translate(4 207)">
<title>dependencies</title>
<polygon fill="white" stroke="transparent" points="-4,4 -4,-207 500,-207 500,4 -4,4"/>
<text text-anchor="start" x="227.01" y="-42.4" font-family="sans-serif" font-weight="bold" font-size="14.00">Legend</text>
<polygon fill="#ffffb3" stroke="transparent" points="14,-10 14,-30 34,-30 34,-10 14,-10"/>
<text text-anchor="start" x="37.63" y="-15.4" font-family="sans-serif" font-size="14.00"> &#160;Declarations</text>
<polygon fill="#8dd3c7" stroke="transparent" points="127,-10 127,-30 147,-30 147,-10 127,-10"/>
<text text-anchor="start" x="150.73" y="-15.4" font-family="sans-serif" font-size="14.00"> &#160;Module</text>
<polygon fill="#80b1d3" stroke="transparent" points="213,-10 213,-30 233,-30 233,-10 213,-10"/>
<text text-anchor="start" x="236.78" y="-15.4" font-family="sans-serif" font-size="14.00"> &#160;Bootstrap</text>
<polygon fill="#fdb462" stroke="transparent" points="310,-10 310,-30 330,-30 330,-10 310,-10"/>
<text text-anchor="start" x="333.67" y="-15.4" font-family="sans-serif" font-size="14.00"> &#160;Providers</text>
<polygon fill="#fb8072" stroke="transparent" points="406,-10 406,-30 426,-30 426,-10 406,-10"/>
<text text-anchor="start" x="429.73" y="-15.4" font-family="sans-serif" font-size="14.00"> &#160;Exports</text>
<g id="clust1" class="cluster">
<title>cluster_TestFuerzaCategoriaPageModule</title>
<polygon fill="none" stroke="black" stroke-dasharray="1,5" points="16,-70 16,-195 480,-195 480,-70 16,-70"/>
</g>
<g id="clust4" class="cluster">
<title>cluster_TestFuerzaCategoriaPageModule_imports</title>
<polygon fill="none" stroke="black" points="208,-78 208,-130 472,-130 472,-78 208,-78"/>
</g>
<g id="clust2" class="cluster">
<title>cluster_TestFuerzaCategoriaPageModule_declarations</title>
<polygon fill="none" stroke="black" points="24,-78 24,-130 200,-130 200,-78 24,-78"/>
</g>
<!-- TestFuerzaCategoriaPage -->
<g id="node1" class="node">
<title>TestFuerzaCategoriaPage</title>
<polygon fill="#ffffb3" stroke="black" points="191.82,-122 32.18,-122 32.18,-86 191.82,-86 191.82,-122"/>
<text text-anchor="middle" x="112" y="-99.8" font-family="Times,serif" font-size="14.00">TestFuerzaCategoriaPage</text>
</g>
<!-- TestFuerzaCategoriaPageModule -->
<g id="node2" class="node">
<title>TestFuerzaCategoriaPageModule</title>
<polygon fill="#8dd3c7" stroke="black" points="334.87,-187 331.87,-191 310.87,-191 307.87,-187 131.13,-187 131.13,-151 334.87,-151 334.87,-187"/>
<text text-anchor="middle" x="233" y="-164.8" font-family="Times,serif" font-size="14.00">TestFuerzaCategoriaPageModule</text>
</g>
<!-- TestFuerzaCategoriaPage&#45;&gt;TestFuerzaCategoriaPageModule -->
<g id="edge1" class="edge">
<title>TestFuerzaCategoriaPage&#45;&gt;TestFuerzaCategoriaPageModule</title>
<path fill="none" stroke="black" d="M161.61,-122.11C161.61,-122.11 161.61,-140.99 161.61,-140.99"/>
<polygon fill="black" stroke="black" points="158.11,-140.99 161.61,-150.99 165.11,-140.99 158.11,-140.99"/>
</g>
<!-- TestFuerzaCategoriaPageRoutingModule -->
<g id="node3" class="node">
<title>TestFuerzaCategoriaPageRoutingModule</title>
<polygon fill="#8dd3c7" stroke="black" points="464.49,-122 461.49,-126 440.49,-126 437.49,-122 215.51,-122 215.51,-86 464.49,-86 464.49,-122"/>
<text text-anchor="middle" x="340" y="-99.8" font-family="Times,serif" font-size="14.00">TestFuerzaCategoriaPageRoutingModule</text>
</g>
<!-- TestFuerzaCategoriaPageRoutingModule&#45;&gt;TestFuerzaCategoriaPageModule -->
<g id="edge2" class="edge">
<title>TestFuerzaCategoriaPageRoutingModule&#45;&gt;TestFuerzaCategoriaPageModule</title>
<path fill="none" stroke="black" d="M275.22,-122.11C275.22,-122.11 275.22,-140.99 275.22,-140.99"/>
<polygon fill="black" stroke="black" points="271.72,-140.99 275.22,-150.99 278.72,-140.99 271.72,-140.99"/>
</g>
</g>
</svg>
