<?xml version="1.0" encoding="UTF-8" standalone="no"?>
<!DOCTYPE svg PUBLIC "-//W3C//DTD SVG 1.1//EN"
 "http://www.w3.org/Graphics/SVG/1.1/DTD/svg11.dtd">
<!-- Generated by graphviz version 2.46.1 (20210213.1702)
 -->
<!-- Title: dependencies Pages: 1 -->
<svg width="508pt" height="211pt"
 viewBox="0.00 0.00 508.00 211.00" xmlns="http://www.w3.org/2000/svg" xmlns:xlink="http://www.w3.org/1999/xlink">
<g id="graph0" class="graph" transform="scale(1 1) rotate(0) translate(4 207)">
<title>dependencies</title>
<polygon fill="white" stroke="transparent" points="-4,4 -4,-207 504,-207 504,4 -4,4"/>
<text text-anchor="start" x="229.01" y="-42.4" font-family="sans-serif" font-weight="bold" font-size="14.00">Legend</text>
<polygon fill="#ffffb3" stroke="transparent" points="16,-10 16,-30 36,-30 36,-10 16,-10"/>
<text text-anchor="start" x="39.63" y="-15.4" font-family="sans-serif" font-size="14.00"> &#160;Declarations</text>
<polygon fill="#8dd3c7" stroke="transparent" points="129,-10 129,-30 149,-30 149,-10 129,-10"/>
<text text-anchor="start" x="152.73" y="-15.4" font-family="sans-serif" font-size="14.00"> &#160;Module</text>
<polygon fill="#80b1d3" stroke="transparent" points="215,-10 215,-30 235,-30 235,-10 215,-10"/>
<text text-anchor="start" x="238.78" y="-15.4" font-family="sans-serif" font-size="14.00"> &#160;Bootstrap</text>
<polygon fill="#fdb462" stroke="transparent" points="312,-10 312,-30 332,-30 332,-10 312,-10"/>
<text text-anchor="start" x="335.67" y="-15.4" font-family="sans-serif" font-size="14.00"> &#160;Providers</text>
<polygon fill="#fb8072" stroke="transparent" points="408,-10 408,-30 428,-30 428,-10 408,-10"/>
<text text-anchor="start" x="431.73" y="-15.4" font-family="sans-serif" font-size="14.00"> &#160;Exports</text>
<g id="clust1" class="cluster">
<title>cluster_TestCapacidadManualPageModule</title>
<polygon fill="none" stroke="black" stroke-dasharray="1,5" points="8,-70 8,-195 492,-195 492,-70 8,-70"/>
</g>
<g id="clust4" class="cluster">
<title>cluster_TestCapacidadManualPageModule_imports</title>
<polygon fill="none" stroke="black" points="210,-78 210,-130 484,-130 484,-78 210,-78"/>
</g>
<g id="clust2" class="cluster">
<title>cluster_TestCapacidadManualPageModule_declarations</title>
<polygon fill="none" stroke="black" points="16,-78 16,-130 202,-130 202,-78 16,-78"/>
</g>
<!-- TestCapacidadManualPage -->
<g id="node1" class="node">
<title>TestCapacidadManualPage</title>
<polygon fill="#ffffb3" stroke="black" points="193.66,-122 24.34,-122 24.34,-86 193.66,-86 193.66,-122"/>
<text text-anchor="middle" x="109" y="-99.8" font-family="Times,serif" font-size="14.00">TestCapacidadManualPage</text>
</g>
<!-- TestCapacidadManualPageModule -->
<g id="node2" class="node">
<title>TestCapacidadManualPageModule</title>
<polygon fill="#8dd3c7" stroke="black" points="340.21,-187 337.21,-191 316.21,-191 313.21,-187 127.79,-187 127.79,-151 340.21,-151 340.21,-187"/>
<text text-anchor="middle" x="234" y="-164.8" font-family="Times,serif" font-size="14.00">TestCapacidadManualPageModule</text>
</g>
<!-- TestCapacidadManualPage&#45;&gt;TestCapacidadManualPageModule -->
<g id="edge1" class="edge">
<title>TestCapacidadManualPage&#45;&gt;TestCapacidadManualPageModule</title>
<path fill="none" stroke="black" d="M160.61,-122.11C160.61,-122.11 160.61,-140.99 160.61,-140.99"/>
<polygon fill="black" stroke="black" points="157.11,-140.99 160.61,-150.99 164.11,-140.99 157.11,-140.99"/>
</g>
<!-- TestCapacidadManualPageRoutingModule -->
<g id="node3" class="node">
<title>TestCapacidadManualPageRoutingModule</title>
<polygon fill="#8dd3c7" stroke="black" points="475.83,-122 472.83,-126 451.83,-126 448.83,-122 218.17,-122 218.17,-86 475.83,-86 475.83,-122"/>
<text text-anchor="middle" x="347" y="-99.8" font-family="Times,serif" font-size="14.00">TestCapacidadManualPageRoutingModule</text>
</g>
<!-- TestCapacidadManualPageRoutingModule&#45;&gt;TestCapacidadManualPageModule -->
<g id="edge2" class="edge">
<title>TestCapacidadManualPageRoutingModule&#45;&gt;TestCapacidadManualPageModule</title>
<path fill="none" stroke="black" d="M279.22,-122.11C279.22,-122.11 279.22,-140.99 279.22,-140.99"/>
<polygon fill="black" stroke="black" points="275.72,-140.99 279.22,-150.99 282.72,-140.99 275.72,-140.99"/>
</g>
</g>
</svg>
