<?xml version="1.0" encoding="UTF-8" standalone="no"?>
<!DOCTYPE svg PUBLIC "-//W3C//DTD SVG 1.1//EN"
 "http://www.w3.org/Graphics/SVG/1.1/DTD/svg11.dtd">
<!-- Generated by graphviz version 2.46.1 (20210213.1702)
 -->
<!-- Title: dependencies Pages: 1 -->
<svg width="504pt" height="211pt"
 viewBox="0.00 0.00 504.00 211.00" xmlns="http://www.w3.org/2000/svg" xmlns:xlink="http://www.w3.org/1999/xlink">
<g id="graph0" class="graph" transform="scale(1 1) rotate(0) translate(4 207)">
<title>dependencies</title>
<polygon fill="white" stroke="transparent" points="-4,4 -4,-207 500,-207 500,4 -4,4"/>
<text text-anchor="start" x="227.01" y="-42.4" font-family="sans-serif" font-weight="bold" font-size="14.00">Legend</text>
<polygon fill="#ffffb3" stroke="transparent" points="14,-10 14,-30 34,-30 34,-10 14,-10"/>
<text text-anchor="start" x="37.63" y="-15.4" font-family="sans-serif" font-size="14.00"> &#160;Declarations</text>
<polygon fill="#8dd3c7" stroke="transparent" points="127,-10 127,-30 147,-30 147,-10 127,-10"/>
<text text-anchor="start" x="150.73" y="-15.4" font-family="sans-serif" font-size="14.00"> &#160;Module</text>
<polygon fill="#80b1d3" stroke="transparent" points="213,-10 213,-30 233,-30 233,-10 213,-10"/>
<text text-anchor="start" x="236.78" y="-15.4" font-family="sans-serif" font-size="14.00"> &#160;Bootstrap</text>
<polygon fill="#fdb462" stroke="transparent" points="310,-10 310,-30 330,-30 330,-10 310,-10"/>
<text text-anchor="start" x="333.67" y="-15.4" font-family="sans-serif" font-size="14.00"> &#160;Providers</text>
<polygon fill="#fb8072" stroke="transparent" points="406,-10 406,-30 426,-30 426,-10 406,-10"/>
<text text-anchor="start" x="429.73" y="-15.4" font-family="sans-serif" font-size="14.00"> &#160;Exports</text>
<g id="clust1" class="cluster">
<title>cluster_PorcentajegrasaPageModule</title>
<polygon fill="none" stroke="black" stroke-dasharray="1,5" points="44,-70 44,-195 452,-195 452,-70 44,-70"/>
</g>
<g id="clust4" class="cluster">
<title>cluster_PorcentajegrasaPageModule_imports</title>
<polygon fill="none" stroke="black" points="208,-78 208,-130 444,-130 444,-78 208,-78"/>
</g>
<g id="clust2" class="cluster">
<title>cluster_PorcentajegrasaPageModule_declarations</title>
<polygon fill="none" stroke="black" points="52,-78 52,-130 200,-130 200,-78 52,-78"/>
</g>
<!-- PorcentajegrasaPage -->
<g id="node1" class="node">
<title>PorcentajegrasaPage</title>
<polygon fill="#ffffb3" stroke="black" points="191.83,-122 60.17,-122 60.17,-86 191.83,-86 191.83,-122"/>
<text text-anchor="middle" x="126" y="-99.8" font-family="Times,serif" font-size="14.00">PorcentajegrasaPage</text>
</g>
<!-- PorcentajegrasaPageModule -->
<g id="node2" class="node">
<title>PorcentajegrasaPageModule</title>
<polygon fill="#8dd3c7" stroke="black" points="320.88,-187 317.88,-191 296.88,-191 293.88,-187 145.12,-187 145.12,-151 320.88,-151 320.88,-187"/>
<text text-anchor="middle" x="233" y="-164.8" font-family="Times,serif" font-size="14.00">PorcentajegrasaPageModule</text>
</g>
<!-- PorcentajegrasaPage&#45;&gt;PorcentajegrasaPageModule -->
<g id="edge1" class="edge">
<title>PorcentajegrasaPage&#45;&gt;PorcentajegrasaPageModule</title>
<path fill="none" stroke="black" d="M168.61,-122.11C168.61,-122.11 168.61,-140.99 168.61,-140.99"/>
<polygon fill="black" stroke="black" points="165.11,-140.99 168.61,-150.99 172.11,-140.99 165.11,-140.99"/>
</g>
<!-- PorcentajegrasaPageRoutingModule -->
<g id="node3" class="node">
<title>PorcentajegrasaPageRoutingModule</title>
<polygon fill="#8dd3c7" stroke="black" points="436.5,-122 433.5,-126 412.5,-126 409.5,-122 215.5,-122 215.5,-86 436.5,-86 436.5,-122"/>
<text text-anchor="middle" x="326" y="-99.8" font-family="Times,serif" font-size="14.00">PorcentajegrasaPageRoutingModule</text>
</g>
<!-- PorcentajegrasaPageRoutingModule&#45;&gt;PorcentajegrasaPageModule -->
<g id="edge2" class="edge">
<title>PorcentajegrasaPageRoutingModule&#45;&gt;PorcentajegrasaPageModule</title>
<path fill="none" stroke="black" d="M268.22,-122.11C268.22,-122.11 268.22,-140.99 268.22,-140.99"/>
<polygon fill="black" stroke="black" points="264.72,-140.99 268.22,-150.99 271.72,-140.99 264.72,-140.99"/>
</g>
</g>
</svg>
