<?xml version="1.0" encoding="UTF-8" standalone="no"?>
<!DOCTYPE svg PUBLIC "-//W3C//DTD SVG 1.1//EN"
 "http://www.w3.org/Graphics/SVG/1.1/DTD/svg11.dtd">
<!-- Generated by graphviz version 2.46.1 (20210213.1702)
 -->
<!-- Title: dependencies Pages: 1 -->
<svg width="504pt" height="211pt"
 viewBox="0.00 0.00 504.00 211.00" xmlns="http://www.w3.org/2000/svg" xmlns:xlink="http://www.w3.org/1999/xlink">
<g id="graph0" class="graph" transform="scale(1 1) rotate(0) translate(4 207)">
<title>dependencies</title>
<polygon fill="white" stroke="transparent" points="-4,4 -4,-207 500,-207 500,4 -4,4"/>
<text text-anchor="start" x="227.01" y="-42.4" font-family="sans-serif" font-weight="bold" font-size="14.00">Legend</text>
<polygon fill="#ffffb3" stroke="transparent" points="14,-10 14,-30 34,-30 34,-10 14,-10"/>
<text text-anchor="start" x="37.63" y="-15.4" font-family="sans-serif" font-size="14.00"> &#160;Declarations</text>
<polygon fill="#8dd3c7" stroke="transparent" points="127,-10 127,-30 147,-30 147,-10 127,-10"/>
<text text-anchor="start" x="150.73" y="-15.4" font-family="sans-serif" font-size="14.00"> &#160;Module</text>
<polygon fill="#80b1d3" stroke="transparent" points="213,-10 213,-30 233,-30 233,-10 213,-10"/>
<text text-anchor="start" x="236.78" y="-15.4" font-family="sans-serif" font-size="14.00"> &#160;Bootstrap</text>
<polygon fill="#fdb462" stroke="transparent" points="310,-10 310,-30 330,-30 330,-10 310,-10"/>
<text text-anchor="start" x="333.67" y="-15.4" font-family="sans-serif" font-size="14.00"> &#160;Providers</text>
<polygon fill="#fb8072" stroke="transparent" points="406,-10 406,-30 426,-30 426,-10 406,-10"/>
<text text-anchor="start" x="429.73" y="-15.4" font-family="sans-serif" font-size="14.00"> &#160;Exports</text>
<g id="clust1" class="cluster">
<title>cluster_LugarEjerciciosPageModule</title>
<polygon fill="none" stroke="black" stroke-dasharray="1,5" points="43,-70 43,-195 453,-195 453,-70 43,-70"/>
</g>
<g id="clust2" class="cluster">
<title>cluster_LugarEjerciciosPageModule_declarations</title>
<polygon fill="none" stroke="black" points="297,-78 297,-130 445,-130 445,-78 297,-78"/>
</g>
<g id="clust4" class="cluster">
<title>cluster_LugarEjerciciosPageModule_imports</title>
<polygon fill="none" stroke="black" points="51,-78 51,-130 289,-130 289,-78 51,-78"/>
</g>
<!-- LugarEjerciciosPage -->
<g id="node1" class="node">
<title>LugarEjerciciosPage</title>
<polygon fill="#ffffb3" stroke="black" points="437.11,-122 304.89,-122 304.89,-86 437.11,-86 437.11,-122"/>
<text text-anchor="middle" x="371" y="-99.8" font-family="Times,serif" font-size="14.00">LugarEjerciciosPage</text>
</g>
<!-- LugarEjerciciosPageModule -->
<g id="node2" class="node">
<title>LugarEjerciciosPageModule</title>
<polygon fill="#8dd3c7" stroke="black" points="351.16,-187 348.16,-191 327.16,-191 324.16,-187 174.84,-187 174.84,-151 351.16,-151 351.16,-187"/>
<text text-anchor="middle" x="263" y="-164.8" font-family="Times,serif" font-size="14.00">LugarEjerciciosPageModule</text>
</g>
<!-- LugarEjerciciosPage&#45;&gt;LugarEjerciciosPageModule -->
<g id="edge1" class="edge">
<title>LugarEjerciciosPage&#45;&gt;LugarEjerciciosPageModule</title>
<path fill="none" stroke="black" d="M327.89,-122.11C327.89,-122.11 327.89,-140.99 327.89,-140.99"/>
<polygon fill="black" stroke="black" points="324.39,-140.99 327.89,-150.99 331.39,-140.99 324.39,-140.99"/>
</g>
<!-- LugarEjerciciosPageRoutingModule -->
<g id="node3" class="node">
<title>LugarEjerciciosPageRoutingModule</title>
<polygon fill="#8dd3c7" stroke="black" points="280.78,-122 277.78,-126 256.78,-126 253.78,-122 59.22,-122 59.22,-86 280.78,-86 280.78,-122"/>
<text text-anchor="middle" x="170" y="-99.8" font-family="Times,serif" font-size="14.00">LugarEjerciciosPageRoutingModule</text>
</g>
<!-- LugarEjerciciosPageRoutingModule&#45;&gt;LugarEjerciciosPageModule -->
<g id="edge2" class="edge">
<title>LugarEjerciciosPageRoutingModule&#45;&gt;LugarEjerciciosPageModule</title>
<path fill="none" stroke="black" d="M227.78,-122.11C227.78,-122.11 227.78,-140.99 227.78,-140.99"/>
<polygon fill="black" stroke="black" points="224.28,-140.99 227.78,-150.99 231.28,-140.99 224.28,-140.99"/>
</g>
</g>
</svg>
