<?xml version="1.0" encoding="UTF-8" standalone="no"?>
<!DOCTYPE svg PUBLIC "-//W3C//DTD SVG 1.1//EN"
 "http://www.w3.org/Graphics/SVG/1.1/DTD/svg11.dtd">
<!-- Generated by graphviz version 2.46.1 (20210213.1702)
 -->
<!-- Title: dependencies Pages: 1 -->
<svg width="562pt" height="211pt"
 viewBox="0.00 0.00 562.00 211.00" xmlns="http://www.w3.org/2000/svg" xmlns:xlink="http://www.w3.org/1999/xlink">
<g id="graph0" class="graph" transform="scale(1 1) rotate(0) translate(4 207)">
<title>dependencies</title>
<polygon fill="white" stroke="transparent" points="-4,4 -4,-207 558,-207 558,4 -4,4"/>
<text text-anchor="start" x="256.01" y="-42.4" font-family="sans-serif" font-weight="bold" font-size="14.00">Legend</text>
<polygon fill="#ffffb3" stroke="transparent" points="43,-10 43,-30 63,-30 63,-10 43,-10"/>
<text text-anchor="start" x="66.63" y="-15.4" font-family="sans-serif" font-size="14.00"> &#160;Declarations</text>
<polygon fill="#8dd3c7" stroke="transparent" points="156,-10 156,-30 176,-30 176,-10 156,-10"/>
<text text-anchor="start" x="179.73" y="-15.4" font-family="sans-serif" font-size="14.00"> &#160;Module</text>
<polygon fill="#80b1d3" stroke="transparent" points="242,-10 242,-30 262,-30 262,-10 242,-10"/>
<text text-anchor="start" x="265.78" y="-15.4" font-family="sans-serif" font-size="14.00"> &#160;Bootstrap</text>
<polygon fill="#fdb462" stroke="transparent" points="339,-10 339,-30 359,-30 359,-10 339,-10"/>
<text text-anchor="start" x="362.67" y="-15.4" font-family="sans-serif" font-size="14.00"> &#160;Providers</text>
<polygon fill="#fb8072" stroke="transparent" points="435,-10 435,-30 455,-30 455,-10 435,-10"/>
<text text-anchor="start" x="458.73" y="-15.4" font-family="sans-serif" font-size="14.00"> &#160;Exports</text>
<g id="clust1" class="cluster">
<title>cluster_CorazonPageModule</title>
<polygon fill="none" stroke="black" stroke-dasharray="1,5" points="8,-70 8,-195 546,-195 546,-70 8,-70"/>
</g>
<g id="clust2" class="cluster">
<title>cluster_CorazonPageModule_declarations</title>
<polygon fill="none" stroke="black" points="432,-78 432,-130 538,-130 538,-78 432,-78"/>
</g>
<g id="clust4" class="cluster">
<title>cluster_CorazonPageModule_imports</title>
<polygon fill="none" stroke="black" points="16,-78 16,-130 424,-130 424,-78 16,-78"/>
</g>
<!-- CorazonPage -->
<g id="node1" class="node">
<title>CorazonPage</title>
<polygon fill="#ffffb3" stroke="black" points="530.14,-122 439.86,-122 439.86,-86 530.14,-86 530.14,-122"/>
<text text-anchor="middle" x="485" y="-99.8" font-family="Times,serif" font-size="14.00">CorazonPage</text>
</g>
<!-- CorazonPageModule -->
<g id="node2" class="node">
<title>CorazonPageModule</title>
<polygon fill="#8dd3c7" stroke="black" points="393.19,-187 390.19,-191 369.19,-191 366.19,-187 258.81,-187 258.81,-151 393.19,-151 393.19,-187"/>
<text text-anchor="middle" x="326" y="-164.8" font-family="Times,serif" font-size="14.00">CorazonPageModule</text>
</g>
<!-- CorazonPage&#45;&gt;CorazonPageModule -->
<g id="edge1" class="edge">
<title>CorazonPage&#45;&gt;CorazonPageModule</title>
<path fill="none" stroke="black" d="M485,-122.11C485,-141.34 485,-169 485,-169 485,-169 403.43,-169 403.43,-169"/>
<polygon fill="black" stroke="black" points="403.43,-165.5 393.43,-169 403.43,-172.5 403.43,-165.5"/>
</g>
<!-- CorazonPageRoutingModule -->
<g id="node3" class="node">
<title>CorazonPageRoutingModule</title>
<polygon fill="#8dd3c7" stroke="black" points="415.81,-122 412.81,-126 391.81,-126 388.81,-122 236.19,-122 236.19,-86 415.81,-86 415.81,-122"/>
<text text-anchor="middle" x="326" y="-99.8" font-family="Times,serif" font-size="14.00">CorazonPageRoutingModule</text>
</g>
<!-- CorazonPageRoutingModule&#45;&gt;CorazonPageModule -->
<g id="edge2" class="edge">
<title>CorazonPageRoutingModule&#45;&gt;CorazonPageModule</title>
<path fill="none" stroke="black" d="M326,-122.11C326,-122.11 326,-140.99 326,-140.99"/>
<polygon fill="black" stroke="black" points="322.5,-140.99 326,-150.99 329.5,-140.99 322.5,-140.99"/>
</g>
<!-- ModalCorazonInfoPageModule -->
<g id="node4" class="node">
<title>ModalCorazonInfoPageModule</title>
<polygon fill="#8dd3c7" stroke="black" points="218.06,-122 215.06,-126 194.06,-126 191.06,-122 23.94,-122 23.94,-86 218.06,-86 218.06,-122"/>
<text text-anchor="middle" x="121" y="-99.8" font-family="Times,serif" font-size="14.00">ModalCorazonInfoPageModule</text>
</g>
<!-- ModalCorazonInfoPageModule&#45;&gt;CorazonPageModule -->
<g id="edge3" class="edge">
<title>ModalCorazonInfoPageModule&#45;&gt;CorazonPageModule</title>
<path fill="none" stroke="black" d="M121,-122.11C121,-141.34 121,-169 121,-169 121,-169 248.88,-169 248.88,-169"/>
<polygon fill="black" stroke="black" points="248.88,-172.5 258.88,-169 248.88,-165.5 248.88,-172.5"/>
</g>
</g>
</svg>
