<?xml version="1.0" encoding="UTF-8" standalone="no"?>
<!DOCTYPE svg PUBLIC "-//W3C//DTD SVG 1.1//EN"
 "http://www.w3.org/Graphics/SVG/1.1/DTD/svg11.dtd">
<!-- Generated by graphviz version 2.46.1 (20210213.1702)
 -->
<!-- Title: dependencies Pages: 1 -->
<svg width="504pt" height="211pt"
 viewBox="0.00 0.00 504.00 211.00" xmlns="http://www.w3.org/2000/svg" xmlns:xlink="http://www.w3.org/1999/xlink">
<g id="graph0" class="graph" transform="scale(1 1) rotate(0) translate(4 207)">
<title>dependencies</title>
<polygon fill="white" stroke="transparent" points="-4,4 -4,-207 500,-207 500,4 -4,4"/>
<text text-anchor="start" x="227.01" y="-42.4" font-family="sans-serif" font-weight="bold" font-size="14.00">Legend</text>
<polygon fill="#ffffb3" stroke="transparent" points="14,-10 14,-30 34,-30 34,-10 14,-10"/>
<text text-anchor="start" x="37.63" y="-15.4" font-family="sans-serif" font-size="14.00"> &#160;Declarations</text>
<polygon fill="#8dd3c7" stroke="transparent" points="127,-10 127,-30 147,-30 147,-10 127,-10"/>
<text text-anchor="start" x="150.73" y="-15.4" font-family="sans-serif" font-size="14.00"> &#160;Module</text>
<polygon fill="#80b1d3" stroke="transparent" points="213,-10 213,-30 233,-30 233,-10 213,-10"/>
<text text-anchor="start" x="236.78" y="-15.4" font-family="sans-serif" font-size="14.00"> &#160;Bootstrap</text>
<polygon fill="#fdb462" stroke="transparent" points="310,-10 310,-30 330,-30 330,-10 310,-10"/>
<text text-anchor="start" x="333.67" y="-15.4" font-family="sans-serif" font-size="14.00"> &#160;Providers</text>
<polygon fill="#fb8072" stroke="transparent" points="406,-10 406,-30 426,-30 426,-10 406,-10"/>
<text text-anchor="start" x="429.73" y="-15.4" font-family="sans-serif" font-size="14.00"> &#160;Exports</text>
<g id="clust1" class="cluster">
<title>cluster_DescargarPageModule</title>
<polygon fill="none" stroke="black" stroke-dasharray="1,5" points="76,-70 76,-195 420,-195 420,-70 76,-70"/>
</g>
<g id="clust2" class="cluster">
<title>cluster_DescargarPageModule_declarations</title>
<polygon fill="none" stroke="black" points="296,-78 296,-130 412,-130 412,-78 296,-78"/>
</g>
<g id="clust4" class="cluster">
<title>cluster_DescargarPageModule_imports</title>
<polygon fill="none" stroke="black" points="84,-78 84,-130 288,-130 288,-78 84,-78"/>
</g>
<!-- DescargarPage -->
<g id="node1" class="node">
<title>DescargarPage</title>
<polygon fill="#ffffb3" stroke="black" points="403.94,-122 304.06,-122 304.06,-86 403.94,-86 403.94,-122"/>
<text text-anchor="middle" x="354" y="-99.8" font-family="Times,serif" font-size="14.00">DescargarPage</text>
</g>
<!-- DescargarPageModule -->
<g id="node2" class="node">
<title>DescargarPageModule</title>
<polygon fill="#8dd3c7" stroke="black" points="334.99,-187 331.99,-191 310.99,-191 307.99,-187 191.01,-187 191.01,-151 334.99,-151 334.99,-187"/>
<text text-anchor="middle" x="263" y="-164.8" font-family="Times,serif" font-size="14.00">DescargarPageModule</text>
</g>
<!-- DescargarPage&#45;&gt;DescargarPageModule -->
<g id="edge1" class="edge">
<title>DescargarPage&#45;&gt;DescargarPageModule</title>
<path fill="none" stroke="black" d="M319.39,-122.11C319.39,-122.11 319.39,-140.99 319.39,-140.99"/>
<polygon fill="black" stroke="black" points="315.89,-140.99 319.39,-150.99 322.89,-140.99 315.89,-140.99"/>
</g>
<!-- DescargarPageRoutingModule -->
<g id="node3" class="node">
<title>DescargarPageRoutingModule</title>
<polygon fill="#8dd3c7" stroke="black" points="280.11,-122 277.11,-126 256.11,-126 253.11,-122 91.89,-122 91.89,-86 280.11,-86 280.11,-122"/>
<text text-anchor="middle" x="186" y="-99.8" font-family="Times,serif" font-size="14.00">DescargarPageRoutingModule</text>
</g>
<!-- DescargarPageRoutingModule&#45;&gt;DescargarPageModule -->
<g id="edge2" class="edge">
<title>DescargarPageRoutingModule&#45;&gt;DescargarPageModule</title>
<path fill="none" stroke="black" d="M235.78,-122.11C235.78,-122.11 235.78,-140.99 235.78,-140.99"/>
<polygon fill="black" stroke="black" points="232.28,-140.99 235.78,-150.99 239.28,-140.99 232.28,-140.99"/>
</g>
</g>
</svg>
