<?xml version="1.0" encoding="UTF-8" standalone="no"?>
<!DOCTYPE svg PUBLIC "-//W3C//DTD SVG 1.1//EN"
 "http://www.w3.org/Graphics/SVG/1.1/DTD/svg11.dtd">
<!-- Generated by graphviz version 2.46.1 (20210213.1702)
 -->
<!-- Title: dependencies Pages: 1 -->
<svg width="504pt" height="211pt"
 viewBox="0.00 0.00 504.00 211.00" xmlns="http://www.w3.org/2000/svg" xmlns:xlink="http://www.w3.org/1999/xlink">
<g id="graph0" class="graph" transform="scale(1 1) rotate(0) translate(4 207)">
<title>dependencies</title>
<polygon fill="white" stroke="transparent" points="-4,4 -4,-207 500,-207 500,4 -4,4"/>
<text text-anchor="start" x="227.01" y="-42.4" font-family="sans-serif" font-weight="bold" font-size="14.00">Legend</text>
<polygon fill="#ffffb3" stroke="transparent" points="14,-10 14,-30 34,-30 34,-10 14,-10"/>
<text text-anchor="start" x="37.63" y="-15.4" font-family="sans-serif" font-size="14.00"> &#160;Declarations</text>
<polygon fill="#8dd3c7" stroke="transparent" points="127,-10 127,-30 147,-30 147,-10 127,-10"/>
<text text-anchor="start" x="150.73" y="-15.4" font-family="sans-serif" font-size="14.00"> &#160;Module</text>
<polygon fill="#80b1d3" stroke="transparent" points="213,-10 213,-30 233,-30 233,-10 213,-10"/>
<text text-anchor="start" x="236.78" y="-15.4" font-family="sans-serif" font-size="14.00"> &#160;Bootstrap</text>
<polygon fill="#fdb462" stroke="transparent" points="310,-10 310,-30 330,-30 330,-10 310,-10"/>
<text text-anchor="start" x="333.67" y="-15.4" font-family="sans-serif" font-size="14.00"> &#160;Providers</text>
<polygon fill="#fb8072" stroke="transparent" points="406,-10 406,-30 426,-30 426,-10 406,-10"/>
<text text-anchor="start" x="429.73" y="-15.4" font-family="sans-serif" font-size="14.00"> &#160;Exports</text>
<g id="clust1" class="cluster">
<title>cluster_TestFuerzaManualPageModule</title>
<polygon fill="none" stroke="black" stroke-dasharray="1,5" points="28,-70 28,-195 468,-195 468,-70 28,-70"/>
</g>
<g id="clust2" class="cluster">
<title>cluster_TestFuerzaManualPageModule_declarations</title>
<polygon fill="none" stroke="black" points="296,-78 296,-130 460,-130 460,-78 296,-78"/>
</g>
<g id="clust4" class="cluster">
<title>cluster_TestFuerzaManualPageModule_imports</title>
<polygon fill="none" stroke="black" points="36,-78 36,-130 288,-130 288,-78 36,-78"/>
</g>
<!-- TestFuerzaManualPage -->
<g id="node1" class="node">
<title>TestFuerzaManualPage</title>
<polygon fill="#ffffb3" stroke="black" points="452.17,-122 303.83,-122 303.83,-86 452.17,-86 452.17,-122"/>
<text text-anchor="middle" x="378" y="-99.8" font-family="Times,serif" font-size="14.00">TestFuerzaManualPage</text>
</g>
<!-- TestFuerzaManualPageModule -->
<g id="node2" class="node">
<title>TestFuerzaManualPageModule</title>
<polygon fill="#8dd3c7" stroke="black" points="358.72,-187 355.72,-191 334.72,-191 331.72,-187 167.28,-187 167.28,-151 358.72,-151 358.72,-187"/>
<text text-anchor="middle" x="263" y="-164.8" font-family="Times,serif" font-size="14.00">TestFuerzaManualPageModule</text>
</g>
<!-- TestFuerzaManualPage&#45;&gt;TestFuerzaManualPageModule -->
<g id="edge1" class="edge">
<title>TestFuerzaManualPage&#45;&gt;TestFuerzaManualPageModule</title>
<path fill="none" stroke="black" d="M331.39,-122.11C331.39,-122.11 331.39,-140.99 331.39,-140.99"/>
<polygon fill="black" stroke="black" points="327.89,-140.99 331.39,-150.99 334.89,-140.99 327.89,-140.99"/>
</g>
<!-- TestFuerzaManualPageRoutingModule -->
<g id="node3" class="node">
<title>TestFuerzaManualPageRoutingModule</title>
<polygon fill="#8dd3c7" stroke="black" points="280.33,-122 277.33,-126 256.33,-126 253.33,-122 43.67,-122 43.67,-86 280.33,-86 280.33,-122"/>
<text text-anchor="middle" x="162" y="-99.8" font-family="Times,serif" font-size="14.00">TestFuerzaManualPageRoutingModule</text>
</g>
<!-- TestFuerzaManualPageRoutingModule&#45;&gt;TestFuerzaManualPageModule -->
<g id="edge2" class="edge">
<title>TestFuerzaManualPageRoutingModule&#45;&gt;TestFuerzaManualPageModule</title>
<path fill="none" stroke="black" d="M223.78,-122.11C223.78,-122.11 223.78,-140.99 223.78,-140.99"/>
<polygon fill="black" stroke="black" points="220.28,-140.99 223.78,-150.99 227.28,-140.99 220.28,-140.99"/>
</g>
</g>
</svg>
