<?xml version="1.0" encoding="UTF-8" standalone="no"?>
<!DOCTYPE svg PUBLIC "-//W3C//DTD SVG 1.1//EN"
 "http://www.w3.org/Graphics/SVG/1.1/DTD/svg11.dtd">
<!-- Generated by graphviz version 2.46.1 (20210213.1702)
 -->
<!-- Title: dependencies Pages: 1 -->
<svg width="556pt" height="211pt"
 viewBox="0.00 0.00 556.00 211.00" xmlns="http://www.w3.org/2000/svg" xmlns:xlink="http://www.w3.org/1999/xlink">
<g id="graph0" class="graph" transform="scale(1 1) rotate(0) translate(4 207)">
<title>dependencies</title>
<polygon fill="white" stroke="transparent" points="-4,4 -4,-207 552,-207 552,4 -4,4"/>
<text text-anchor="start" x="253.01" y="-42.4" font-family="sans-serif" font-weight="bold" font-size="14.00">Legend</text>
<polygon fill="#ffffb3" stroke="transparent" points="40,-10 40,-30 60,-30 60,-10 40,-10"/>
<text text-anchor="start" x="63.63" y="-15.4" font-family="sans-serif" font-size="14.00"> &#160;Declarations</text>
<polygon fill="#8dd3c7" stroke="transparent" points="153,-10 153,-30 173,-30 173,-10 153,-10"/>
<text text-anchor="start" x="176.73" y="-15.4" font-family="sans-serif" font-size="14.00"> &#160;Module</text>
<polygon fill="#80b1d3" stroke="transparent" points="239,-10 239,-30 259,-30 259,-10 239,-10"/>
<text text-anchor="start" x="262.78" y="-15.4" font-family="sans-serif" font-size="14.00"> &#160;Bootstrap</text>
<polygon fill="#fdb462" stroke="transparent" points="336,-10 336,-30 356,-30 356,-10 336,-10"/>
<text text-anchor="start" x="359.67" y="-15.4" font-family="sans-serif" font-size="14.00"> &#160;Providers</text>
<polygon fill="#fb8072" stroke="transparent" points="432,-10 432,-30 452,-30 452,-10 432,-10"/>
<text text-anchor="start" x="455.73" y="-15.4" font-family="sans-serif" font-size="14.00"> &#160;Exports</text>
<g id="clust1" class="cluster">
<title>cluster_BateriacalentamientohomePageModule</title>
<polygon fill="none" stroke="black" stroke-dasharray="1,5" points="8,-70 8,-195 540,-195 540,-70 8,-70"/>
</g>
<g id="clust4" class="cluster">
<title>cluster_BateriacalentamientohomePageModule_imports</title>
<polygon fill="none" stroke="black" points="234,-78 234,-130 532,-130 532,-78 234,-78"/>
</g>
<g id="clust2" class="cluster">
<title>cluster_BateriacalentamientohomePageModule_declarations</title>
<polygon fill="none" stroke="black" points="16,-78 16,-130 226,-130 226,-78 16,-78"/>
</g>
<!-- BateriacalentamientohomePage -->
<g id="node1" class="node">
<title>BateriacalentamientohomePage</title>
<polygon fill="#ffffb3" stroke="black" points="217.77,-122 24.23,-122 24.23,-86 217.77,-86 217.77,-122"/>
<text text-anchor="middle" x="121" y="-99.8" font-family="Times,serif" font-size="14.00">BateriacalentamientohomePage</text>
</g>
<!-- BateriacalentamientohomePageModule -->
<g id="node2" class="node">
<title>BateriacalentamientohomePageModule</title>
<polygon fill="#8dd3c7" stroke="black" points="376.32,-187 373.32,-191 352.32,-191 349.32,-187 139.68,-187 139.68,-151 376.32,-151 376.32,-187"/>
<text text-anchor="middle" x="258" y="-164.8" font-family="Times,serif" font-size="14.00">BateriacalentamientohomePageModule</text>
</g>
<!-- BateriacalentamientohomePage&#45;&gt;BateriacalentamientohomePageModule -->
<g id="edge1" class="edge">
<title>BateriacalentamientohomePage&#45;&gt;BateriacalentamientohomePageModule</title>
<path fill="none" stroke="black" d="M178.61,-122.11C178.61,-122.11 178.61,-140.99 178.61,-140.99"/>
<polygon fill="black" stroke="black" points="175.11,-140.99 178.61,-150.99 182.11,-140.99 175.11,-140.99"/>
</g>
<!-- BateriacalentamientohomePageRoutingModule -->
<g id="node3" class="node">
<title>BateriacalentamientohomePageRoutingModule</title>
<polygon fill="#8dd3c7" stroke="black" points="523.93,-122 520.93,-126 499.93,-126 496.93,-122 242.07,-122 242.07,-86 523.93,-86 523.93,-122"/>
<text text-anchor="middle" x="383" y="-99.8" font-family="Times,serif" font-size="14.00">BateriacalentamientohomePageRoutingModule</text>
</g>
<!-- BateriacalentamientohomePageRoutingModule&#45;&gt;BateriacalentamientohomePageModule -->
<g id="edge2" class="edge">
<title>BateriacalentamientohomePageRoutingModule&#45;&gt;BateriacalentamientohomePageModule</title>
<path fill="none" stroke="black" d="M309.22,-122.11C309.22,-122.11 309.22,-140.99 309.22,-140.99"/>
<polygon fill="black" stroke="black" points="305.72,-140.99 309.22,-150.99 312.72,-140.99 305.72,-140.99"/>
</g>
</g>
</svg>
