<?xml version="1.0" encoding="UTF-8" standalone="no"?>
<!DOCTYPE svg PUBLIC "-//W3C//DTD SVG 1.1//EN"
 "http://www.w3.org/Graphics/SVG/1.1/DTD/svg11.dtd">
<!-- Generated by graphviz version 2.46.1 (20210213.1702)
 -->
<!-- Title: dependencies Pages: 1 -->
<svg width="504pt" height="211pt"
 viewBox="0.00 0.00 504.00 211.00" xmlns="http://www.w3.org/2000/svg" xmlns:xlink="http://www.w3.org/1999/xlink">
<g id="graph0" class="graph" transform="scale(1 1) rotate(0) translate(4 207)">
<title>dependencies</title>
<polygon fill="white" stroke="transparent" points="-4,4 -4,-207 500,-207 500,4 -4,4"/>
<text text-anchor="start" x="227.01" y="-42.4" font-family="sans-serif" font-weight="bold" font-size="14.00">Legend</text>
<polygon fill="#ffffb3" stroke="transparent" points="14,-10 14,-30 34,-30 34,-10 14,-10"/>
<text text-anchor="start" x="37.63" y="-15.4" font-family="sans-serif" font-size="14.00"> &#160;Declarations</text>
<polygon fill="#8dd3c7" stroke="transparent" points="127,-10 127,-30 147,-30 147,-10 127,-10"/>
<text text-anchor="start" x="150.73" y="-15.4" font-family="sans-serif" font-size="14.00"> &#160;Module</text>
<polygon fill="#80b1d3" stroke="transparent" points="213,-10 213,-30 233,-30 233,-10 213,-10"/>
<text text-anchor="start" x="236.78" y="-15.4" font-family="sans-serif" font-size="14.00"> &#160;Bootstrap</text>
<polygon fill="#fdb462" stroke="transparent" points="310,-10 310,-30 330,-30 330,-10 310,-10"/>
<text text-anchor="start" x="333.67" y="-15.4" font-family="sans-serif" font-size="14.00"> &#160;Providers</text>
<polygon fill="#fb8072" stroke="transparent" points="406,-10 406,-30 426,-30 426,-10 406,-10"/>
<text text-anchor="start" x="429.73" y="-15.4" font-family="sans-serif" font-size="14.00"> &#160;Exports</text>
<g id="clust1" class="cluster">
<title>cluster_TerminosPageModule</title>
<polygon fill="none" stroke="black" stroke-dasharray="1,5" points="79,-70 79,-195 417,-195 417,-70 79,-70"/>
</g>
<g id="clust4" class="cluster">
<title>cluster_TerminosPageModule_imports</title>
<polygon fill="none" stroke="black" points="207,-78 207,-130 409,-130 409,-78 207,-78"/>
</g>
<g id="clust2" class="cluster">
<title>cluster_TerminosPageModule_declarations</title>
<polygon fill="none" stroke="black" points="87,-78 87,-130 199,-130 199,-78 87,-78"/>
</g>
<!-- TerminosPage -->
<g id="node1" class="node">
<title>TerminosPage</title>
<polygon fill="#ffffb3" stroke="black" points="191.37,-122 94.63,-122 94.63,-86 191.37,-86 191.37,-122"/>
<text text-anchor="middle" x="143" y="-99.8" font-family="Times,serif" font-size="14.00">TerminosPage</text>
</g>
<!-- TerminosPageModule -->
<g id="node2" class="node">
<title>TerminosPageModule</title>
<polygon fill="#8dd3c7" stroke="black" points="302.42,-187 299.42,-191 278.42,-191 275.42,-187 161.58,-187 161.58,-151 302.42,-151 302.42,-187"/>
<text text-anchor="middle" x="232" y="-164.8" font-family="Times,serif" font-size="14.00">TerminosPageModule</text>
</g>
<!-- TerminosPage&#45;&gt;TerminosPageModule -->
<g id="edge1" class="edge">
<title>TerminosPage&#45;&gt;TerminosPageModule</title>
<path fill="none" stroke="black" d="M176.61,-122.11C176.61,-122.11 176.61,-140.99 176.61,-140.99"/>
<polygon fill="black" stroke="black" points="173.11,-140.99 176.61,-150.99 180.11,-140.99 173.11,-140.99"/>
</g>
<!-- TerminosPageRoutingModule -->
<g id="node3" class="node">
<title>TerminosPageRoutingModule</title>
<polygon fill="#8dd3c7" stroke="black" points="400.53,-122 397.53,-126 376.53,-126 373.53,-122 215.47,-122 215.47,-86 400.53,-86 400.53,-122"/>
<text text-anchor="middle" x="308" y="-99.8" font-family="Times,serif" font-size="14.00">TerminosPageRoutingModule</text>
</g>
<!-- TerminosPageRoutingModule&#45;&gt;TerminosPageModule -->
<g id="edge2" class="edge">
<title>TerminosPageRoutingModule&#45;&gt;TerminosPageModule</title>
<path fill="none" stroke="black" d="M258.72,-122.11C258.72,-122.11 258.72,-140.99 258.72,-140.99"/>
<polygon fill="black" stroke="black" points="255.22,-140.99 258.72,-150.99 262.22,-140.99 255.22,-140.99"/>
</g>
</g>
</svg>
