<?xml version="1.0" encoding="UTF-8" standalone="no"?>
<!DOCTYPE svg PUBLIC "-//W3C//DTD SVG 1.1//EN"
 "http://www.w3.org/Graphics/SVG/1.1/DTD/svg11.dtd">
<!-- Generated by graphviz version 2.46.1 (20210213.1702)
 -->
<!-- Title: dependencies Pages: 1 -->
<svg width="504pt" height="211pt"
 viewBox="0.00 0.00 504.00 211.00" xmlns="http://www.w3.org/2000/svg" xmlns:xlink="http://www.w3.org/1999/xlink">
<g id="graph0" class="graph" transform="scale(1 1) rotate(0) translate(4 207)">
<title>dependencies</title>
<polygon fill="white" stroke="transparent" points="-4,4 -4,-207 500,-207 500,4 -4,4"/>
<text text-anchor="start" x="227.01" y="-42.4" font-family="sans-serif" font-weight="bold" font-size="14.00">Legend</text>
<polygon fill="#ffffb3" stroke="transparent" points="14,-10 14,-30 34,-30 34,-10 14,-10"/>
<text text-anchor="start" x="37.63" y="-15.4" font-family="sans-serif" font-size="14.00"> &#160;Declarations</text>
<polygon fill="#8dd3c7" stroke="transparent" points="127,-10 127,-30 147,-30 147,-10 127,-10"/>
<text text-anchor="start" x="150.73" y="-15.4" font-family="sans-serif" font-size="14.00"> &#160;Module</text>
<polygon fill="#80b1d3" stroke="transparent" points="213,-10 213,-30 233,-30 233,-10 213,-10"/>
<text text-anchor="start" x="236.78" y="-15.4" font-family="sans-serif" font-size="14.00"> &#160;Bootstrap</text>
<polygon fill="#fdb462" stroke="transparent" points="310,-10 310,-30 330,-30 330,-10 310,-10"/>
<text text-anchor="start" x="333.67" y="-15.4" font-family="sans-serif" font-size="14.00"> &#160;Providers</text>
<polygon fill="#fb8072" stroke="transparent" points="406,-10 406,-30 426,-30 426,-10 406,-10"/>
<text text-anchor="start" x="429.73" y="-15.4" font-family="sans-serif" font-size="14.00"> &#160;Exports</text>
<g id="clust1" class="cluster">
<title>cluster_PasoinicialPageModule</title>
<polygon fill="none" stroke="black" stroke-dasharray="1,5" points="71,-70 71,-195 425,-195 425,-70 71,-70"/>
</g>
<g id="clust4" class="cluster">
<title>cluster_PasoinicialPageModule_imports</title>
<polygon fill="none" stroke="black" points="207,-78 207,-130 417,-130 417,-78 207,-78"/>
</g>
<g id="clust2" class="cluster">
<title>cluster_PasoinicialPageModule_declarations</title>
<polygon fill="none" stroke="black" points="79,-78 79,-130 199,-130 199,-78 79,-78"/>
</g>
<!-- PasoinicialPage -->
<g id="node1" class="node">
<title>PasoinicialPage</title>
<polygon fill="#ffffb3" stroke="black" points="191.15,-122 86.85,-122 86.85,-86 191.15,-86 191.15,-122"/>
<text text-anchor="middle" x="139" y="-99.8" font-family="Times,serif" font-size="14.00">PasoinicialPage</text>
</g>
<!-- PasoinicialPageModule -->
<g id="node2" class="node">
<title>PasoinicialPageModule</title>
<polygon fill="#8dd3c7" stroke="black" points="306.2,-187 303.2,-191 282.2,-191 279.2,-187 157.8,-187 157.8,-151 306.2,-151 306.2,-187"/>
<text text-anchor="middle" x="232" y="-164.8" font-family="Times,serif" font-size="14.00">PasoinicialPageModule</text>
</g>
<!-- PasoinicialPage&#45;&gt;PasoinicialPageModule -->
<g id="edge1" class="edge">
<title>PasoinicialPage&#45;&gt;PasoinicialPageModule</title>
<path fill="none" stroke="black" d="M174.61,-122.11C174.61,-122.11 174.61,-140.99 174.61,-140.99"/>
<polygon fill="black" stroke="black" points="171.11,-140.99 174.61,-150.99 178.11,-140.99 171.11,-140.99"/>
</g>
<!-- PasoinicialPageRoutingModule -->
<g id="node3" class="node">
<title>PasoinicialPageRoutingModule</title>
<polygon fill="#8dd3c7" stroke="black" points="408.81,-122 405.81,-126 384.81,-126 381.81,-122 215.19,-122 215.19,-86 408.81,-86 408.81,-122"/>
<text text-anchor="middle" x="312" y="-99.8" font-family="Times,serif" font-size="14.00">PasoinicialPageRoutingModule</text>
</g>
<!-- PasoinicialPageRoutingModule&#45;&gt;PasoinicialPageModule -->
<g id="edge2" class="edge">
<title>PasoinicialPageRoutingModule&#45;&gt;PasoinicialPageModule</title>
<path fill="none" stroke="black" d="M260.72,-122.11C260.72,-122.11 260.72,-140.99 260.72,-140.99"/>
<polygon fill="black" stroke="black" points="257.22,-140.99 260.72,-150.99 264.22,-140.99 257.22,-140.99"/>
</g>
</g>
</svg>
