<?xml version="1.0" encoding="UTF-8" standalone="no"?>
<!DOCTYPE svg PUBLIC "-//W3C//DTD SVG 1.1//EN"
 "http://www.w3.org/Graphics/SVG/1.1/DTD/svg11.dtd">
<!-- Generated by graphviz version 2.46.1 (20210213.1702)
 -->
<!-- Title: dependencies Pages: 1 -->
<svg width="504pt" height="211pt"
 viewBox="0.00 0.00 504.00 211.00" xmlns="http://www.w3.org/2000/svg" xmlns:xlink="http://www.w3.org/1999/xlink">
<g id="graph0" class="graph" transform="scale(1 1) rotate(0) translate(4 207)">
<title>dependencies</title>
<polygon fill="white" stroke="transparent" points="-4,4 -4,-207 500,-207 500,4 -4,4"/>
<text text-anchor="start" x="227.01" y="-42.4" font-family="sans-serif" font-weight="bold" font-size="14.00">Legend</text>
<polygon fill="#ffffb3" stroke="transparent" points="14,-10 14,-30 34,-30 34,-10 14,-10"/>
<text text-anchor="start" x="37.63" y="-15.4" font-family="sans-serif" font-size="14.00"> &#160;Declarations</text>
<polygon fill="#8dd3c7" stroke="transparent" points="127,-10 127,-30 147,-30 147,-10 127,-10"/>
<text text-anchor="start" x="150.73" y="-15.4" font-family="sans-serif" font-size="14.00"> &#160;Module</text>
<polygon fill="#80b1d3" stroke="transparent" points="213,-10 213,-30 233,-30 233,-10 213,-10"/>
<text text-anchor="start" x="236.78" y="-15.4" font-family="sans-serif" font-size="14.00"> &#160;Bootstrap</text>
<polygon fill="#fdb462" stroke="transparent" points="310,-10 310,-30 330,-30 330,-10 310,-10"/>
<text text-anchor="start" x="333.67" y="-15.4" font-family="sans-serif" font-size="14.00"> &#160;Providers</text>
<polygon fill="#fb8072" stroke="transparent" points="406,-10 406,-30 426,-30 426,-10 406,-10"/>
<text text-anchor="start" x="429.73" y="-15.4" font-family="sans-serif" font-size="14.00"> &#160;Exports</text>
<g id="clust1" class="cluster">
<title>cluster_MensajecorazonPageModule</title>
<polygon fill="none" stroke="black" stroke-dasharray="1,5" points="41,-70 41,-195 455,-195 455,-70 41,-70"/>
</g>
<g id="clust2" class="cluster">
<title>cluster_MensajecorazonPageModule_declarations</title>
<polygon fill="none" stroke="black" points="297,-78 297,-130 447,-130 447,-78 297,-78"/>
</g>
<g id="clust4" class="cluster">
<title>cluster_MensajecorazonPageModule_imports</title>
<polygon fill="none" stroke="black" points="49,-78 49,-130 289,-130 289,-78 49,-78"/>
</g>
<!-- MensajecorazonPage -->
<g id="node1" class="node">
<title>MensajecorazonPage</title>
<polygon fill="#ffffb3" stroke="black" points="439.44,-122 304.56,-122 304.56,-86 439.44,-86 439.44,-122"/>
<text text-anchor="middle" x="372" y="-99.8" font-family="Times,serif" font-size="14.00">MensajecorazonPage</text>
</g>
<!-- MensajecorazonPageModule -->
<g id="node2" class="node">
<title>MensajecorazonPageModule</title>
<polygon fill="#8dd3c7" stroke="black" points="352.49,-187 349.49,-191 328.49,-191 325.49,-187 173.51,-187 173.51,-151 352.49,-151 352.49,-187"/>
<text text-anchor="middle" x="263" y="-164.8" font-family="Times,serif" font-size="14.00">MensajecorazonPageModule</text>
</g>
<!-- MensajecorazonPage&#45;&gt;MensajecorazonPageModule -->
<g id="edge1" class="edge">
<title>MensajecorazonPage&#45;&gt;MensajecorazonPageModule</title>
<path fill="none" stroke="black" d="M328.39,-122.11C328.39,-122.11 328.39,-140.99 328.39,-140.99"/>
<polygon fill="black" stroke="black" points="324.89,-140.99 328.39,-150.99 331.89,-140.99 324.89,-140.99"/>
</g>
<!-- MensajecorazonPageRoutingModule -->
<g id="node3" class="node">
<title>MensajecorazonPageRoutingModule</title>
<polygon fill="#8dd3c7" stroke="black" points="280.61,-122 277.61,-126 256.61,-126 253.61,-122 57.39,-122 57.39,-86 280.61,-86 280.61,-122"/>
<text text-anchor="middle" x="169" y="-99.8" font-family="Times,serif" font-size="14.00">MensajecorazonPageRoutingModule</text>
</g>
<!-- MensajecorazonPageRoutingModule&#45;&gt;MensajecorazonPageModule -->
<g id="edge2" class="edge">
<title>MensajecorazonPageRoutingModule&#45;&gt;MensajecorazonPageModule</title>
<path fill="none" stroke="black" d="M227.28,-122.11C227.28,-122.11 227.28,-140.99 227.28,-140.99"/>
<polygon fill="black" stroke="black" points="223.78,-140.99 227.28,-150.99 230.78,-140.99 223.78,-140.99"/>
</g>
</g>
</svg>
