<?xml version="1.0" encoding="UTF-8" standalone="no"?>
<!DOCTYPE svg PUBLIC "-//W3C//DTD SVG 1.1//EN"
 "http://www.w3.org/Graphics/SVG/1.1/DTD/svg11.dtd">
<!-- Generated by graphviz version 2.46.1 (20210213.1702)
 -->
<!-- Title: dependencies Pages: 1 -->
<svg width="504pt" height="211pt"
 viewBox="0.00 0.00 504.00 211.00" xmlns="http://www.w3.org/2000/svg" xmlns:xlink="http://www.w3.org/1999/xlink">
<g id="graph0" class="graph" transform="scale(1 1) rotate(0) translate(4 207)">
<title>dependencies</title>
<polygon fill="white" stroke="transparent" points="-4,4 -4,-207 500,-207 500,4 -4,4"/>
<text text-anchor="start" x="227.01" y="-42.4" font-family="sans-serif" font-weight="bold" font-size="14.00">Legend</text>
<polygon fill="#ffffb3" stroke="transparent" points="14,-10 14,-30 34,-30 34,-10 14,-10"/>
<text text-anchor="start" x="37.63" y="-15.4" font-family="sans-serif" font-size="14.00"> &#160;Declarations</text>
<polygon fill="#8dd3c7" stroke="transparent" points="127,-10 127,-30 147,-30 147,-10 127,-10"/>
<text text-anchor="start" x="150.73" y="-15.4" font-family="sans-serif" font-size="14.00"> &#160;Module</text>
<polygon fill="#80b1d3" stroke="transparent" points="213,-10 213,-30 233,-30 233,-10 213,-10"/>
<text text-anchor="start" x="236.78" y="-15.4" font-family="sans-serif" font-size="14.00"> &#160;Bootstrap</text>
<polygon fill="#fdb462" stroke="transparent" points="310,-10 310,-30 330,-30 330,-10 310,-10"/>
<text text-anchor="start" x="333.67" y="-15.4" font-family="sans-serif" font-size="14.00"> &#160;Providers</text>
<polygon fill="#fb8072" stroke="transparent" points="406,-10 406,-30 426,-30 426,-10 406,-10"/>
<text text-anchor="start" x="429.73" y="-15.4" font-family="sans-serif" font-size="14.00"> &#160;Exports</text>
<g id="clust1" class="cluster">
<title>cluster_PesoyestaturaPageModule</title>
<polygon fill="none" stroke="black" stroke-dasharray="1,5" points="56,-70 56,-195 440,-195 440,-70 56,-70"/>
</g>
<g id="clust4" class="cluster">
<title>cluster_PesoyestaturaPageModule_imports</title>
<polygon fill="none" stroke="black" points="208,-78 208,-130 432,-130 432,-78 208,-78"/>
</g>
<g id="clust2" class="cluster">
<title>cluster_PesoyestaturaPageModule_declarations</title>
<polygon fill="none" stroke="black" points="64,-78 64,-130 200,-130 200,-78 64,-78"/>
</g>
<!-- PesoyestaturaPage -->
<g id="node1" class="node">
<title>PesoyestaturaPage</title>
<polygon fill="#ffffb3" stroke="black" points="192.18,-122 71.82,-122 71.82,-86 192.18,-86 192.18,-122"/>
<text text-anchor="middle" x="132" y="-99.8" font-family="Times,serif" font-size="14.00">PesoyestaturaPage</text>
</g>
<!-- PesoyestaturaPageModule -->
<g id="node2" class="node">
<title>PesoyestaturaPageModule</title>
<polygon fill="#8dd3c7" stroke="black" points="314.73,-187 311.73,-191 290.73,-191 287.73,-187 151.27,-187 151.27,-151 314.73,-151 314.73,-187"/>
<text text-anchor="middle" x="233" y="-164.8" font-family="Times,serif" font-size="14.00">PesoyestaturaPageModule</text>
</g>
<!-- PesoyestaturaPage&#45;&gt;PesoyestaturaPageModule -->
<g id="edge1" class="edge">
<title>PesoyestaturaPage&#45;&gt;PesoyestaturaPageModule</title>
<path fill="none" stroke="black" d="M171.61,-122.11C171.61,-122.11 171.61,-140.99 171.61,-140.99"/>
<polygon fill="black" stroke="black" points="168.11,-140.99 171.61,-150.99 175.11,-140.99 168.11,-140.99"/>
</g>
<!-- PesoyestaturaPageRoutingModule -->
<g id="node3" class="node">
<title>PesoyestaturaPageRoutingModule</title>
<polygon fill="#8dd3c7" stroke="black" points="424.35,-122 421.35,-126 400.35,-126 397.35,-122 215.65,-122 215.65,-86 424.35,-86 424.35,-122"/>
<text text-anchor="middle" x="320" y="-99.8" font-family="Times,serif" font-size="14.00">PesoyestaturaPageRoutingModule</text>
</g>
<!-- PesoyestaturaPageRoutingModule&#45;&gt;PesoyestaturaPageModule -->
<g id="edge2" class="edge">
<title>PesoyestaturaPageRoutingModule&#45;&gt;PesoyestaturaPageModule</title>
<path fill="none" stroke="black" d="M265.22,-122.11C265.22,-122.11 265.22,-140.99 265.22,-140.99"/>
<polygon fill="black" stroke="black" points="261.72,-140.99 265.22,-150.99 268.72,-140.99 261.72,-140.99"/>
</g>
</g>
</svg>
