<?xml version="1.0" encoding="UTF-8" standalone="no"?>
<!DOCTYPE svg PUBLIC "-//W3C//DTD SVG 1.1//EN"
 "http://www.w3.org/Graphics/SVG/1.1/DTD/svg11.dtd">
<!-- Generated by graphviz version 2.46.1 (20210213.1702)
 -->
<!-- Title: dependencies Pages: 1 -->
<svg width="504pt" height="211pt"
 viewBox="0.00 0.00 504.00 211.00" xmlns="http://www.w3.org/2000/svg" xmlns:xlink="http://www.w3.org/1999/xlink">
<g id="graph0" class="graph" transform="scale(1 1) rotate(0) translate(4 207)">
<title>dependencies</title>
<polygon fill="white" stroke="transparent" points="-4,4 -4,-207 500,-207 500,4 -4,4"/>
<text text-anchor="start" x="227.01" y="-42.4" font-family="sans-serif" font-weight="bold" font-size="14.00">Legend</text>
<polygon fill="#ffffb3" stroke="transparent" points="14,-10 14,-30 34,-30 34,-10 14,-10"/>
<text text-anchor="start" x="37.63" y="-15.4" font-family="sans-serif" font-size="14.00"> &#160;Declarations</text>
<polygon fill="#8dd3c7" stroke="transparent" points="127,-10 127,-30 147,-30 147,-10 127,-10"/>
<text text-anchor="start" x="150.73" y="-15.4" font-family="sans-serif" font-size="14.00"> &#160;Module</text>
<polygon fill="#80b1d3" stroke="transparent" points="213,-10 213,-30 233,-30 233,-10 213,-10"/>
<text text-anchor="start" x="236.78" y="-15.4" font-family="sans-serif" font-size="14.00"> &#160;Bootstrap</text>
<polygon fill="#fdb462" stroke="transparent" points="310,-10 310,-30 330,-30 330,-10 310,-10"/>
<text text-anchor="start" x="333.67" y="-15.4" font-family="sans-serif" font-size="14.00"> &#160;Providers</text>
<polygon fill="#fb8072" stroke="transparent" points="406,-10 406,-30 426,-30 426,-10 406,-10"/>
<text text-anchor="start" x="429.73" y="-15.4" font-family="sans-serif" font-size="14.00"> &#160;Exports</text>
<g id="clust1" class="cluster">
<title>cluster_CalentamientoPageModule</title>
<polygon fill="none" stroke="black" stroke-dasharray="1,5" points="51,-70 51,-195 445,-195 445,-70 51,-70"/>
</g>
<g id="clust2" class="cluster">
<title>cluster_CalentamientoPageModule_declarations</title>
<polygon fill="none" stroke="black" points="297,-78 297,-130 437,-130 437,-78 297,-78"/>
</g>
<g id="clust4" class="cluster">
<title>cluster_CalentamientoPageModule_imports</title>
<polygon fill="none" stroke="black" points="59,-78 59,-130 289,-130 289,-78 59,-78"/>
</g>
<!-- CalentamientoPage -->
<g id="node1" class="node">
<title>CalentamientoPage</title>
<polygon fill="#ffffb3" stroke="black" points="429.36,-122 304.64,-122 304.64,-86 429.36,-86 429.36,-122"/>
<text text-anchor="middle" x="367" y="-99.8" font-family="Times,serif" font-size="14.00">CalentamientoPage</text>
</g>
<!-- CalentamientoPageModule -->
<g id="node2" class="node">
<title>CalentamientoPageModule</title>
<polygon fill="#8dd3c7" stroke="black" points="347.41,-187 344.41,-191 323.41,-191 320.41,-187 178.59,-187 178.59,-151 347.41,-151 347.41,-187"/>
<text text-anchor="middle" x="263" y="-164.8" font-family="Times,serif" font-size="14.00">CalentamientoPageModule</text>
</g>
<!-- CalentamientoPage&#45;&gt;CalentamientoPageModule -->
<g id="edge1" class="edge">
<title>CalentamientoPage&#45;&gt;CalentamientoPageModule</title>
<path fill="none" stroke="black" d="M325.89,-122.11C325.89,-122.11 325.89,-140.99 325.89,-140.99"/>
<polygon fill="black" stroke="black" points="322.39,-140.99 325.89,-150.99 329.39,-140.99 322.39,-140.99"/>
</g>
<!-- CalentamientoPageRoutingModule -->
<g id="node3" class="node">
<title>CalentamientoPageRoutingModule</title>
<polygon fill="#8dd3c7" stroke="black" points="280.53,-122 277.53,-126 256.53,-126 253.53,-122 67.47,-122 67.47,-86 280.53,-86 280.53,-122"/>
<text text-anchor="middle" x="174" y="-99.8" font-family="Times,serif" font-size="14.00">CalentamientoPageRoutingModule</text>
</g>
<!-- CalentamientoPageRoutingModule&#45;&gt;CalentamientoPageModule -->
<g id="edge2" class="edge">
<title>CalentamientoPageRoutingModule&#45;&gt;CalentamientoPageModule</title>
<path fill="none" stroke="black" d="M229.78,-122.11C229.78,-122.11 229.78,-140.99 229.78,-140.99"/>
<polygon fill="black" stroke="black" points="226.28,-140.99 229.78,-150.99 233.28,-140.99 226.28,-140.99"/>
</g>
</g>
</svg>
