<?xml version="1.0" encoding="UTF-8" standalone="no"?>
<!DOCTYPE svg PUBLIC "-//W3C//DTD SVG 1.1//EN"
 "http://www.w3.org/Graphics/SVG/1.1/DTD/svg11.dtd">
<!-- Generated by graphviz version 2.46.1 (20210213.1702)
 -->
<!-- Title: dependencies Pages: 1 -->
<svg width="504pt" height="211pt"
 viewBox="0.00 0.00 504.00 211.00" xmlns="http://www.w3.org/2000/svg" xmlns:xlink="http://www.w3.org/1999/xlink">
<g id="graph0" class="graph" transform="scale(1 1) rotate(0) translate(4 207)">
<title>dependencies</title>
<polygon fill="white" stroke="transparent" points="-4,4 -4,-207 500,-207 500,4 -4,4"/>
<text text-anchor="start" x="227.01" y="-42.4" font-family="sans-serif" font-weight="bold" font-size="14.00">Legend</text>
<polygon fill="#ffffb3" stroke="transparent" points="14,-10 14,-30 34,-30 34,-10 14,-10"/>
<text text-anchor="start" x="37.63" y="-15.4" font-family="sans-serif" font-size="14.00"> &#160;Declarations</text>
<polygon fill="#8dd3c7" stroke="transparent" points="127,-10 127,-30 147,-30 147,-10 127,-10"/>
<text text-anchor="start" x="150.73" y="-15.4" font-family="sans-serif" font-size="14.00"> &#160;Module</text>
<polygon fill="#80b1d3" stroke="transparent" points="213,-10 213,-30 233,-30 233,-10 213,-10"/>
<text text-anchor="start" x="236.78" y="-15.4" font-family="sans-serif" font-size="14.00"> &#160;Bootstrap</text>
<polygon fill="#fdb462" stroke="transparent" points="310,-10 310,-30 330,-30 330,-10 310,-10"/>
<text text-anchor="start" x="333.67" y="-15.4" font-family="sans-serif" font-size="14.00"> &#160;Providers</text>
<polygon fill="#fb8072" stroke="transparent" points="406,-10 406,-30 426,-30 426,-10 406,-10"/>
<text text-anchor="start" x="429.73" y="-15.4" font-family="sans-serif" font-size="14.00"> &#160;Exports</text>
<g id="clust1" class="cluster">
<title>cluster_RutinaEntrenamientoPageModule</title>
<polygon fill="none" stroke="black" stroke-dasharray="1,5" points="13,-70 13,-195 483,-195 483,-70 13,-70"/>
</g>
<g id="clust2" class="cluster">
<title>cluster_RutinaEntrenamientoPageModule_declarations</title>
<polygon fill="none" stroke="black" points="297,-78 297,-130 475,-130 475,-78 297,-78"/>
</g>
<g id="clust4" class="cluster">
<title>cluster_RutinaEntrenamientoPageModule_imports</title>
<polygon fill="none" stroke="black" points="21,-78 21,-130 289,-130 289,-78 21,-78"/>
</g>
<!-- RutinaEntrenamientoPage -->
<g id="node1" class="node">
<title>RutinaEntrenamientoPage</title>
<polygon fill="#ffffb3" stroke="black" points="467.46,-122 304.54,-122 304.54,-86 467.46,-86 467.46,-122"/>
<text text-anchor="middle" x="386" y="-99.8" font-family="Times,serif" font-size="14.00">RutinaEntrenamientoPage</text>
</g>
<!-- RutinaEntrenamientoPageModule -->
<g id="node2" class="node">
<title>RutinaEntrenamientoPageModule</title>
<polygon fill="#8dd3c7" stroke="black" points="366.01,-187 363.01,-191 342.01,-191 339.01,-187 159.99,-187 159.99,-151 366.01,-151 366.01,-187"/>
<text text-anchor="middle" x="263" y="-164.8" font-family="Times,serif" font-size="14.00">RutinaEntrenamientoPageModule</text>
</g>
<!-- RutinaEntrenamientoPage&#45;&gt;RutinaEntrenamientoPageModule -->
<g id="edge1" class="edge">
<title>RutinaEntrenamientoPage&#45;&gt;RutinaEntrenamientoPageModule</title>
<path fill="none" stroke="black" d="M335.39,-122.11C335.39,-122.11 335.39,-140.99 335.39,-140.99"/>
<polygon fill="black" stroke="black" points="331.89,-140.99 335.39,-150.99 338.89,-140.99 331.89,-140.99"/>
</g>
<!-- RutinaEntrenamientoPageRoutingModule -->
<g id="node3" class="node">
<title>RutinaEntrenamientoPageRoutingModule</title>
<polygon fill="#8dd3c7" stroke="black" points="280.63,-122 277.63,-126 256.63,-126 253.63,-122 29.37,-122 29.37,-86 280.63,-86 280.63,-122"/>
<text text-anchor="middle" x="155" y="-99.8" font-family="Times,serif" font-size="14.00">RutinaEntrenamientoPageRoutingModule</text>
</g>
<!-- RutinaEntrenamientoPageRoutingModule&#45;&gt;RutinaEntrenamientoPageModule -->
<g id="edge2" class="edge">
<title>RutinaEntrenamientoPageRoutingModule&#45;&gt;RutinaEntrenamientoPageModule</title>
<path fill="none" stroke="black" d="M220.28,-122.11C220.28,-122.11 220.28,-140.99 220.28,-140.99"/>
<polygon fill="black" stroke="black" points="216.78,-140.99 220.28,-150.99 223.78,-140.99 216.78,-140.99"/>
</g>
</g>
</svg>
