<?xml version="1.0" encoding="UTF-8" standalone="no"?>
<!DOCTYPE svg PUBLIC "-//W3C//DTD SVG 1.1//EN"
 "http://www.w3.org/Graphics/SVG/1.1/DTD/svg11.dtd">
<!-- Generated by graphviz version 2.46.1 (20210213.1702)
 -->
<!-- Title: dependencies Pages: 1 -->
<svg width="504pt" height="211pt"
 viewBox="0.00 0.00 504.00 211.00" xmlns="http://www.w3.org/2000/svg" xmlns:xlink="http://www.w3.org/1999/xlink">
<g id="graph0" class="graph" transform="scale(1 1) rotate(0) translate(4 207)">
<title>dependencies</title>
<polygon fill="white" stroke="transparent" points="-4,4 -4,-207 500,-207 500,4 -4,4"/>
<text text-anchor="start" x="227.01" y="-42.4" font-family="sans-serif" font-weight="bold" font-size="14.00">Legend</text>
<polygon fill="#ffffb3" stroke="transparent" points="14,-10 14,-30 34,-30 34,-10 14,-10"/>
<text text-anchor="start" x="37.63" y="-15.4" font-family="sans-serif" font-size="14.00"> &#160;Declarations</text>
<polygon fill="#8dd3c7" stroke="transparent" points="127,-10 127,-30 147,-30 147,-10 127,-10"/>
<text text-anchor="start" x="150.73" y="-15.4" font-family="sans-serif" font-size="14.00"> &#160;Module</text>
<polygon fill="#80b1d3" stroke="transparent" points="213,-10 213,-30 233,-30 233,-10 213,-10"/>
<text text-anchor="start" x="236.78" y="-15.4" font-family="sans-serif" font-size="14.00"> &#160;Bootstrap</text>
<polygon fill="#fdb462" stroke="transparent" points="310,-10 310,-30 330,-30 330,-10 310,-10"/>
<text text-anchor="start" x="333.67" y="-15.4" font-family="sans-serif" font-size="14.00"> &#160;Providers</text>
<polygon fill="#fb8072" stroke="transparent" points="406,-10 406,-30 426,-30 426,-10 406,-10"/>
<text text-anchor="start" x="429.73" y="-15.4" font-family="sans-serif" font-size="14.00"> &#160;Exports</text>
<g id="clust1" class="cluster">
<title>cluster_ModalComparacionPageModule</title>
<polygon fill="none" stroke="black" stroke-dasharray="1,5" points="20,-70 20,-195 476,-195 476,-70 20,-70"/>
</g>
<g id="clust2" class="cluster">
<title>cluster_ModalComparacionPageModule_declarations</title>
<polygon fill="none" stroke="black" points="296,-78 296,-130 468,-130 468,-78 296,-78"/>
</g>
<g id="clust4" class="cluster">
<title>cluster_ModalComparacionPageModule_imports</title>
<polygon fill="none" stroke="black" points="28,-78 28,-130 288,-130 288,-78 28,-78"/>
</g>
<!-- ModalComparacionPage -->
<g id="node1" class="node">
<title>ModalComparacionPage</title>
<polygon fill="#ffffb3" stroke="black" points="459.68,-122 304.32,-122 304.32,-86 459.68,-86 459.68,-122"/>
<text text-anchor="middle" x="382" y="-99.8" font-family="Times,serif" font-size="14.00">ModalComparacionPage</text>
</g>
<!-- ModalComparacionPageModule -->
<g id="node2" class="node">
<title>ModalComparacionPageModule</title>
<polygon fill="#8dd3c7" stroke="black" points="362.23,-187 359.23,-191 338.23,-191 335.23,-187 163.77,-187 163.77,-151 362.23,-151 362.23,-187"/>
<text text-anchor="middle" x="263" y="-164.8" font-family="Times,serif" font-size="14.00">ModalComparacionPageModule</text>
</g>
<!-- ModalComparacionPage&#45;&gt;ModalComparacionPageModule -->
<g id="edge1" class="edge">
<title>ModalComparacionPage&#45;&gt;ModalComparacionPageModule</title>
<path fill="none" stroke="black" d="M333.39,-122.11C333.39,-122.11 333.39,-140.99 333.39,-140.99"/>
<polygon fill="black" stroke="black" points="329.89,-140.99 333.39,-150.99 336.89,-140.99 329.89,-140.99"/>
</g>
<!-- ModalComparacionPageRoutingModule -->
<g id="node3" class="node">
<title>ModalComparacionPageRoutingModule</title>
<polygon fill="#8dd3c7" stroke="black" points="279.85,-122 276.85,-126 255.85,-126 252.85,-122 36.15,-122 36.15,-86 279.85,-86 279.85,-122"/>
<text text-anchor="middle" x="158" y="-99.8" font-family="Times,serif" font-size="14.00">ModalComparacionPageRoutingModule</text>
</g>
<!-- ModalComparacionPageRoutingModule&#45;&gt;ModalComparacionPageModule -->
<g id="edge2" class="edge">
<title>ModalComparacionPageRoutingModule&#45;&gt;ModalComparacionPageModule</title>
<path fill="none" stroke="black" d="M221.78,-122.11C221.78,-122.11 221.78,-140.99 221.78,-140.99"/>
<polygon fill="black" stroke="black" points="218.28,-140.99 221.78,-150.99 225.28,-140.99 218.28,-140.99"/>
</g>
</g>
</svg>
