<?xml version="1.0" encoding="UTF-8" standalone="no"?>
<!DOCTYPE svg PUBLIC "-//W3C//DTD SVG 1.1//EN"
 "http://www.w3.org/Graphics/SVG/1.1/DTD/svg11.dtd">
<!-- Generated by graphviz version 2.46.1 (20210213.1702)
 -->
<!-- Title: dependencies Pages: 1 -->
<svg width="504pt" height="211pt"
 viewBox="0.00 0.00 504.00 211.00" xmlns="http://www.w3.org/2000/svg" xmlns:xlink="http://www.w3.org/1999/xlink">
<g id="graph0" class="graph" transform="scale(1 1) rotate(0) translate(4 207)">
<title>dependencies</title>
<polygon fill="white" stroke="transparent" points="-4,4 -4,-207 500,-207 500,4 -4,4"/>
<text text-anchor="start" x="227.01" y="-42.4" font-family="sans-serif" font-weight="bold" font-size="14.00">Legend</text>
<polygon fill="#ffffb3" stroke="transparent" points="14,-10 14,-30 34,-30 34,-10 14,-10"/>
<text text-anchor="start" x="37.63" y="-15.4" font-family="sans-serif" font-size="14.00"> &#160;Declarations</text>
<polygon fill="#8dd3c7" stroke="transparent" points="127,-10 127,-30 147,-30 147,-10 127,-10"/>
<text text-anchor="start" x="150.73" y="-15.4" font-family="sans-serif" font-size="14.00"> &#160;Module</text>
<polygon fill="#80b1d3" stroke="transparent" points="213,-10 213,-30 233,-30 233,-10 213,-10"/>
<text text-anchor="start" x="236.78" y="-15.4" font-family="sans-serif" font-size="14.00"> &#160;Bootstrap</text>
<polygon fill="#fdb462" stroke="transparent" points="310,-10 310,-30 330,-30 330,-10 310,-10"/>
<text text-anchor="start" x="333.67" y="-15.4" font-family="sans-serif" font-size="14.00"> &#160;Providers</text>
<polygon fill="#fb8072" stroke="transparent" points="406,-10 406,-30 426,-30 426,-10 406,-10"/>
<text text-anchor="start" x="429.73" y="-15.4" font-family="sans-serif" font-size="14.00"> &#160;Exports</text>
<g id="clust1" class="cluster">
<title>cluster_AntecedentefamiliarPageModule</title>
<polygon fill="none" stroke="black" stroke-dasharray="1,5" points="18,-70 18,-195 478,-195 478,-70 18,-70"/>
</g>
<g id="clust2" class="cluster">
<title>cluster_AntecedentefamiliarPageModule_declarations</title>
<polygon fill="none" stroke="black" points="296,-78 296,-130 470,-130 470,-78 296,-78"/>
</g>
<g id="clust4" class="cluster">
<title>cluster_AntecedentefamiliarPageModule_imports</title>
<polygon fill="none" stroke="black" points="26,-78 26,-130 288,-130 288,-78 26,-78"/>
</g>
<!-- AntecedentefamiliarPage -->
<g id="node1" class="node">
<title>AntecedentefamiliarPage</title>
<polygon fill="#ffffb3" stroke="black" points="461.99,-122 304.01,-122 304.01,-86 461.99,-86 461.99,-122"/>
<text text-anchor="middle" x="383" y="-99.8" font-family="Times,serif" font-size="14.00">AntecedentefamiliarPage</text>
</g>
<!-- AntecedentefamiliarPageModule -->
<g id="node2" class="node">
<title>AntecedentefamiliarPageModule</title>
<polygon fill="#8dd3c7" stroke="black" points="363.54,-187 360.54,-191 339.54,-191 336.54,-187 162.46,-187 162.46,-151 363.54,-151 363.54,-187"/>
<text text-anchor="middle" x="263" y="-164.8" font-family="Times,serif" font-size="14.00">AntecedentefamiliarPageModule</text>
</g>
<!-- AntecedentefamiliarPage&#45;&gt;AntecedentefamiliarPageModule -->
<g id="edge1" class="edge">
<title>AntecedentefamiliarPage&#45;&gt;AntecedentefamiliarPageModule</title>
<path fill="none" stroke="black" d="M333.89,-122.11C333.89,-122.11 333.89,-140.99 333.89,-140.99"/>
<polygon fill="black" stroke="black" points="330.39,-140.99 333.89,-150.99 337.39,-140.99 330.39,-140.99"/>
</g>
<!-- AntecedentefamiliarPageRoutingModule -->
<g id="node3" class="node">
<title>AntecedentefamiliarPageRoutingModule</title>
<polygon fill="#8dd3c7" stroke="black" points="280.15,-122 277.15,-126 256.15,-126 253.15,-122 33.85,-122 33.85,-86 280.15,-86 280.15,-122"/>
<text text-anchor="middle" x="157" y="-99.8" font-family="Times,serif" font-size="14.00">AntecedentefamiliarPageRoutingModule</text>
</g>
<!-- AntecedentefamiliarPageRoutingModule&#45;&gt;AntecedentefamiliarPageModule -->
<g id="edge2" class="edge">
<title>AntecedentefamiliarPageRoutingModule&#45;&gt;AntecedentefamiliarPageModule</title>
<path fill="none" stroke="black" d="M221.28,-122.11C221.28,-122.11 221.28,-140.99 221.28,-140.99"/>
<polygon fill="black" stroke="black" points="217.78,-140.99 221.28,-150.99 224.78,-140.99 217.78,-140.99"/>
</g>
</g>
</svg>
