<?xml version="1.0" encoding="UTF-8" standalone="no"?>
<!DOCTYPE svg PUBLIC "-//W3C//DTD SVG 1.1//EN"
 "http://www.w3.org/Graphics/SVG/1.1/DTD/svg11.dtd">
<!-- Generated by graphviz version 2.46.1 (20210213.1702)
 -->
<!-- Title: dependencies Pages: 1 -->
<svg width="504pt" height="211pt"
 viewBox="0.00 0.00 504.00 211.00" xmlns="http://www.w3.org/2000/svg" xmlns:xlink="http://www.w3.org/1999/xlink">
<g id="graph0" class="graph" transform="scale(1 1) rotate(0) translate(4 207)">
<title>dependencies</title>
<polygon fill="white" stroke="transparent" points="-4,4 -4,-207 500,-207 500,4 -4,4"/>
<text text-anchor="start" x="227.01" y="-42.4" font-family="sans-serif" font-weight="bold" font-size="14.00">Legend</text>
<polygon fill="#ffffb3" stroke="transparent" points="14,-10 14,-30 34,-30 34,-10 14,-10"/>
<text text-anchor="start" x="37.63" y="-15.4" font-family="sans-serif" font-size="14.00"> &#160;Declarations</text>
<polygon fill="#8dd3c7" stroke="transparent" points="127,-10 127,-30 147,-30 147,-10 127,-10"/>
<text text-anchor="start" x="150.73" y="-15.4" font-family="sans-serif" font-size="14.00"> &#160;Module</text>
<polygon fill="#80b1d3" stroke="transparent" points="213,-10 213,-30 233,-30 233,-10 213,-10"/>
<text text-anchor="start" x="236.78" y="-15.4" font-family="sans-serif" font-size="14.00"> &#160;Bootstrap</text>
<polygon fill="#fdb462" stroke="transparent" points="310,-10 310,-30 330,-30 330,-10 310,-10"/>
<text text-anchor="start" x="333.67" y="-15.4" font-family="sans-serif" font-size="14.00"> &#160;Providers</text>
<polygon fill="#fb8072" stroke="transparent" points="406,-10 406,-30 426,-30 426,-10 406,-10"/>
<text text-anchor="start" x="429.73" y="-15.4" font-family="sans-serif" font-size="14.00"> &#160;Exports</text>
<g id="clust1" class="cluster">
<title>cluster_TestFuerzaInfoPageModule</title>
<polygon fill="none" stroke="black" stroke-dasharray="1,5" points="47,-70 47,-195 449,-195 449,-70 47,-70"/>
</g>
<g id="clust2" class="cluster">
<title>cluster_TestFuerzaInfoPageModule_declarations</title>
<polygon fill="none" stroke="black" points="297,-78 297,-130 441,-130 441,-78 297,-78"/>
</g>
<g id="clust4" class="cluster">
<title>cluster_TestFuerzaInfoPageModule_imports</title>
<polygon fill="none" stroke="black" points="55,-78 55,-130 289,-130 289,-78 55,-78"/>
</g>
<!-- TestFuerzaInfoPage -->
<g id="node1" class="node">
<title>TestFuerzaInfoPage</title>
<polygon fill="#ffffb3" stroke="black" points="433.22,-122 304.78,-122 304.78,-86 433.22,-86 433.22,-122"/>
<text text-anchor="middle" x="369" y="-99.8" font-family="Times,serif" font-size="14.00">TestFuerzaInfoPage</text>
</g>
<!-- TestFuerzaInfoPageModule -->
<g id="node2" class="node">
<title>TestFuerzaInfoPageModule</title>
<polygon fill="#8dd3c7" stroke="black" points="349.27,-187 346.27,-191 325.27,-191 322.27,-187 176.73,-187 176.73,-151 349.27,-151 349.27,-187"/>
<text text-anchor="middle" x="263" y="-164.8" font-family="Times,serif" font-size="14.00">TestFuerzaInfoPageModule</text>
</g>
<!-- TestFuerzaInfoPage&#45;&gt;TestFuerzaInfoPageModule -->
<g id="edge1" class="edge">
<title>TestFuerzaInfoPage&#45;&gt;TestFuerzaInfoPageModule</title>
<path fill="none" stroke="black" d="M326.89,-122.11C326.89,-122.11 326.89,-140.99 326.89,-140.99"/>
<polygon fill="black" stroke="black" points="323.39,-140.99 326.89,-150.99 330.39,-140.99 323.39,-140.99"/>
</g>
<!-- TestFuerzaInfoPageRoutingModule -->
<g id="node3" class="node">
<title>TestFuerzaInfoPageRoutingModule</title>
<polygon fill="#8dd3c7" stroke="black" points="280.89,-122 277.89,-126 256.89,-126 253.89,-122 63.11,-122 63.11,-86 280.89,-86 280.89,-122"/>
<text text-anchor="middle" x="172" y="-99.8" font-family="Times,serif" font-size="14.00">TestFuerzaInfoPageRoutingModule</text>
</g>
<!-- TestFuerzaInfoPageRoutingModule&#45;&gt;TestFuerzaInfoPageModule -->
<g id="edge2" class="edge">
<title>TestFuerzaInfoPageRoutingModule&#45;&gt;TestFuerzaInfoPageModule</title>
<path fill="none" stroke="black" d="M228.78,-122.11C228.78,-122.11 228.78,-140.99 228.78,-140.99"/>
<polygon fill="black" stroke="black" points="225.28,-140.99 228.78,-150.99 232.28,-140.99 225.28,-140.99"/>
</g>
</g>
</svg>
