<?xml version="1.0" encoding="UTF-8" standalone="no"?>
<!DOCTYPE svg PUBLIC "-//W3C//DTD SVG 1.1//EN"
 "http://www.w3.org/Graphics/SVG/1.1/DTD/svg11.dtd">
<!-- Generated by graphviz version 2.46.1 (20210213.1702)
 -->
<!-- Title: dependencies Pages: 1 -->
<svg width="504pt" height="211pt"
 viewBox="0.00 0.00 504.00 211.00" xmlns="http://www.w3.org/2000/svg" xmlns:xlink="http://www.w3.org/1999/xlink">
<g id="graph0" class="graph" transform="scale(1 1) rotate(0) translate(4 207)">
<title>dependencies</title>
<polygon fill="white" stroke="transparent" points="-4,4 -4,-207 500,-207 500,4 -4,4"/>
<text text-anchor="start" x="227.01" y="-42.4" font-family="sans-serif" font-weight="bold" font-size="14.00">Legend</text>
<polygon fill="#ffffb3" stroke="transparent" points="14,-10 14,-30 34,-30 34,-10 14,-10"/>
<text text-anchor="start" x="37.63" y="-15.4" font-family="sans-serif" font-size="14.00"> &#160;Declarations</text>
<polygon fill="#8dd3c7" stroke="transparent" points="127,-10 127,-30 147,-30 147,-10 127,-10"/>
<text text-anchor="start" x="150.73" y="-15.4" font-family="sans-serif" font-size="14.00"> &#160;Module</text>
<polygon fill="#80b1d3" stroke="transparent" points="213,-10 213,-30 233,-30 233,-10 213,-10"/>
<text text-anchor="start" x="236.78" y="-15.4" font-family="sans-serif" font-size="14.00"> &#160;Bootstrap</text>
<polygon fill="#fdb462" stroke="transparent" points="310,-10 310,-30 330,-30 330,-10 310,-10"/>
<text text-anchor="start" x="333.67" y="-15.4" font-family="sans-serif" font-size="14.00"> &#160;Providers</text>
<polygon fill="#fb8072" stroke="transparent" points="406,-10 406,-30 426,-30 426,-10 406,-10"/>
<text text-anchor="start" x="429.73" y="-15.4" font-family="sans-serif" font-size="14.00"> &#160;Exports</text>
<g id="clust1" class="cluster">
<title>cluster_TestFuerzaPasos3PageModule</title>
<polygon fill="none" stroke="black" stroke-dasharray="1,5" points="32,-70 32,-195 464,-195 464,-70 32,-70"/>
</g>
<g id="clust2" class="cluster">
<title>cluster_TestFuerzaPasos3PageModule_declarations</title>
<polygon fill="none" stroke="black" points="296,-78 296,-130 456,-130 456,-78 296,-78"/>
</g>
<g id="clust4" class="cluster">
<title>cluster_TestFuerzaPasos3PageModule_imports</title>
<polygon fill="none" stroke="black" points="40,-78 40,-130 288,-130 288,-78 40,-78"/>
</g>
<!-- TestFuerzaPasos3Page -->
<g id="node1" class="node">
<title>TestFuerzaPasos3Page</title>
<polygon fill="#ffffb3" stroke="black" points="448.29,-122 303.71,-122 303.71,-86 448.29,-86 448.29,-122"/>
<text text-anchor="middle" x="376" y="-99.8" font-family="Times,serif" font-size="14.00">TestFuerzaPasos3Page</text>
</g>
<!-- TestFuerzaPasos3PageModule -->
<g id="node2" class="node">
<title>TestFuerzaPasos3PageModule</title>
<polygon fill="#8dd3c7" stroke="black" points="356.84,-187 353.84,-191 332.84,-191 329.84,-187 169.16,-187 169.16,-151 356.84,-151 356.84,-187"/>
<text text-anchor="middle" x="263" y="-164.8" font-family="Times,serif" font-size="14.00">TestFuerzaPasos3PageModule</text>
</g>
<!-- TestFuerzaPasos3Page&#45;&gt;TestFuerzaPasos3PageModule -->
<g id="edge1" class="edge">
<title>TestFuerzaPasos3Page&#45;&gt;TestFuerzaPasos3PageModule</title>
<path fill="none" stroke="black" d="M330.39,-122.11C330.39,-122.11 330.39,-140.99 330.39,-140.99"/>
<polygon fill="black" stroke="black" points="326.89,-140.99 330.39,-150.99 333.89,-140.99 326.89,-140.99"/>
</g>
<!-- TestFuerzaPasos3PageRoutingModule -->
<g id="node3" class="node">
<title>TestFuerzaPasos3PageRoutingModule</title>
<polygon fill="#8dd3c7" stroke="black" points="280.46,-122 277.46,-126 256.46,-126 253.46,-122 47.54,-122 47.54,-86 280.46,-86 280.46,-122"/>
<text text-anchor="middle" x="164" y="-99.8" font-family="Times,serif" font-size="14.00">TestFuerzaPasos3PageRoutingModule</text>
</g>
<!-- TestFuerzaPasos3PageRoutingModule&#45;&gt;TestFuerzaPasos3PageModule -->
<g id="edge2" class="edge">
<title>TestFuerzaPasos3PageRoutingModule&#45;&gt;TestFuerzaPasos3PageModule</title>
<path fill="none" stroke="black" d="M224.78,-122.11C224.78,-122.11 224.78,-140.99 224.78,-140.99"/>
<polygon fill="black" stroke="black" points="221.28,-140.99 224.78,-150.99 228.28,-140.99 221.28,-140.99"/>
</g>
</g>
</svg>
