<?xml version="1.0" encoding="UTF-8" standalone="no"?>
<!DOCTYPE svg PUBLIC "-//W3C//DTD SVG 1.1//EN"
 "http://www.w3.org/Graphics/SVG/1.1/DTD/svg11.dtd">
<!-- Generated by graphviz version 2.46.1 (20210213.1702)
 -->
<!-- Title: dependencies Pages: 1 -->
<svg width="504pt" height="211pt"
 viewBox="0.00 0.00 504.00 211.00" xmlns="http://www.w3.org/2000/svg" xmlns:xlink="http://www.w3.org/1999/xlink">
<g id="graph0" class="graph" transform="scale(1 1) rotate(0) translate(4 207)">
<title>dependencies</title>
<polygon fill="white" stroke="transparent" points="-4,4 -4,-207 500,-207 500,4 -4,4"/>
<text text-anchor="start" x="227.01" y="-42.4" font-family="sans-serif" font-weight="bold" font-size="14.00">Legend</text>
<polygon fill="#ffffb3" stroke="transparent" points="14,-10 14,-30 34,-30 34,-10 14,-10"/>
<text text-anchor="start" x="37.63" y="-15.4" font-family="sans-serif" font-size="14.00"> &#160;Declarations</text>
<polygon fill="#8dd3c7" stroke="transparent" points="127,-10 127,-30 147,-30 147,-10 127,-10"/>
<text text-anchor="start" x="150.73" y="-15.4" font-family="sans-serif" font-size="14.00"> &#160;Module</text>
<polygon fill="#80b1d3" stroke="transparent" points="213,-10 213,-30 233,-30 233,-10 213,-10"/>
<text text-anchor="start" x="236.78" y="-15.4" font-family="sans-serif" font-size="14.00"> &#160;Bootstrap</text>
<polygon fill="#fdb462" stroke="transparent" points="310,-10 310,-30 330,-30 330,-10 310,-10"/>
<text text-anchor="start" x="333.67" y="-15.4" font-family="sans-serif" font-size="14.00"> &#160;Providers</text>
<polygon fill="#fb8072" stroke="transparent" points="406,-10 406,-30 426,-30 426,-10 406,-10"/>
<text text-anchor="start" x="429.73" y="-15.4" font-family="sans-serif" font-size="14.00"> &#160;Exports</text>
<g id="clust1" class="cluster">
<title>cluster_TutorialAlimentacionPageModule</title>
<polygon fill="none" stroke="black" stroke-dasharray="1,5" points="11,-70 11,-195 485,-195 485,-70 11,-70"/>
</g>
<g id="clust4" class="cluster">
<title>cluster_TutorialAlimentacionPageModule_imports</title>
<polygon fill="none" stroke="black" points="207,-78 207,-130 477,-130 477,-78 207,-78"/>
</g>
<g id="clust2" class="cluster">
<title>cluster_TutorialAlimentacionPageModule_declarations</title>
<polygon fill="none" stroke="black" points="19,-78 19,-130 199,-130 199,-78 19,-78"/>
</g>
<!-- TutorialAlimentacionPage -->
<g id="node1" class="node">
<title>TutorialAlimentacionPage</title>
<polygon fill="#ffffb3" stroke="black" points="191.02,-122 26.98,-122 26.98,-86 191.02,-86 191.02,-122"/>
<text text-anchor="middle" x="109" y="-99.8" font-family="Times,serif" font-size="14.00">TutorialAlimentacionPage</text>
</g>
<!-- TutorialAlimentacionPageModule -->
<g id="node2" class="node">
<title>TutorialAlimentacionPageModule</title>
<polygon fill="#8dd3c7" stroke="black" points="336.06,-187 333.06,-191 312.06,-191 309.06,-187 127.94,-187 127.94,-151 336.06,-151 336.06,-187"/>
<text text-anchor="middle" x="232" y="-164.8" font-family="Times,serif" font-size="14.00">TutorialAlimentacionPageModule</text>
</g>
<!-- TutorialAlimentacionPage&#45;&gt;TutorialAlimentacionPageModule -->
<g id="edge1" class="edge">
<title>TutorialAlimentacionPage&#45;&gt;TutorialAlimentacionPageModule</title>
<path fill="none" stroke="black" d="M159.61,-122.11C159.61,-122.11 159.61,-140.99 159.61,-140.99"/>
<polygon fill="black" stroke="black" points="156.11,-140.99 159.61,-150.99 163.11,-140.99 156.11,-140.99"/>
</g>
<!-- TutorialAlimentacionPageRoutingModule -->
<g id="node3" class="node">
<title>TutorialAlimentacionPageRoutingModule</title>
<polygon fill="#8dd3c7" stroke="black" points="468.68,-122 465.68,-126 444.68,-126 441.68,-122 215.32,-122 215.32,-86 468.68,-86 468.68,-122"/>
<text text-anchor="middle" x="342" y="-99.8" font-family="Times,serif" font-size="14.00">TutorialAlimentacionPageRoutingModule</text>
</g>
<!-- TutorialAlimentacionPageRoutingModule&#45;&gt;TutorialAlimentacionPageModule -->
<g id="edge2" class="edge">
<title>TutorialAlimentacionPageRoutingModule&#45;&gt;TutorialAlimentacionPageModule</title>
<path fill="none" stroke="black" d="M275.72,-122.11C275.72,-122.11 275.72,-140.99 275.72,-140.99"/>
<polygon fill="black" stroke="black" points="272.22,-140.99 275.72,-150.99 279.22,-140.99 272.22,-140.99"/>
</g>
</g>
</svg>
